<?xml version="1.0" encoding="UTF-8"?>
<svg id="Ebene_1" xmlns="http://www.w3.org/2000/svg" viewBox="0 0 128 69">
    <defs>
        <style>.cls-1{fill:#f8f8f8;}</style>
    </defs>
    <path class="cls-1"
          d="m45.94,31.18l1.72,12.27,4.59-.65-1.44-10.24c.57-.3,1.39-.41,2.3-.11l.34-3.28c-.46.03-.91.07-1.34.13-2.97.39-4.94,1.03-6.17,1.88Z"/>
    <path class="cls-1"
          d="m85.33,20.99l-4.43,1.79.37,2.66-1.36.19.42,2.99,1.36-.19.87,6.22c.31,2.24,1.89,3.83,4.83,3.42,1.06-.15,1.84-.54,2.14-.76l-.39-2.81c-.35.17-.52.26-.85.3-.69.1-1.08-.22-1.21-1.19l-.82-5.83,1.87-.26h.03s-.42-3-.42-3l-1.87.26-.54-3.81Z"/>
    <rect class="cls-1" x="90.72" y="23.89" width="4.64" height="13.12" transform="translate(-3.33 13.25) rotate(-8)"/>
    <path class="cls-1"
          d="m91.3,18.09c-1.3.18-2.23,1.24-2.07,2.39s1.35,1.94,2.65,1.75,2.26-1.27,2.09-2.42-1.35-1.91-2.68-1.72Z"/>
    <polygon class="cls-1"
             points="108.53 21.65 104.27 22.25 103.01 25.75 102.95 25.76 100.92 22.72 96.15 23.39 100.69 29.16 97.55 36.44 102.17 35.79 103.39 31.95 103.45 31.94 105.62 35.31 105.62 35.34 110.73 34.62 105.6 28.19 108.53 21.65"/>
    <path class="cls-1"
          d="m36.92,31.44c-2.51.35-4.11,1.01-5.27,1.76l2.45,17.46,4.59-.65-.73-5.23c.35.04,1.05.04,1.87-.08,3.35-.47,5.38-3.41,4.8-7.51-.64-4.56-3.69-6.32-7.71-5.76Zm1.42,10.77c-.3.04-.55.02-.74-.02l-1.1-7.83c.2-.09.44-.18.77-.23,1.66-.23,2.45,1.01,2.84,3.73s-.13,4.12-1.76,4.35Z"/>
    <path class="cls-1"
          d="m60.61,28.14c-4.08.57-5.77,3.68-5.22,7.57s3.19,6.45,7.45,5.86c2.42-.34,3.86-1.01,4.94-1.71l-1.42-2.67c-.67.46-1.84.97-3.38,1.18-1.66.23-2.48-.36-2.98-1.71l7.44-2.12c-.38-4.45-2.71-7.01-6.82-6.41Zm-1.29,6.4c-.44-2.25.11-3.59,1.47-3.78,1.18-.17,1.89.72,2.14,2.72l-3.61,1.06Z"/>
    <path class="cls-1"
          d="m122.48,16.27c.33-.08.54-.35.49-.68l-2.1-14.94c-.05-.33-.36-.57-.69-.52L.53,16.94c-.33.05-.57.36-.52.69l2.1,14.94c.05.33.32.54.66.52,5.21-.42,9.92,3.29,10.66,8.55s-2.77,10.1-7.9,11.09c-.33.08-.54.35-.49.68l2.1,14.94c.05.33.36.57.69.52l119.65-16.82c.33-.05.57-.36.52-.69l-2.1-14.94c-.05-.33-.32-.54-.66-.52-5.21.42-9.92-3.26-10.66-8.52s2.77-10.13,7.9-11.12Zm-9.71,11.38c.81,5.77,5.72,10.04,11.47,10.13l1.78,12.64-47.53,6.68-.33-2.34c-.07-.48-.52-.82-1-.75s-.82.5-.75,1l.33,2.34-67.95,9.55-1.78-12.64c5.5-1.64,9.05-7.06,8.24-12.87s-5.73-10.07-11.47-10.16l-1.78-12.64,67.95-9.55.33,2.34c.07.48.52.82,1,.75s.82-.52.75-1l-.33-2.34,47.53-6.68,1.78,12.64c-5.5,1.64-9.05,7.09-8.23,12.9Z"/>
    <path class="cls-1"
          d="m75.82,44.49c-.48.07-.82.52-.75,1l.59,4.23c.07.48.52.82,1,.75s.82-.52.75-1l-.59-4.23c-.07-.47-.53-.82-1-.75Z"/>
    <path class="cls-1"
          d="m74.46,34.86c-.5.07-.82.5-.75,1l.59,4.23c.07.47.53.82,1,.75s.82-.53.75-1l-.59-4.23c-.07-.48-.52-.82-1-.75Z"/>
    <path class="cls-1"
          d="m73.11,25.23c-.48.07-.82.52-.75,1l.59,4.23c.07.48.52.82,1,.75s.82-.52.75-1l-.59-4.23c-.07-.47-.53-.82-1-.75Z"/>
    <path class="cls-1"
          d="m71.76,15.6c-.5.07-.82.5-.75,1l.59,4.23c.07.47.53.82,1,.75s.82-.53.75-1l-.59-4.23c-.07-.48-.52-.82-1-.75Z"/>
</svg>