<?xml version="1.0" encoding="UTF-8" standalone="no"?>
<svg
   xmlns:dc="http://purl.org/dc/elements/1.1/"
   xmlns:cc="http://creativecommons.org/ns#"
   xmlns:rdf="http://www.w3.org/1999/02/22-rdf-syntax-ns#"
   xmlns:svg="http://www.w3.org/2000/svg"
   xmlns="http://www.w3.org/2000/svg"
   viewBox="0 0 149.59399 149.59399"
   version="1.1"
   id="svg2"
   height="159.56693"
   width="159.56693">
  <defs
     id="defs4" />
  <metadata
     id="metadata7">
    <rdf:RDF>
      <cc:Work
         rdf:about="">
        <dc:format>image/svg+xml</dc:format>
        <dc:type
           rdf:resource="http://purl.org/dc/dcmitype/StillImage" />
        <dc:title></dc:title>
      </cc:Work>
    </rdf:RDF>
  </metadata>
  <g
     transform="translate(-257.78125,-548.74975)"
     id="layer1">
    <path
       id="rect3888"
       transform="matrix(0.93749999,0,0,0.93749999,257.78125,548.74975)"
       d="M 21.333984 21.333984 L 21.333984 57.699219 C 33.470966 57.699219 43.320312 67.601506 43.320312 79.800781 C 43.320312 92.000035 33.470966 101.86719 21.333984 101.86719 L 21.333984 138.23438 L 94.226562 138.23438 L 94.226562 128.09961 L 97.410156 128.09961 L 97.410156 138.23438 L 138.23438 138.23438 L 138.23438 101.86719 C 138.22328 101.86721 138.21216 101.86719 138.20117 101.86719 C 126.0642 101.86719 116.21289 92.000035 116.21289 79.800781 C 116.21289 67.601506 126.0642 57.699219 138.20117 57.699219 C 138.21237 57.699219 138.22339 57.699197 138.23438 57.699219 L 138.23438 21.333984 L 97.410156 21.333984 L 97.410156 31.033203 L 94.226562 31.033203 L 94.226562 21.333984 L 21.333984 21.333984 z M 94.226562 38.5 L 97.410156 38.5 L 97.410156 53.433594 L 94.226562 53.433594 L 94.226562 38.5 z M 94.226562 60.900391 L 97.410156 60.900391 L 97.410156 75.833984 L 94.226562 75.833984 L 94.226562 60.900391 z M 67.044922 64.027344 C 76.359333 64.027344 82.662109 68.991742 82.662109 79.533203 C 82.662109 89.014942 77.139434 95.039062 69.386719 95.039062 C 67.490377 95.039062 65.927327 94.814901 65.146484 94.591797 L 65.146484 106.64062 L 54.550781 106.64062 L 54.550781 66.314453 C 57.395304 64.97585 61.244324 64.027344 67.044922 64.027344 z M 66.990234 70.216797 C 66.209392 70.216797 65.648458 70.328766 65.146484 70.496094 L 65.146484 88.568359 C 65.536906 88.735677 66.097199 88.845703 66.822266 88.845703 C 70.61497 88.845703 72.175781 85.725087 72.175781 79.589844 C 72.175781 73.287273 70.838704 70.216797 66.990234 70.216797 z M 94.226562 83.300781 L 97.410156 83.300781 L 97.410156 98.234375 L 94.226562 98.234375 L 94.226562 83.300781 z M 94.226562 105.69922 L 97.410156 105.69922 L 97.410156 120.63281 L 94.226562 120.63281 L 94.226562 105.69922 z "
       style="color:#000000;display:inline;overflow:visible;visibility:visible;fill:#3b1c4a;fill-opacity:1;fill-rule:nonzero;stroke:none;stroke-width:1.06666672;marker:none;enable-background:accumulate" />
  </g>
</svg>
