<?xml version="1.0" encoding="UTF-8" standalone="no"?>
<!-- Created with Inkscape (http://www.inkscape.org/) -->

<svg
   xmlns:dc="http://purl.org/dc/elements/1.1/"
   xmlns:cc="http://creativecommons.org/ns#"
   xmlns:rdf="http://www.w3.org/1999/02/22-rdf-syntax-ns#"
   xmlns:svg="http://www.w3.org/2000/svg"
   xmlns="http://www.w3.org/2000/svg"
   xmlns:sodipodi="http://sodipodi.sourceforge.net/DTD/sodipodi-0.dtd"
   xmlns:inkscape="http://www.inkscape.org/namespaces/inkscape"
   width="149.59399"
   height="149.59399"
   id="svg2"
   version="1.1"
   inkscape:version="0.48.5 r10040"
   sodipodi:docname="icon_draft.svg">
  <defs
     id="defs4" />
  <sodipodi:namedview
     id="base"
     pagecolor="#ffffff"
     bordercolor="#666666"
     borderopacity="1.0"
     inkscape:pageopacity="0.0"
     inkscape:pageshadow="2"
     inkscape:zoom="3.959798"
     inkscape:cx="141.14985"
     inkscape:cy="82.686886"
     inkscape:document-units="px"
     inkscape:current-layer="layer1"
     showgrid="false"
     inkscape:window-width="1914"
     inkscape:window-height="1039"
     inkscape:window-x="1920"
     inkscape:window-y="18"
     inkscape:window-maximized="0"
     fit-margin-top="20"
     fit-margin-left="20"
     fit-margin-right="20"
     fit-margin-bottom="20" />
  <metadata
     id="metadata7">
    <rdf:RDF>
      <cc:Work
         rdf:about="">
        <dc:format>image/svg+xml</dc:format>
        <dc:type
           rdf:resource="http://purl.org/dc/dcmitype/StillImage" />
        <dc:title></dc:title>
      </cc:Work>
    </rdf:RDF>
  </metadata>
  <g
     inkscape:label="Ebene 1"
     inkscape:groupmode="layer"
     id="layer1"
     transform="translate(-257.78125,-548.74975)">
    <path
       style="color:#000000;fill:#3b1c4a;fill-opacity:1;fill-rule:nonzero;stroke:none;marker:none;visibility:visible;display:inline;overflow:visible;enable-background:accumulate"
       d="m 277.78125,568.74975 0,34.09383 c 11.37842,0 20.613,9.28198 20.613,20.7188 0,11.4368 -9.23458,20.68754 -20.613,20.68754 l 0,34.09383 68.33691,0 0,-9.50002 2.98469,0 0,9.50002 38.2724,0 0,-34.09383 c -0.0104,2e-5 -0.0207,0 -0.031,0 -11.37841,0 -20.613,-9.25074 -20.613,-20.68754 0,-11.43682 9.23459,-20.7188 20.613,-20.7188 0.0105,0 0.0207,-2e-5 0.031,0 l 0,-34.09383 -38.2724,0 0,9.09377 -2.98469,0 0,-9.09377 z m 68.33691,16.09379 2.98469,0 0,14.00003 -2.98469,0 z m 0,21.00004 2.98469,0 0,14.00004 -2.98469,0 z m -24.40604,3.68751 c 4.02516,3e-5 7.02244,1.10354 8.98515,3.34376 1.96268,2.20685 2.92251,5.27326 2.92251,9.21877 l 0,3.87501 c 0,3.94554 -0.95983,7.04102 -2.92251,9.28127 -1.96271,2.20683 -4.95999,3.31251 -8.98515,3.31251 -0.5988,0 -1.31361,-0.0268 -2.14524,-0.0937 -0.83167,-0.0334 -1.71126,-0.11626 -2.64269,-0.25 l 0,8.87502 c -1e-5,0.26748 -0.11132,0.48687 -0.31091,0.6875 -0.19961,0.20061 -0.41788,0.31249 -0.68399,0.3125 l -4.60139,0 c -0.26614,-1e-5 -0.4844,-0.11189 -0.684,-0.3125 -0.19959,-0.20063 -0.3109,-0.42002 -0.3109,-0.6875 l 0,-34.90633 c 0,-0.36777 0.0824,-0.64529 0.24872,-0.8125 0.16633,-0.20059 0.52265,-0.39529 1.08817,-0.5625 1.5635,-0.40121 3.24248,-0.70343 5.00557,-0.93751 1.76309,-0.23403 3.43988,-0.34372 5.03666,-0.34375 z m 0,5.40627 c -0.89819,2e-5 -1.80453,0.0269 -2.73596,0.0937 -0.89819,0.0669 -1.58626,0.14971 -2.05197,0.25 l 0,17.50004 c 0.69857,0.10031 1.49359,0.18313 2.42505,0.25 0.9647,0.0669 1.76408,0.12501 2.36288,0.125 1.06449,10e-6 1.94409,-0.19469 2.64269,-0.5625 0.69857,-0.36781 1.24859,-0.86471 1.6478,-1.50001 0.39917,-0.63529 0.67527,-1.38064 0.80835,-2.25 0.16631,-0.86934 0.24871,-1.83846 0.24873,-2.87501 l 0,-3.87501 c -2e-5,-1.03651 -0.0824,-1.97438 -0.24873,-2.84375 -0.13308,-0.86934 -0.40918,-1.61469 -0.80835,-2.25001 -0.39921,-0.63527 -0.94923,-1.13218 -1.6478,-1.5 -0.6986,-0.36778 -1.5782,-0.56248 -2.64269,-0.5625 z m 24.40604,11.90627 2.98469,0 0,14.00003 -2.98469,0 z m 0,21.00005 2.98469,0 0,14.00003 -2.98469,0 z"
       id="rect3888"
       inkscape:connector-curvature="0"
       sodipodi:nodetypes="ccsccccccccssscccccccccccccccccccsscscccccccssccccccccccccccccccccccccccccc" />
  </g>
</svg>
