<?xml version="1.0" encoding="UTF-8" standalone="no"?>
<!-- Created with Inkscape (http://www.inkscape.org/) -->

<svg
   xmlns:dc="http://purl.org/dc/elements/1.1/"
   xmlns:cc="http://creativecommons.org/ns#"
   xmlns:rdf="http://www.w3.org/1999/02/22-rdf-syntax-ns#"
   xmlns:svg="http://www.w3.org/2000/svg"
   xmlns="http://www.w3.org/2000/svg"
   xmlns:sodipodi="http://sodipodi.sourceforge.net/DTD/sodipodi-0.dtd"
   xmlns:inkscape="http://www.inkscape.org/namespaces/inkscape"
   width="294.15625"
   height="149.59375"
   id="svg2"
   version="1.1"
   inkscape:version="0.48.5 r10040"
   sodipodi:docname="logo_draft.svg">
  <defs
     id="defs4" />
  <sodipodi:namedview
     id="base"
     pagecolor="#ffffff"
     bordercolor="#666666"
     borderopacity="1.0"
     inkscape:pageopacity="0.0"
     inkscape:pageshadow="2"
     inkscape:zoom="3.959798"
     inkscape:cx="141.14985"
     inkscape:cy="82.686879"
     inkscape:document-units="px"
     inkscape:current-layer="layer1"
     showgrid="false"
     inkscape:window-width="1914"
     inkscape:window-height="1039"
     inkscape:window-x="1920"
     inkscape:window-y="18"
     inkscape:window-maximized="0"
     fit-margin-top="20"
     fit-margin-left="20"
     fit-margin-right="20"
     fit-margin-bottom="20" />
  <metadata
     id="metadata7">
    <rdf:RDF>
      <cc:Work
         rdf:about="">
        <dc:format>image/svg+xml</dc:format>
        <dc:type
           rdf:resource="http://purl.org/dc/dcmitype/StillImage" />
        <dc:title />
      </cc:Work>
    </rdf:RDF>
  </metadata>
  <g
     inkscape:label="Ebene 1"
     inkscape:groupmode="layer"
     id="layer1"
     transform="translate(-257.78125,-548.75)">
    <path
       style="color:#000000;fill:#3b1c4a;fill-opacity:1;fill-rule:nonzero;stroke:none;marker:none;visibility:visible;display:inline;overflow:visible;enable-background:accumulate"
       d="M 20 20 L 20 54.09375 C 31.43679 54.09375 40.71875 63.37571 40.71875 74.8125 C 40.71875 86.24928 31.43679 95.5 20 95.5 L 20 129.59375 L 166.6875 129.59375 L 166.6875 120.09375 L 169.6875 120.09375 L 169.6875 129.59375 L 274.15625 129.59375 L 274.15625 95.5 C 274.14575 95.50002 274.1354 95.5 274.125 95.5 C 262.68822 95.5 253.40625 86.24928 253.40625 74.8125 C 253.40625 63.37571 262.68822 54.09375 274.125 54.09375 C 274.1355 54.09375 274.14585 54.09373 274.15625 54.09375 L 274.15625 20 L 169.6875 20 L 169.6875 29.09375 L 166.6875 29.09375 L 166.6875 20 L 20 20 z M 166.6875 36.09375 L 169.6875 36.09375 L 169.6875 50.09375 L 166.6875 50.09375 L 166.6875 36.09375 z M 205.375 50.9375 L 210.21875 50.9375 C 210.48624 50.93754 210.73687 51.04942 210.9375 51.25 C 211.13811 51.45066 211.24999 51.67004 211.25 51.9375 L 211.25 56.34375 C 211.24999 56.61128 211.13811 56.86191 210.9375 57.0625 C 210.73687 57.26315 210.48624 57.37503 210.21875 57.375 L 205.375 57.375 C 205.1075 57.37503 204.85905 57.26315 204.625 57.0625 C 204.42438 56.86191 204.3125 56.61128 204.3125 56.34375 L 204.3125 51.9375 C 204.3125 51.67004 204.42438 51.45066 204.625 51.25 C 204.85905 51.04942 205.1075 50.93754 205.375 50.9375 z M 193.15625 55.21875 L 193.375 55.21875 C 193.90998 55.21878 194.15624 55.46724 194.15625 55.96875 L 194.15625 61.125 L 198.6875 61.125 C 198.95498 61.12502 199.17436 61.2369 199.375 61.4375 C 199.5756 61.63814 199.68748 61.85754 199.6875 62.125 L 199.6875 65.09375 C 199.68748 65.36127 199.5756 65.58066 199.375 65.78125 C 199.17436 65.9819 198.95498 66.09377 198.6875 66.09375 L 194.15625 66.09375 L 194.15625 81.84375 C 194.15624 82.47905 194.18525 82.97595 194.21875 83.34375 C 194.25215 83.71156 194.33499 83.98689 194.46875 84.1875 C 194.60248 84.38813 194.79718 84.52688 195.03125 84.59375 C 195.29872 84.62715 195.65688 84.65625 196.125 84.65625 L 198.78125 84.65625 C 199.4834 84.65625 199.84373 84.90471 199.84375 85.40625 L 199.84375 88.5625 C 199.84373 89.06405 199.51028 89.36844 198.875 89.46875 C 198.27313 89.56906 197.69341 89.65188 197.125 89.71875 C 196.59 89.78565 196.03716 89.8125 195.46875 89.8125 C 194.0644 89.8125 192.84902 89.70062 191.8125 89.5 C 190.80939 89.29938 189.97904 88.91217 189.34375 88.34375 C 188.70845 87.77533 188.23843 86.97404 187.9375 85.9375 C 187.63657 84.86754 187.49999 83.51559 187.5 81.84375 L 187.5 66.09375 L 182.78125 65.375 C 182.51375 65.3082 182.29437 65.19846 182.09375 65.03125 C 181.89313 64.86409 181.78125 64.64252 181.78125 64.375 L 181.78125 62.125 C 181.78125 61.85754 181.89313 61.63814 182.09375 61.4375 C 182.29437 61.2369 182.51375 61.12502 182.78125 61.125 L 187.5 61.125 L 187.5 57 C 187.49999 56.73254 187.61187 56.51097 187.8125 56.34375 C 188.01311 56.1766 188.2325 56.0669 188.5 56 L 193.15625 55.21875 z M 166.6875 57.09375 L 169.6875 57.09375 L 169.6875 71.09375 L 166.6875 71.09375 L 166.6875 57.09375 z M 94.15625 60.78125 C 98.20206 60.78128 101.21472 61.88478 103.1875 64.125 C 105.16024 66.33184 106.12498 69.39825 106.125 73.34375 L 106.125 77.21875 C 106.12498 81.16428 105.16024 84.25975 103.1875 86.5 C 101.21472 88.70682 98.20206 89.8125 94.15625 89.8125 C 93.55438 89.8125 92.8359 89.78566 92 89.71875 C 91.16407 89.68535 90.27996 89.60249 89.34375 89.46875 L 89.34375 98.34375 C 89.34374 98.61123 89.23186 98.83062 89.03125 99.03125 C 88.83062 99.23186 88.61123 99.34374 88.34375 99.34375 L 83.71875 99.34375 C 83.45125 99.34374 83.23187 99.23186 83.03125 99.03125 C 82.83063 98.83062 82.71875 98.61123 82.71875 98.34375 L 82.71875 63.4375 C 82.71875 63.06973 82.80158 62.79221 82.96875 62.625 C 83.13593 62.42441 83.49408 62.22971 84.0625 62.0625 C 85.63402 61.66129 87.32161 61.35908 89.09375 61.125 C 90.86588 60.89097 92.55128 60.78128 94.15625 60.78125 z M 125.15625 60.78125 C 125.42373 60.78128 125.64311 60.86191 125.84375 61.0625 C 126.04435 61.26315 126.15623 61.51378 126.15625 61.78125 L 126.15625 65.375 C 126.15623 65.64252 126.04435 65.89316 125.84375 66.09375 C 125.64311 66.29439 125.42373 66.37502 125.15625 66.375 C 123.78534 66.37502 122.54089 66.54066 121.4375 66.875 C 120.36751 67.17595 119.28871 67.6191 118.21875 68.1875 L 118.21875 88.34375 C 118.21874 88.61124 118.13815 88.8597 117.9375 89.09375 C 117.73688 89.29437 117.48623 89.40625 117.21875 89.40625 L 112.625 89.40625 C 112.35751 89.40625 112.10686 89.29437 111.90625 89.09375 C 111.70562 88.8597 111.62499 88.61124 111.625 88.34375 L 111.625 62.125 C 111.62499 61.85754 111.7056 61.63814 111.90625 61.4375 C 112.10686 61.2369 112.35751 61.12502 112.625 61.125 L 116.96875 61.125 C 117.23624 61.12502 117.48687 61.2369 117.6875 61.4375 C 117.88811 61.63814 117.96874 61.85754 117.96875 62.125 L 117.96875 63.1875 C 119.20589 62.21786 120.47939 61.58221 121.75 61.28125 C 123.02057 60.94691 124.15314 60.78128 125.15625 60.78125 z M 140.625 60.78125 C 142.56431 60.78128 144.27878 61.08349 145.75 61.71875 C 147.25463 62.32064 148.49688 63.20693 149.5 64.34375 C 150.50308 65.48062 151.24843 66.83475 151.75 68.40625 C 152.28496 69.94435 152.56247 71.62757 152.5625 73.5 L 152.5625 76.3125 C 152.56247 77.14843 152.23121 77.56251 151.5625 77.5625 L 135.21875 77.5625 L 135.21875 77.71875 C 135.21874 78.45437 135.30155 79.19972 135.46875 79.96875 C 135.63592 80.70436 135.94031 81.39596 136.375 82.03125 C 136.8431 82.63312 137.44969 83.13002 138.21875 83.53125 C 139.02121 83.89906 140.01502 84.09376 141.21875 84.09375 C 143.05775 84.09376 144.80127 84.03776 146.40625 83.9375 C 148.04462 83.80376 149.39875 83.69407 150.46875 83.59375 L 150.59375 83.59375 C 150.86122 83.59376 151.0828 83.64753 151.25 83.78125 C 151.41716 83.88157 151.49997 84.07626 151.5 84.34375 L 151.5 87.65625 C 151.49997 88.05749 151.4462 88.36188 151.3125 88.5625 C 151.21216 88.76312 150.93683 88.90188 150.46875 88.96875 C 149.66624 89.13593 148.88965 89.24344 148.1875 89.34375 C 147.48531 89.44406 146.76684 89.55813 146.03125 89.625 C 145.32907 89.6919 144.55684 89.71656 143.6875 89.75 C 142.85157 89.7834 141.85558 89.8125 140.71875 89.8125 C 139.44815 89.8125 138.09401 89.6178 136.65625 89.25 C 135.2519 88.84876 133.95371 88.18623 132.75 87.25 C 131.54628 86.28034 130.55247 84.97997 129.75 83.375 C 128.98095 81.73662 128.59374 79.69307 128.59375 77.21875 L 128.59375 73.5 C 128.59374 71.56069 128.87127 69.82154 129.40625 68.25 C 129.94124 66.6785 130.6844 65.32218 131.6875 64.21875 C 132.72403 63.11537 133.99535 62.28939 135.5 61.6875 C 137.00464 61.08567 138.7191 60.78128 140.625 60.78125 z M 205.46875 61.125 L 210.09375 61.125 C 210.36123 61.12502 210.58062 61.2369 210.78125 61.4375 C 210.98186 61.63814 211.09374 61.85754 211.09375 62.125 L 211.09375 88.34375 C 211.09374 88.61124 210.98186 88.8597 210.78125 89.09375 C 210.58062 89.29437 210.36123 89.40625 210.09375 89.40625 L 205.46875 89.40625 C 205.20125 89.40625 204.95061 89.29437 204.75 89.09375 C 204.54937 88.8597 204.46874 88.61124 204.46875 88.34375 L 204.46875 62.125 C 204.46874 61.85754 204.54935 61.63814 204.75 61.4375 C 204.95061 61.2369 205.20125 61.12502 205.46875 61.125 z M 216.6875 61.125 L 222.40625 61.125 C 222.67374 61.12502 222.89531 61.20783 223.0625 61.375 C 223.22967 61.50877 223.42 61.75723 223.6875 62.125 L 228.78125 69.9375 L 233.46875 62.125 C 233.73622 61.65692 233.9578 61.38159 234.125 61.28125 C 234.3256 61.18097 234.57624 61.12502 234.84375 61.125 L 240 61.125 C 240.40121 61.12502 240.59372 61.31973 240.59375 61.6875 C 240.59372 61.85471 240.56905 61.99128 240.46875 62.125 L 232.1875 74.75 L 241.3125 88.40625 C 241.3793 88.53999 241.40625 88.64969 241.40625 88.75 C 241.40623 88.91718 241.32345 89.08501 241.15625 89.21875 C 241.02248 89.3525 240.85684 89.40625 240.65625 89.40625 L 234.9375 89.40625 C 234.66999 89.40625 234.4506 89.35026 234.25 89.25 C 234.0828 89.11625 233.86122 88.84092 233.59375 88.40625 L 227.875 79.59375 L 222.4375 88.40625 C 222.17 88.84092 221.95061 89.11625 221.75 89.25 C 221.58281 89.35031 221.36123 89.40625 221.09375 89.40625 L 215.9375 89.40625 C 215.53626 89.40625 215.3125 89.21155 215.3125 88.84375 C 215.3125 88.71 215.3685 88.57343 215.46875 88.40625 L 224.46875 74.8125 L 215.96875 62.125 C 215.90185 61.99128 215.8749 61.87941 215.875 61.8125 C 215.87499 61.64535 215.96 61.50877 216.09375 61.375 C 216.26093 61.20785 216.45345 61.12502 216.6875 61.125 z M 94.15625 66.1875 C 93.25345 66.18752 92.34246 66.21444 91.40625 66.28125 C 90.50345 66.34815 89.81185 66.43096 89.34375 66.53125 L 89.34375 84.03125 C 90.04591 84.13156 90.84501 84.21438 91.78125 84.28125 C 92.7509 84.34815 93.55438 84.40626 94.15625 84.40625 C 95.2262 84.40626 96.11031 84.21156 96.8125 83.84375 C 97.51465 83.47595 98.06749 82.97905 98.46875 82.34375 C 98.86997 81.70846 99.14748 80.96311 99.28125 80.09375 C 99.44841 79.22441 99.53123 78.2553 99.53125 77.21875 L 99.53125 73.34375 C 99.53123 72.30724 99.44842 71.36937 99.28125 70.5 C 99.14748 69.63067 98.86997 68.88532 98.46875 68.25 C 98.06749 67.61473 97.51465 67.11782 96.8125 66.75 C 96.11031 66.38222 95.2262 66.18752 94.15625 66.1875 z M 140.0625 66.5 C 138.74958 66.617042 137.6277 67.157544 136.75 68.09375 C 135.74689 69.1303 135.24999 70.65008 135.25 72.65625 L 135.25 72.84375 L 145.90625 72.84375 L 145.90625 72.65625 C 145.90623 70.68351 145.40714 69.16374 144.4375 68.09375 C 143.46782 67.0238 142.19651 66.50002 140.625 66.5 C 140.42856 66.500002 140.25006 66.48328 140.0625 66.5 z M 166.6875 78.09375 L 169.6875 78.09375 L 169.6875 92.09375 L 166.6875 92.09375 L 166.6875 78.09375 z M 166.6875 99.09375 L 169.6875 99.09375 L 169.6875 113.09375 L 166.6875 113.09375 L 166.6875 99.09375 z "
       transform="translate(257.78125,548.75)"
       id="rect3888" />
  </g>
</svg>
