<?xml version="1.0" encoding="UTF-8" standalone="no"?>
<!-- Created with Inkscape (http://www.inkscape.org/) -->

<svg
   xmlns:dc="http://purl.org/dc/elements/1.1/"
   xmlns:cc="http://creativecommons.org/ns#"
   xmlns:rdf="http://www.w3.org/1999/02/22-rdf-syntax-ns#"
   xmlns:svg="http://www.w3.org/2000/svg"
   xmlns="http://www.w3.org/2000/svg"
   xmlns:sodipodi="http://sodipodi.sourceforge.net/DTD/sodipodi-0.dtd"
   xmlns:inkscape="http://www.inkscape.org/namespaces/inkscape"
   width="600"
   height="400"
   id="svg2"
   version="1.1"
   inkscape:version="0.92.1 r"
   sodipodi:docname="logo.svg"
   inkscape:export-filename="/tmp/LOGO.png"
   inkscape:export-xdpi="96"
   inkscape:export-ydpi="96"
   viewBox="0 0 562.50001 375.00002">
  <defs
     id="defs4" />
  <sodipodi:namedview
     id="base"
     pagecolor="#ffffff"
     bordercolor="#666666"
     borderopacity="1.0"
     inkscape:pageopacity="0.0"
     inkscape:pageshadow="2"
     inkscape:zoom="0.9899495"
     inkscape:cx="133.36756"
     inkscape:cy="276.10571"
     inkscape:document-units="px"
     inkscape:current-layer="layer1"
     showgrid="false"
     inkscape:window-width="1916"
     inkscape:window-height="1041"
     inkscape:window-x="1920"
     inkscape:window-y="18"
     inkscape:window-maximized="0"
     fit-margin-top="20"
     fit-margin-left="20"
     fit-margin-right="20"
     fit-margin-bottom="20" />
  <metadata
     id="metadata7">
    <rdf:RDF>
      <cc:Work
         rdf:about="">
        <dc:format>image/svg+xml</dc:format>
        <dc:type
           rdf:resource="http://purl.org/dc/dcmitype/StillImage" />
        <dc:title></dc:title>
      </cc:Work>
    </rdf:RDF>
  </metadata>
  <g
     inkscape:label="Ebene 1"
     inkscape:groupmode="layer"
     id="layer1"
     transform="translate(-259.03125,-322.09374)">
    <path
       style="color:#000000;display:inline;overflow:visible;visibility:visible;fill:#3b1c4a;fill-opacity:1;fill-rule:nonzero;stroke:none;stroke-width:1.91138947;marker:none;enable-background:accumulate"
       d="m 297.38548,404.85558 v 65.16643 c 21.86016,0 39.6016,17.74144 39.6016,39.60159 0,21.86015 -17.74144,39.54187 -39.6016,39.54187 v 65.16644 h 280.37693 v -18.1582 h 5.73417 v 18.1582 h 199.68046 v -65.16644 c -0.02,4e-5 -0.0397,0 -0.0596,0 -21.86015,0 -39.6016,-17.68172 -39.6016,-39.54187 0,-21.86015 17.74145,-39.60159 39.6016,-39.60159 0.02,0 0.0397,-4e-5 0.0596,0 V 404.85558 H 583.49658 v 17.38169 h -5.73417 V 404.85558 Z M 577.76241,435.617 h 5.73417 v 26.75945 h -5.73417 z m 79.21068,24.53074 c 5.33405,0 9.60172,3.68466 9.60172,8.24287 0,4.5582 -4.26767,8.33993 -9.60172,8.33993 -5.2371,0 -9.50469,-3.78173 -9.50469,-8.33993 0,-4.55821 4.26759,-8.24287 9.50469,-8.24287 z m -25.28486,8.04874 v 15.32472 h 7.56717 v 12.02458 h -7.56717 v 23.47051 c 0,3.87934 1.35737,5.33473 4.0729,5.33473 1.35775,0 2.03951,-0.19461 3.49427,-0.77651 v 11.34514 c -1.35777,0.77585 -4.56174,1.84419 -8.829,1.84419 -11.73495,0 -17.16515,-7.17511 -17.16515,-16.19455 v -25.02351 h -5.43179 V 483.5212 h 5.43179 v -10.66944 z m -53.92582,7.5597 h 5.73417 v 26.75945 h -5.73417 z m -142.52917,6.79439 c 16.19618,0 27.15517,8.63124 27.15517,26.96104 0,16.48713 -9.6016,26.96105 -23.08227,26.96105 -3.29741,0 -6.01528,-0.38857 -7.37304,-0.77651 v 20.95062 H 413.50612 V 486.5264 c 4.94614,-2.32759 11.64087,-3.97583 21.72712,-3.97583 z m 95.30815,0 c 16.39014,0 24.14917,11.34479 23.17933,29.09269 l -30.45158,4.27076 c 1.1638,5.62501 4.16799,8.437 10.85985,8.437 6.20689,0 11.05633,-1.36007 13.96583,-2.81482 l 4.0729,11.2518 c -4.5582,2.23062 -10.6662,3.97584 -20.36451,3.97584 -17.06903,0 -26.08749,-11.54096 -26.08749,-27.25223 0,-15.71126 8.43552,-26.96104 24.82567,-26.96104 z m -34.25568,0.0113 c 1.70649,0.026 3.49392,0.0859 5.36084,0.18292 l -3.20307,12.80108 c -3.39442,-1.6487 -6.69185,-1.74642 -9.11643,-0.87356 v 41.121 h -18.42698 v -49.2668 c 5.3462,-2.63068 13.44024,-4.1463 25.38564,-3.96465 z m 151.47387,0.95943 h 18.42699 v 52.27202 h -18.42699 z m 25.29605,0 h 19.20348 l 6.30535,13.09227 h 0.19412 l 6.884,-13.09227 h 17.16517 l -15.22393,24.14622 16.67986,28.1258 h -20.3645 l -6.69361,-14.45115 h -0.19412 l -6.98104,14.45115 h -18.62112 l 16.38867,-26.96104 z m -143.29075,9.60175 c -5.43106,0 -8.43651,4.94275 -7.85461,14.05916 l 14.8394,-2.22871 c 0,-7.9526 -2.3296,-11.83045 -6.98479,-11.83045 z m -94.6287,0.19038 c -1.35776,0 -2.33024,0.19437 -3.20308,0.48532 v 31.4222 c 0.67888,0.29093 1.65112,0.48531 2.91189,0.48531 6.59487,0 9.31055,-5.42933 9.31055,-16.09748 0,-10.95908 -2.32753,-16.29535 -9.01936,-16.29535 z m 142.62623,22.58194 h 5.73417 v 26.75946 h -5.73417 z m 0,40.13918 h 5.73417 v 26.75946 h -5.73417 z"
       id="rect3888"
       inkscape:connector-curvature="0"
       inkscape:export-filename="/tmp/LOGO.png"
       inkscape:export-xdpi="88"
       inkscape:export-ydpi="88" />
  </g>
</svg>
