<?xml version="1.0" encoding="UTF-8" standalone="no"?>
<svg
   id="Ebene_1"
   viewBox="0 0 128 128"
   version="1.1"
   sodipodi:docname="mstile.svg"
   inkscape:version="1.4.2 (ebf0e940d0, 2025-05-08)"
   xmlns:inkscape="http://www.inkscape.org/namespaces/inkscape"
   xmlns:sodipodi="http://sodipodi.sourceforge.net/DTD/sodipodi-0.dtd"
   xmlns="http://www.w3.org/2000/svg"
   xmlns:svg="http://www.w3.org/2000/svg">
  <sodipodi:namedview
     id="namedview2"
     pagecolor="#ffffff"
     bordercolor="#666666"
     borderopacity="1.0"
     inkscape:showpageshadow="2"
     inkscape:pageopacity="0.0"
     inkscape:pagecheckerboard="0"
     inkscape:deskcolor="#d1d1d1"
     inkscape:zoom="4.125"
     inkscape:cx="28.242424"
     inkscape:cy="53.090909"
     inkscape:window-width="2556"
     inkscape:window-height="1239"
     inkscape:window-x="0"
     inkscape:window-y="180"
     inkscape:window-maximized="1"
     inkscape:current-layer="Ebene_1" />
  <defs
     id="defs1">
    <style
       id="style1">.cls-1{fill:#f8f8f8;}</style>
  </defs>
  <g
     id="g2"
     transform="matrix(0.47350597,0,0,0.47350597,11.541278,11.202115)">
    <path
       class="cls-1"
       d="M 97.457879,82.258482 C 96.737879,82.358482 96.237879,82.558482 95.797879,82.758482 L 98.177879,99.668482 C 98.587879,99.748482 99.127879,99.798482 99.777879,99.708482 103.29788,99.208482 104.38788,96.068482 103.58788,90.318482 102.75788,84.448482 101.05788,81.758482 97.467879,82.258482 Z"
       id="path1" />
    <path
       class="cls-1"
       d="M 162.82788,60.358482 C 163.53788,60.188482 163.98788,59.598482 163.88788,58.878482 L 159.32788,26.438482 C 159.22788,25.718482 158.55788,25.218482 157.83788,25.318482 L 121.58788,30.408482 122.97788,40.298482 C 123.22788,42.048482 121.90788,43.788482 120.15788,44.038482 118.40788,44.288482 116.66788,42.968482 116.41788,41.218482 L 115.02788,31.328482 47.917879,40.768482 C 47.197879,40.868482 46.697879,41.538482 46.797879,42.258482 L 51.357879,74.698482 C 51.457879,75.418482 52.057879,75.868482 52.777879,75.828482 64.027879,74.908482 74.207879,82.928482 75.807879,94.288482 77.407879,105.64848 69.817879,116.09848 58.737879,118.24848 58.027879,118.41848 57.577879,119.00848 57.677879,119.72848 L 62.237879,152.16848 C 62.337879,152.88848 63.007879,153.38848 63.727879,153.28848 L 130.84788,143.85848 129.43788,133.83848 C 129.18788,132.02848 130.44788,130.35848 132.25788,130.09848 134.06788,129.83848 135.74788,131.16848 135.99788,132.91848 L 137.40788,142.93848 173.65788,137.84848 C 174.37788,137.74848 174.87788,137.07848 174.77788,136.35848 L 170.21788,103.91848 C 170.11788,103.19848 169.51788,102.74848 168.79788,102.78848 157.54788,103.70848 147.37788,95.748482 145.77788,84.388482 144.17788,73.028482 151.75788,62.518482 162.83788,60.358482 Z M 102.98788,105.10848 C 101.22788,105.35848 99.697879,105.36848 98.947879,105.27848 L 100.53788,116.56848 90.617879,117.95848 85.317879,80.228482 C 87.817879,78.608482 91.277879,77.198482 96.697879,76.428482 105.37788,75.208482 111.96788,79.008482 113.35788,88.868482 114.60788,97.748482 110.23788,104.07848 102.99788,105.09848 Z M 133.22788,113.24848 C 133.47788,114.99848 132.15788,116.73848 130.40788,116.98848 128.65788,117.23848 126.91788,115.91848 126.66788,114.16848 L 124.28788,97.248482 C 124.02788,95.378482 125.23788,93.768482 127.10788,93.508482 128.97788,93.248482 130.58788,94.518482 130.84788,96.328482 Z M 128.11788,76.878482 C 128.36788,78.688482 127.10788,80.358482 125.29788,80.618482 123.48788,80.878482 121.81788,79.608482 121.55788,77.798482 L 119.17788,60.878482 C 118.92788,59.068482 120.18788,57.398482 121.99788,57.138482 123.74788,56.888482 125.48788,58.208482 125.73788,59.958482 Z"
       id="path2" />
  </g>
</svg>
