<svg version="1" xmlns="http://www.w3.org/2000/svg" width="933.333" height="933.333" viewBox="0 0 700.000000 700.000000"><path d="M0 109v109l4.3.1c33 .5 65.2 14.8 90 40.1 31.8 32.5 43.6 76.6 33.3 124.3-1.2 5.4-5.7 17.8-9 24.8-12.2 25.6-36.1 49.6-61.6 61.9-15.9 7.6-35.2 12.4-51.7 12.7L0 482v218h436.5v-60.5l9.2-.1c6-.1 9.3.3 9.6 1 .2.6.3 14.3.3 30.3l-.1 29.3H700V482l-4.7-.1c-32.5-.4-64.9-14.7-88.9-39.2-25.5-26.1-38.6-58.6-37.9-94.4.6-27.9 7.6-50 23.4-73.8 6.4-9.8 23.8-27 34.1-33.7 15.6-10.3 33.3-17.9 47.5-20.4 10-1.7 15.9-2.4 20.8-2.4h5.7V0H455.5v58h-19V.5L218.3.2 0 0v109zm454-6.1c1.3.1 1.5 5.7 1.5 44.6 0 43.8 0 44.5-2 44.6-7.9.3-15.7 0-16.3-.6-.4-.3-.7-20.3-.7-44.3v-43.7l4.5-.5c2.5-.3 6.1-.4 8-.3 1.9.1 4.2.2 5 .2zm1.5 178.6c0 24.5-.2 44.5-.5 44.6-.3.1-4.6.2-9.5.2l-9 .2V237h19v44.5zM287 256.4c37.8 3.1 65.2 23.6 75 55.9 3.6 12 4.4 18.2 4.4 34.2.1 18.9-.5 24-3.9 35.9-8.2 28.5-26.2 47.7-52 55.6-7.1 2.2-9.8 2.5-24 2.5-8.8-.1-17.8-.4-20.1-.9l-4-.8V510.5l-31.7.3-31.7.2V269.3l6.8-2.6c9.8-3.8 18.7-6.4 27.2-7.7 4.1-.7 8.2-1.4 9.1-1.5.9-.2 6.3-.7 12-1 5.7-.4 10.5-.8 10.6-.9.4-.3 14.8.2 22.3.8zm168.5 159.1c0 24.5-.2 44.6-.5 44.6-1.9.4-18 .4-18.1-.1-.4-1.5-.5-86.7-.1-87.8.3-.8 3.1-1.2 9.6-1.2h9.1v44.5zm-.1 133.7c-.1 24.4-.2 44.6-.3 44.9-.1.7-18.1.7-18.2 0-.4-1.6-.5-86.8-.1-87.9.3-.8 3.1-1.2 9.6-1.2h9.1l-.1 44.2z"/><path d="M264.5 293.9c-2 .8-2 1.8-2.1 54.5v53.8l2.5 1c1.4.5 5.8.8 9.8.5 20.6-1.5 29.5-18.2 29.6-55.7.2-37.8-9.2-54.5-30.5-54.8-4-.1-8.2.3-9.3.7z"/></svg>