<?xml version="1.0" encoding="UTF-8" standalone="no"?>
<!-- Created with Inkscape (http://www.inkscape.org/) -->

<svg
   xmlns:dc="http://purl.org/dc/elements/1.1/"
   xmlns:cc="http://creativecommons.org/ns#"
   xmlns:rdf="http://www.w3.org/1999/02/22-rdf-syntax-ns#"
   xmlns:svg="http://www.w3.org/2000/svg"
   xmlns="http://www.w3.org/2000/svg"
   xmlns:sodipodi="http://sodipodi.sourceforge.net/DTD/sodipodi-0.dtd"
   xmlns:inkscape="http://www.inkscape.org/namespaces/inkscape"
   width="34.78614mm"
   height="21.384079mm"
   viewBox="0 0 123.25798 75.770359"
   id="svg2"
   version="1.1"
   inkscape:version="0.92.2 2405546, 2018-03-11"
   sodipodi:docname="powered_by_pretix_white.svg"
   inkscape:export-filename="/home/raphael/proj/pretix/src/pretix/static/pretixpresale/pdf/powered_by_pretix_dark.png"
   inkscape:export-xdpi="747.70001"
   inkscape:export-ydpi="747.70001">
  <defs
     id="defs4" />
  <sodipodi:namedview
     id="base"
     pagecolor="#ffffff"
     bordercolor="#666666"
     borderopacity="1.0"
     inkscape:pageopacity="0.0"
     inkscape:pageshadow="2"
     inkscape:zoom="1.979899"
     inkscape:cx="58.246933"
     inkscape:cy="10.846009"
     inkscape:document-units="px"
     inkscape:current-layer="layer1-3"
     showgrid="false"
     inkscape:window-width="1916"
     inkscape:window-height="987"
     inkscape:window-x="1920"
     inkscape:window-y="72"
     inkscape:window-maximized="0"
     fit-margin-top="0"
     fit-margin-left="0"
     fit-margin-right="0"
     fit-margin-bottom="0" />
  <metadata
     id="metadata7">
    <rdf:RDF>
      <cc:Work
         rdf:about="">
        <dc:format>image/svg+xml</dc:format>
        <dc:type
           rdf:resource="http://purl.org/dc/dcmitype/StillImage" />
        <dc:title></dc:title>
      </cc:Work>
    </rdf:RDF>
  </metadata>
  <g
     inkscape:label="Ebene 1"
     inkscape:groupmode="layer"
     id="layer1"
     transform="translate(-311.4961,-776.77551)">
    <g
       transform="translate(-235.06454,-531.49224)"
       id="layer1-3"
       inkscape:label="Ebene 1">
      <g
         transform="matrix(0.48496932,0,0,0.48496932,411.84526,1055.0622)"
         id="layer1-8"
         inkscape:label="Ebene 1"
         style="fill:#ffffff;fill-opacity:1">
        <path
           id="rect3888-7"
           transform="translate(257.78125,548.75)"
           d="m 20,20 v 34.09375 c 11.43679,0 20.71875,9.28196 20.71875,20.71875 C 40.71875,86.24928 31.43679,95.5 20,95.5 v 34.09375 h 146.6875 v -9.5 h 3 v 9.5 H 274.15625 V 95.5 c -0.0105,2e-5 -0.0208,0 -0.0312,0 -11.43678,0 -20.71875,-9.25072 -20.71875,-20.6875 0,-11.43679 9.28197,-20.71875 20.71875,-20.71875 0.0105,0 0.0208,-2e-5 0.0312,0 V 20 H 169.6875 v 9.09375 h -3 V 20 Z m 146.6875,16.09375 h 3 v 14 h -3 z m 41.44141,12.833984 c 2.79067,0 5.02343,1.92774 5.02343,4.3125 0,2.38476 -2.23276,4.363282 -5.02343,4.363282 -2.73994,0 -4.97266,-1.978522 -4.97266,-4.363282 0,-2.38476 2.23272,-4.3125 4.97266,-4.3125 z m -13.22852,4.210938 v 8.017578 h 3.95899 v 6.291016 h -3.95899 v 12.279296 c 0,2.02959 0.71015,2.791016 2.13086,2.791016 0.71035,0 1.06703,-0.10181 1.82813,-0.40625 v 5.935547 c -0.71036,0.40591 -2.38661,0.964844 -4.61915,0.964844 -6.13949,0 -8.98046,-3.753876 -8.98046,-8.472657 V 67.447266 h -2.8418 V 61.15625 h 2.8418 V 55.574219 Z M 166.6875,57.09375 h 3 v 14 h -3 z m -74.568359,3.554688 c 8.473509,0 14.207029,4.515688 14.207029,14.105468 0,8.62573 -5.02336,14.105469 -12.07617,14.105469 -1.72514,0 -3.147072,-0.20329 -3.857422,-0.40625 V 99.414062 H 80.751953 V 62.728516 c 2.58772,-1.21775 6.090268,-2.080081 11.367188,-2.080078 z m 49.863279,0 c 8.57499,0 12.63436,5.935363 12.12696,15.220703 l -15.93165,2.234375 c 0.60888,2.94289 2.18061,4.414062 5.68165,4.414062 3.24732,0 5.78445,-0.711556 7.30664,-1.472656 l 2.13086,5.886719 c -2.38476,1.16701 -5.58034,2.080078 -10.6543,2.080078 -8.93017,0 -13.64844,-6.037993 -13.64844,-14.257813 0,-8.21981 4.41329,-14.105468 12.98828,-14.105468 z m -17.92187,0.0059 c 0.8928,0.01358 1.82795,0.04496 2.80468,0.0957 l -1.67578,6.697266 c -1.77589,-0.86257 -3.50104,-0.913692 -4.76953,-0.457032 v 21.513672 h -9.64062 v -25.77539 c 2.79702,-1.376314 7.03166,-2.16926 13.28125,-2.074219 z m 79.24804,0.501953 h 9.64063 v 27.347656 h -9.64063 z m 13.23438,0 h 10.04687 l 3.29883,6.849609 h 0.10156 l 3.60157,-6.849609 h 8.98047 l -7.96485,12.632812 8.72656,14.714844 H 232.67969 L 229.17773,80.9434 h -0.10156 l -3.65234,7.560547 h -9.74219 l 8.57422,-14.105468 z m -74.9668,5.023438 c -2.84142,0 -4.41381,2.585948 -4.10937,7.355468 l 7.76367,-1.166015 c 0,-4.16064 -1.2188,-6.189454 -3.6543,-6.189453 z m -49.507811,0.09961 c -0.71035,0 -1.219131,0.101686 -1.675781,0.253906 v 16.439453 c 0.35517,0.15221 0.863828,0.253906 1.523438,0.253906 3.4503,0 4.871093,-2.840514 4.871093,-8.421874 0,-5.733571 -1.21772,-8.525391 -4.71875,-8.525391 z M 166.6875,78.09375 h 3 v 14 h -3 z m 0,21 h 3 v 14 h -3 z"
           style="color:#000000;display:inline;overflow:visible;visibility:visible;fill:#ffffff;fill-opacity:1;fill-rule:nonzero;stroke:none;marker:none;enable-background:accumulate"
           inkscape:connector-curvature="0" />
      </g>
      <text
         xml:space="preserve"
         style="font-style:normal;font-variant:normal;font-weight:normal;font-stretch:normal;font-size:12.71121502px;line-height:29.79190826px;font-family:'Open Sans';-inkscape-font-specification:'Open Sans';letter-spacing:0px;word-spacing:0px;fill:#ffffff;fill-opacity:1;stroke:none;stroke-width:1.19167638px;stroke-linecap:butt;stroke-linejoin:miter;stroke-opacity:1;"
         x="546.36835"
         y="1317.9253"
         id="text4872"><tspan
           sodipodi:role="line"
           id="tspan4870"
           x="546.36835"
           y="1317.9253"
           style="stroke-width:1.19167638px;fill:#ffffff;">ticketing powered by</tspan></text>
    </g>
  </g>
</svg>
