<?xml version="1.0" encoding="UTF-8" standalone="no"?>
<!-- Created with Inkscape (http://www.inkscape.org/) -->

<svg
   width="34.78614mm"
   height="21.384079mm"
   viewBox="0 0 123.25798 75.770359"
   id="svg2"
   version="1.1"
   inkscape:version="1.2.2 (b0a8486541, 2022-12-01)"
   sodipodi:docname="powered_by_pretix_white.svg"
   inkscape:export-filename="/home/raphael/proj/pretix/src/pretix/static/pretixpresale/pdf/powered_by_pretix_dark.png"
   inkscape:export-xdpi="747.70001"
   inkscape:export-ydpi="747.70001"
   xml:space="preserve"
   xmlns:inkscape="http://www.inkscape.org/namespaces/inkscape"
   xmlns:sodipodi="http://sodipodi.sourceforge.net/DTD/sodipodi-0.dtd"
   xmlns="http://www.w3.org/2000/svg"
   xmlns:svg="http://www.w3.org/2000/svg"
   xmlns:rdf="http://www.w3.org/1999/02/22-rdf-syntax-ns#"
   xmlns:cc="http://creativecommons.org/ns#"
   xmlns:dc="http://purl.org/dc/elements/1.1/"><defs
     id="defs4"><style
       id="style2745">.cls-1{fill:#f8f8f8;}</style><style
       id="style2806">.cls-1{fill:#f8f8f8;}</style></defs><sodipodi:namedview
     id="base"
     pagecolor="#ffffff"
     bordercolor="#666666"
     borderopacity="1.0"
     inkscape:pageopacity="0.0"
     inkscape:pageshadow="2"
     inkscape:zoom="3.959798"
     inkscape:cx="32.703688"
     inkscape:cy="35.734146"
     inkscape:document-units="px"
     inkscape:current-layer="layer1-3"
     showgrid="false"
     inkscape:window-width="2556"
     inkscape:window-height="1041"
     inkscape:window-x="0"
     inkscape:window-y="378"
     inkscape:window-maximized="0"
     fit-margin-top="0"
     fit-margin-left="0"
     fit-margin-right="0"
     fit-margin-bottom="0"
     inkscape:showpageshadow="2"
     inkscape:pagecheckerboard="0"
     inkscape:deskcolor="#d1d1d1" /><metadata
     id="metadata7"><rdf:RDF><cc:Work
         rdf:about=""><dc:format>image/svg+xml</dc:format><dc:type
           rdf:resource="http://purl.org/dc/dcmitype/StillImage" /><dc:title /></cc:Work></rdf:RDF></metadata><g
     inkscape:label="Ebene 1"
     inkscape:groupmode="layer"
     id="layer1"
     transform="translate(-311.4961,-776.77551)"><g
       transform="translate(-235.06454,-531.49224)"
       id="layer1-3"
       inkscape:label="Ebene 1"><text
         xml:space="preserve"
         style="font-style:normal;font-variant:normal;font-weight:normal;font-stretch:normal;font-size:12.7112px;line-height:29.7919px;font-family:'Open Sans';-inkscape-font-specification:'Open Sans';letter-spacing:0px;word-spacing:0px;fill:#ffffff;fill-opacity:1;stroke:none;stroke-width:1.19168px;stroke-linecap:butt;stroke-linejoin:miter;stroke-opacity:1"
         x="546.36835"
         y="1317.9253"
         id="text4872"><tspan
           sodipodi:role="line"
           id="tspan4870"
           x="546.36835"
           y="1317.9253"
           style="fill:#ffffff;stroke-width:1.19168px">ticketing powered by</tspan></text><g
         id="g2823"
         transform="matrix(0.96295168,0,0,0.96295168,546.56064,1330.8887)"
         style="fill:#ffffff"><path
           class="cls-1"
           d="m 36.29,23.21 c -0.35,0 -0.61,0.06 -0.83,0.13 v 8.29 c 0.19,0.06 0.45,0.13 0.77,0.13 1.73,0 2.46,-1.44 2.46,-4.26 0,-2.82 -0.64,-4.29 -2.4,-4.29 z"
           id="path2810"
           style="fill:#ffffff" /><path
           class="cls-1"
           d="m 61.22,23.15 c -1.44,0 -2.21,1.31 -2.08,3.71 l 3.9,-0.58 c 0.03,-2.11 -0.58,-3.14 -1.82,-3.14 z"
           id="path2812"
           style="fill:#ffffff" /><path
           class="cls-1"
           d="M 127.39,17.1 C 127.74,17.07 128,16.81 128,16.46 V 0.64 C 128,0.29 127.71,0 127.36,0 H 75.94 V 2.48 C 75.94,3.1 75.44,3.6 74.82,3.6 74.2,3.6 73.7,3.1 73.7,2.48 V 0 H 0.64 C 0.29,0 0,0.29 0,0.64 v 15.82 c 0,0.35 0.26,0.61 0.61,0.64 5.47,0.32 9.82,4.86 9.82,10.43 0,5.57 -4.35,10.08 -9.82,10.37 C 0.26,37.93 0,38.19 0,38.54 V 54.36 C 0,54.71 0.29,55 0.64,55 H 73.86 73.7 v -2.48 c 0,-0.63 0.49,-1.12 1.12,-1.12 0.63,0 1.12,0.5 1.12,1.12 V 55 h -0.16 51.58 c 0.35,0 0.64,-0.29 0.64,-0.64 V 38.54 c 0,-0.35 -0.26,-0.61 -0.61,-0.64 -5.47,-0.32 -9.82,-4.83 -9.82,-10.4 0,-5.57 4.35,-10.11 9.82,-10.4 z M 37.41,34.57 c -0.86,0 -1.6,-0.1 -1.95,-0.19 v 5.54 H 30.6 v -18.5 c 1.31,-0.61 3.07,-1.06 5.73,-1.06 4.26,0 7.17,2.27 7.17,7.1 0,4.35 -2.53,7.1 -6.08,7.1 z M 52.99,23.79 c -0.9,-0.45 -1.76,-0.45 -2.4,-0.22 V 34.42 H 45.73 V 21.43 c 1.41,-0.7 3.55,-1.09 6.69,-1.06 0.45,0 0.93,0.03 1.41,0.06 L 53,23.79 Z m 14.56,4.26 -8.03,1.12 c 0.32,1.47 1.09,2.21 2.85,2.21 1.63,0 2.91,-0.35 3.68,-0.74 l 1.09,2.98 c -1.22,0.58 -2.82,1.06 -5.38,1.06 -4.51,0 -6.88,-3.04 -6.88,-7.17 0,-4.13 2.21,-7.1 6.53,-7.1 4.35,-0.03 6.4,2.98 6.14,7.65 z m 8.38,18.56 c 0,0.62 -0.5,1.12 -1.12,1.12 -0.62,0 -1.12,-0.5 -1.12,-1.12 v -5.12 c 0,-0.62 0.5,-1.12 1.12,-1.12 0.62,0 1.12,0.52 1.12,1.12 z m 0,-11.07 c 0,0.6 -0.52,1.12 -1.12,1.12 -0.6,0 -1.12,-0.52 -1.12,-1.12 v -5.12 c 0,-0.63 0.49,-1.12 1.12,-1.12 0.63,0 1.12,0.5 1.12,1.12 z m 0,-11.01 c 0,0.62 -0.5,1.12 -1.12,1.12 -0.62,0 -1.12,-0.5 -1.12,-1.12 v -5.12 c 0,-0.62 0.5,-1.12 1.12,-1.12 0.62,0 1.12,0.52 1.12,1.12 z m 0,-11.07 c 0,0.6 -0.52,1.12 -1.12,1.12 -0.6,0 -1.12,-0.52 -1.12,-1.12 V 8.34 c 0,-0.63 0.49,-1.12 1.12,-1.12 0.63,0 1.12,0.5 1.12,1.12 z M 90.11,23.8 h -2.02 v 6.18 c 0,1.02 0.35,1.41 1.09,1.41 0.35,0 0.54,-0.06 0.93,-0.19 v 2.98 c -0.35,0.19 -1.22,0.48 -2.34,0.48 -3.1,0 -4.51,-1.89 -4.51,-4.26 v -6.59 h -1.44 v -3.17 h 1.44 v -2.82 l 4.86,-1.22 v 4.03 h 1.98 v 3.17 z m 7.07,10.62 H 92.32 V 20.66 h 4.86 z M 94.75,18.84 c -1.38,0 -2.5,-0.99 -2.5,-2.21 0,-1.22 1.12,-2.18 2.5,-2.18 1.38,0 2.53,0.96 2.53,2.18 0,1.22 -1.12,2.21 -2.53,2.21 z m 12.35,15.58 -1.76,-3.81 h -0.06 l -1.82,3.81 h -4.9 l 4.32,-7.1 -3.87,-6.66 h 5.06 l 1.66,3.46 h 0.06 l 1.82,-3.46 h 4.51 l -4,6.37 4.38,7.42 -5.41,-0.03 z"
           id="path2814"
           style="fill:#ffffff" /></g></g></g></svg>
