<?xml version="1.0" encoding="UTF-8" standalone="yes"?>

<svg width="995" height="203" viewBox="0 0 995 203" fill="none" xmlns="http://www.w3.org/2000/svg">
  <path
    d="M114.333 165.778C118.481 167.259 123.222 168 128.556 168C133.593 168 138.17 167.074 142.289 165.222C146.393 163.37 149.704 160.778 152.222 157.444C154.741 154.111 156 150.222 156 145.778C156 141.926 155.407 138.704 154.222 136.111C153.037 133.519 151.333 131.348 149.111 129.6C146.889 127.867 144.17 126.444 140.956 125.333C137.726 124.222 134.074 123.222 130 122.333C126.667 121.519 123.704 120.607 121.111 119.6C118.519 118.607 116.496 117.296 115.044 115.667C113.607 114.037 112.889 111.963 112.889 109.444C112.889 107.296 113.519 105.422 114.778 103.822C116.037 102.237 117.852 100.978 120.222 100.044C122.593 99.1259 125.444 98.6667 128.778 98.6667C130.852 98.6667 133.015 99 135.267 99.6667C137.533 100.333 139.667 101.163 141.667 102.156C143.667 103.163 145.259 104.296 146.444 105.556C147.185 106.148 148.074 106.444 149.111 106.444C150.519 106.444 151.763 105.867 152.844 104.711C153.911 103.57 154.444 102.333 154.444 101C154.444 99.2222 153.556 97.5556 151.778 96C149.259 93.5556 145.963 91.6148 141.889 90.1778C137.815 88.7259 133.444 88 128.778 88C123.667 88 119.074 88.8889 115 90.6667C110.926 92.4444 107.704 94.963 105.333 98.2222C102.963 101.481 101.778 105.37 101.778 109.889C101.778 113.222 102.333 116.148 103.444 118.667C104.556 121.185 106.148 123.348 108.222 125.156C110.296 126.978 112.8 128.481 115.733 129.667C118.652 130.852 121.963 131.778 125.667 132.444C129.667 133.259 133.096 134.237 135.956 135.378C138.8 136.533 140.985 137.978 142.511 139.711C144.022 141.459 144.778 143.667 144.778 146.333C144.778 148.481 144.037 150.37 142.556 152C141.074 153.63 139.096 154.926 136.622 155.889C134.133 156.852 131.407 157.333 128.444 157.333C124.296 157.333 120.689 156.667 117.622 155.333C114.541 154 111.593 152.037 108.778 149.444C107.741 148.63 106.63 148.222 105.444 148.222C103.889 148.222 102.593 148.778 101.556 149.889C100.519 151 100 152.259 100 153.667C100 154.556 100.207 155.422 100.622 156.267C101.022 157.126 101.63 157.852 102.444 158.444C106.222 161.852 110.185 164.296 114.333 165.778Z"
    fill="#F5654B" />
  <path fill-rule="evenodd" clip-rule="evenodd"
    d="M237.778 143.711C239.63 138.867 240.556 133.63 240.556 128C240.556 122.37 239.63 117.126 237.778 112.267C235.926 107.422 233.311 103.185 229.933 99.5556C226.57 95.9259 222.593 93.0889 218 91.0444C213.407 89.0148 208.37 88 202.889 88C197.481 88 192.481 89.0148 187.889 91.0444C183.296 93.0889 179.311 95.9259 175.933 99.5556C172.57 103.185 169.978 107.422 168.156 112.267C166.348 117.126 165.444 122.37 165.444 128C165.444 133.63 166.348 138.867 168.156 143.711C169.978 148.57 172.57 152.815 175.933 156.444C179.311 160.074 183.296 162.904 187.889 164.933C192.481 166.978 197.481 168 202.889 168C208.37 168 213.407 166.978 218 164.933C222.593 162.904 226.57 160.074 229.933 156.444C233.311 152.815 235.926 148.57 237.778 143.711ZM225.267 113.222C227.459 117.593 228.556 122.519 228.556 128C228.556 133.481 227.459 138.407 225.267 142.778C223.089 147.148 220.074 150.593 216.222 153.111C212.37 155.63 207.926 156.889 202.889 156.889C197.926 156.889 193.519 155.63 189.667 153.111C185.815 150.593 182.815 147.148 180.667 142.778C178.519 138.407 177.444 133.481 177.444 128C177.444 122.444 178.519 117.496 180.667 113.156C182.815 108.83 185.815 105.407 189.667 102.889C193.519 100.37 197.926 99.1111 202.889 99.1111C207.926 99.1111 212.37 100.37 216.222 102.889C220.074 105.407 223.089 108.852 225.267 113.222Z"
    fill="#F5654B" />
  <path
    d="M312.267 97.3333C312.015 95.6296 311.074 94.3704 309.444 93.5556C306.556 91.9259 303.422 90.6667 300.044 89.7778C296.682 88.8889 293.222 88.4444 289.667 88.4444C283.963 88.4444 278.704 89.4222 273.889 91.3778C269.074 93.3481 264.867 96.0889 261.267 99.6C257.667 103.126 254.889 107.311 252.933 112.156C250.978 117.015 250 122.296 250 128C250 134.37 251.052 140.037 253.156 145C255.274 149.963 258.185 154.148 261.889 157.556C265.593 160.963 269.815 163.556 274.556 165.333C279.296 167.111 284.333 168 289.667 168C292.037 168 294.37 167.778 296.667 167.333C298.963 166.889 301.222 166.296 303.444 165.556C305.667 164.815 307.704 163.926 309.556 162.889C311.111 162.074 312.052 160.867 312.378 159.267C312.719 157.681 312.259 156.111 311 154.556C310.17 153.444 309.111 152.793 307.822 152.6C306.519 152.422 305.207 152.667 303.889 153.333C301.741 154.519 299.459 155.407 297.044 156C294.644 156.593 292.185 156.889 289.667 156.889C285.741 156.889 282.089 156.274 278.711 155.044C275.333 153.83 272.407 151.978 269.933 149.489C267.459 147.015 265.519 143.978 264.111 140.378C262.689 136.793 261.978 132.667 261.978 128C261.978 123.778 262.63 119.926 263.933 116.444C265.222 112.963 267.096 109.941 269.556 107.378C272 104.83 274.904 102.867 278.267 101.489C281.644 100.126 285.444 99.4444 289.667 99.4444C292.319 99.4444 294.837 99.7778 297.222 100.444C299.593 101.111 301.852 102 304 103.111C305.244 103.778 306.519 104.037 307.822 103.889C309.111 103.741 310.17 103.111 311 102C312.111 100.593 312.533 99.037 312.267 97.3333Z"
    fill="#F5654B" />
  <path
    d="M334.711 165.267C335.852 164.2 336.459 162.852 336.533 161.222V94.7778C336.533 93.1481 335.963 91.8 334.822 90.7333C333.667 89.6519 332.348 89.1111 330.867 89.1111C329.089 89.1111 327.644 89.6519 326.533 90.7333C325.422 91.8 324.867 93.1481 324.867 94.7778V161.222C324.867 162.852 325.407 164.2 326.489 165.267C327.556 166.348 328.941 166.889 330.644 166.889C332.2 166.889 333.556 166.348 334.711 165.267Z"
    fill="#F5654B" />
  <path fill-rule="evenodd" clip-rule="evenodd"
    d="M397.975 147.778L404.644 163.556C405.089 164.667 405.778 165.57 406.711 166.267C407.63 166.978 408.644 167.333 409.756 167.333C411.089 167.333 412.296 166.83 413.378 165.822C414.445 164.83 414.978 163.519 414.978 161.889C414.978 161.148 414.83 160.407 414.533 159.667L386.644 92.4444C386.2 91.2593 385.496 90.3333 384.533 89.6667C383.57 89 382.533 88.6667 381.422 88.6667C380.237 88.5926 379.141 88.8889 378.133 89.5556C377.141 90.2222 376.385 91.1852 375.867 92.4444L347.644 160.667C347.422 161.333 347.311 161.926 347.311 162.444C347.385 163.852 347.83 165.015 348.644 165.933C349.459 166.867 350.682 167.333 352.311 167.333C353.422 167.333 354.422 167 355.311 166.333C356.2 165.667 356.867 164.741 357.311 163.556L363.885 147.778H397.975ZM380.807 107.165L368.33 137.111H393.466L380.807 107.165Z"
    fill="#F5654B" />
  <path
    d="M437.533 156H468.867C470.422 156 471.733 156.519 472.8 157.556C473.882 158.593 474.422 159.889 474.422 161.444C474.422 163 473.882 164.296 472.8 165.333C471.733 166.37 470.422 166.889 468.867 166.889H431.533C429.904 166.889 428.548 166.348 427.467 165.267C426.4 164.2 425.867 162.852 425.867 161.222V94.7778C425.867 93.1481 426.422 91.8 427.533 90.7333C428.644 89.6519 430.089 89.1111 431.867 89.1111C433.348 89.1111 434.659 89.6519 435.8 90.7333C436.956 91.8 437.533 93.1481 437.533 94.7778V156Z"
    fill="#F5654B" />
  <path fill-rule="evenodd" clip-rule="evenodd"
    d="M550.844 89.1111H523.733C522.178 89.1111 520.845 89.6519 519.733 90.7333C518.622 91.8 518.067 93.1481 518.067 94.7778V161.222C518.067 162.852 518.622 164.2 519.733 165.267C520.845 166.348 522.178 166.889 523.733 166.889H550.844C558.104 166.889 564.178 165.148 569.067 161.667C573.956 158.185 577.659 153.496 580.178 147.6C582.696 141.719 583.956 135.185 583.956 128C583.956 122.741 583.252 117.756 581.845 113.044C580.437 108.348 578.348 104.2 575.578 100.6C572.793 97.0148 569.326 94.2 565.178 92.1556C561.03 90.1259 556.252 89.1111 550.844 89.1111ZM529.733 156.222H549.733C554.993 156.222 559.252 154.926 562.511 152.333C565.77 149.741 568.163 146.311 569.689 142.044C571.2 137.793 571.956 133.111 571.956 128C571.956 124.222 571.533 120.644 570.689 117.267C569.83 113.904 568.496 110.904 566.689 108.267C564.867 105.644 562.57 103.57 559.8 102.044C557.015 100.533 553.659 99.7778 549.733 99.7778H529.733V156.222Z"
    fill="#F5654B" />
  <path fill-rule="evenodd" clip-rule="evenodd"
    d="M640.508 147.778L647.178 163.556C647.622 164.667 648.311 165.57 649.245 166.267C650.163 166.978 651.178 167.333 652.289 167.333C653.622 167.333 654.83 166.83 655.911 165.822C656.978 164.83 657.511 163.519 657.511 161.889C657.511 161.148 657.363 160.407 657.067 159.667L629.178 92.4444C628.733 91.2593 628.03 90.3333 627.067 89.6667C626.104 89 625.067 88.6667 623.956 88.6667C622.77 88.5926 621.682 88.8889 620.689 89.5556C619.682 90.2222 618.919 91.1852 618.4 92.4444L590.178 160.667C589.956 161.333 589.845 161.926 589.845 162.444C589.919 163.852 590.363 165.015 591.178 165.933C591.993 166.867 593.215 167.333 594.845 167.333C595.956 167.333 596.956 167 597.845 166.333C598.733 165.667 599.4 164.741 599.845 163.556L606.419 147.778H640.508ZM623.341 107.165L610.863 137.111H635.999L623.341 107.165Z"
    fill="#F5654B" />
  <path
    d="M730.333 90.6C729.415 89.6074 728.215 89.1111 726.733 89.1111C725.252 89.1111 724.03 89.6074 723.067 90.6C722.104 91.6074 721.622 92.8518 721.622 94.3333V146.942L678.733 91.1111C678.289 90.4444 677.6 89.9481 676.667 89.6222C675.748 89.2815 674.882 89.1111 674.067 89.1111C672.511 89.1111 671.178 89.6296 670.067 90.6667C668.956 91.7037 668.4 93.0741 668.4 94.7778V161.778C668.4 163.185 668.859 164.385 669.778 165.378C670.711 166.385 671.956 166.889 673.511 166.889C674.993 166.889 676.215 166.385 677.178 165.378C678.141 164.385 678.622 163.185 678.622 161.778V109.314L721.733 165.222C722.178 165.741 722.822 166.148 723.667 166.444C724.526 166.741 725.326 166.889 726.067 166.889C727.696 166.889 729.044 166.348 730.111 165.267C731.193 164.2 731.733 162.852 731.733 161.222V94.3333C731.733 92.8518 731.267 91.6074 730.333 90.6Z"
    fill="#F5654B" />
  <path
    d="M807.889 97.3333C807.622 95.6296 806.674 94.3704 805.045 93.5556C802.156 91.9259 799.03 90.6667 795.667 89.7778C792.289 88.8889 788.822 88.4444 785.267 88.4444C779.563 88.4444 774.304 89.4222 769.489 91.3778C764.674 93.3481 760.474 96.0889 756.889 99.6C753.304 103.126 750.526 107.311 748.556 112.156C746.585 117.015 745.6 122.296 745.6 128C745.6 134.37 746.659 140.037 748.778 145C750.882 149.963 753.785 154.148 757.489 157.556C761.193 160.963 765.415 163.556 770.156 165.333C774.896 167.111 779.933 168 785.267 168C787.652 168 789.985 167.778 792.267 167.333C794.563 166.889 796.822 166.296 799.044 165.556C801.267 164.815 803.304 163.926 805.156 162.889C806.711 162.074 807.659 160.867 808 159.267C808.326 157.681 807.867 156.111 806.622 154.556C805.807 153.444 804.748 152.793 803.445 152.6C802.156 152.422 800.837 152.667 799.489 153.333C797.341 154.519 795.067 155.407 792.667 156C790.252 156.593 787.785 156.889 785.267 156.889C781.356 156.889 777.711 156.274 774.333 155.044C770.97 153.83 768.045 151.978 765.556 149.489C763.067 147.015 761.119 143.978 759.711 140.378C758.319 136.793 757.622 132.667 757.622 128C757.622 123.778 758.267 119.926 759.556 116.444C760.859 112.963 762.726 109.941 765.156 107.378C767.615 104.83 770.526 102.867 773.889 101.489C777.252 100.126 781.045 99.4444 785.267 99.4444C787.948 99.4444 790.467 99.7778 792.822 100.444C795.193 101.111 797.452 102 799.6 103.111C800.874 103.778 802.156 104.037 803.445 103.889C804.748 103.741 805.807 103.111 806.622 102C807.733 100.593 808.156 99.037 807.889 97.3333Z"
    fill="#F5654B" />
  <path
    d="M830.333 165.267C831.474 164.2 832.082 162.852 832.156 161.222V94.7778C832.156 93.1481 831.585 91.8 830.444 90.7333C829.289 89.6519 827.97 89.1111 826.489 89.1111C824.711 89.1111 823.267 89.6519 822.156 90.7333C821.045 91.8 820.489 93.1481 820.489 94.7778V161.222C820.489 162.852 821.03 164.2 822.111 165.267C823.178 166.348 824.563 166.889 826.267 166.889C827.822 166.889 829.178 166.348 830.333 165.267Z"
    fill="#F5654B" />
  <path
    d="M912.111 90.6C911.178 89.6074 909.97 89.1111 908.489 89.1111C907.007 89.1111 905.785 89.6074 904.822 90.6C903.859 91.6074 903.378 92.8518 903.378 94.3333V146.942L860.489 91.1111C860.045 90.4444 859.363 89.9481 858.445 89.6222C857.511 89.2815 856.637 89.1111 855.822 89.1111C854.267 89.1111 852.933 89.6296 851.822 90.6667C850.711 91.7037 850.156 93.0741 850.156 94.7778V161.778C850.156 163.185 850.622 164.385 851.556 165.378C852.474 166.385 853.711 166.889 855.267 166.889C856.748 166.889 857.97 166.385 858.933 165.378C859.896 164.385 860.378 163.185 860.378 161.778V109.314L903.489 165.222C903.933 165.741 904.585 166.148 905.445 166.444C906.289 166.741 907.082 166.889 907.822 166.889C909.452 166.889 910.807 166.348 911.889 165.267C912.956 164.2 913.489 162.852 913.489 161.222V94.3333C913.489 92.8518 913.03 91.6074 912.111 90.6Z"
    fill="#F5654B" />
  <path
    d="M951.933 164.933C956.822 166.978 962.082 168 967.711 168C972.156 168 976.393 167.37 980.422 166.111C984.467 164.852 988.156 163.185 991.489 161.111C992.23 160.593 992.896 159.926 993.489 159.111C994.082 158.296 994.378 157.296 994.378 156.111V131.444C994.378 129.815 993.837 128.459 992.756 127.378C991.689 126.311 990.378 125.778 988.822 125.778H969.6C967.97 125.778 966.615 126.296 965.533 127.333C964.467 128.37 963.933 129.704 963.933 131.333C963.933 132.963 964.467 134.296 965.533 135.333C966.615 136.37 967.97 136.889 969.6 136.889H982.378V153.878C980.556 154.715 978.408 155.4 975.933 155.933C973.045 156.57 970.304 156.889 967.711 156.889C962.378 156.889 957.563 155.607 953.267 153.044C948.971 150.496 945.578 147.015 943.089 142.6C940.615 138.2 939.378 133.333 939.378 128C939.378 122.593 940.615 117.704 943.089 113.333C945.578 108.963 948.971 105.496 953.267 102.933C957.563 100.385 962.378 99.1111 967.711 99.1111C970.378 99.1111 972.896 99.3852 975.267 99.9333C977.637 100.496 979.859 101.296 981.933 102.333C982.378 102.556 982.874 102.741 983.422 102.889C983.985 103.037 984.526 103.111 985.045 103.111C986.526 103.111 987.763 102.533 988.756 101.378C989.763 100.237 990.267 98.8889 990.267 97.3333C990.267 96.5185 990.044 95.6815 989.6 94.8222C989.156 93.9778 988.452 93.2963 987.489 92.7778C984.748 91.2222 981.674 90.037 978.267 89.2222C974.859 88.4074 971.341 88 967.711 88C962.082 88 956.822 89.0148 951.933 91.0444C947.045 93.0889 942.763 95.9407 939.089 99.6C935.43 103.274 932.563 107.519 930.489 112.333C928.415 117.148 927.378 122.37 927.378 128C927.378 133.63 928.415 138.852 930.489 143.667C932.563 148.481 935.43 152.719 939.089 156.378C942.763 160.052 947.045 162.904 951.933 164.933Z"
    fill="#F5654B" />
  <path fill-rule="evenodd" clip-rule="evenodd"
    d="M63.2004 72.3879L64.3497 75.8226C64.3938 75.9547 64.4038 76.0958 64.3788 76.2327C64.3537 76.3697 64.2943 76.4981 64.2062 76.6059L60.8754 80.6721C60.7464 80.8287 60.5645 80.9325 60.3642 80.964L57.8166 81.363L58.2206 83.6188L59.9701 84.4696L57.4126 87.0766L55.7093 87.4526L53.1518 92.7852C53.0611 92.9764 52.8997 93.1248 52.7016 93.1991L47.0276 95.3609L50.37 102.346C50.4405 102.492 50.4661 102.656 50.4435 102.818C50.4209 102.979 50.3511 103.129 50.243 103.251L32.5417 123.154L34.5864 129.711C34.6508 129.921 34.6293 130.148 34.5266 130.342C34.424 130.536 34.2486 130.681 34.039 130.745L32.888 131.095L59.7145 150.866C59.8103 150.937 59.8895 151.029 59.9466 151.134C60.0037 151.239 60.0375 151.355 60.0454 151.475C60.0534 151.594 60.0355 151.714 59.9929 151.825C59.9503 151.937 59.884 152.038 59.7986 152.122L33.6069 177.514C33.4839 177.634 33.3264 177.712 33.1565 177.737C32.9867 177.763 32.8132 177.734 32.6605 177.656L25.3046 173.911C25.198 173.857 25.1046 173.779 25.0308 173.685C24.957 173.591 24.9045 173.482 24.8771 173.365C24.8496 173.249 24.8478 173.128 24.8718 173.01C24.8958 172.893 24.945 172.782 25.016 172.686L39.1259 153.656L25.6525 147.446L25.1924 162.007C25.1896 162.119 25.1638 162.228 25.1166 162.329L12.9491 188.422C12.8843 188.561 12.7819 188.679 12.6534 188.764C12.5249 188.848 12.3755 188.895 12.2219 188.898L2.88071 189.123H2.86092C2.72971 189.123 2.6004 189.091 2.48374 189.031C2.36707 188.971 2.26642 188.884 2.19014 188.777C2.11386 188.671 2.06416 188.547 2.04518 188.417C2.02619 188.288 2.03846 188.155 2.08098 188.031L10.9275 162.162L7.33778 137.56L2.71087 130.402C2.64492 130.301 2.60215 130.186 2.58562 130.066C2.56909 129.946 2.5792 129.824 2.61523 129.708L4.5857 123.394L2.72571 120.723C2.62755 120.581 2.57606 120.413 2.57843 120.24C2.58079 120.068 2.63689 119.901 2.7389 119.762L10.2399 109.593L4.2757 102.982C4.15709 102.851 4.08376 102.686 4.06653 102.51C4.04931 102.334 4.08912 102.157 4.18007 102.006L5.4448 99.8938L6.28081 96.3007C6.32022 96.13 6.41325 95.9763 6.54629 95.8621L6.81012 95.6362C6.80532 95.62 6.79922 95.6045 6.79316 95.5891C6.78254 95.5621 6.77204 95.5353 6.76889 95.506L6.26432 91.321C6.25773 91.2563 6.25773 91.1911 6.26432 91.1264L7.13496 83.6847C7.14566 83.5784 7.17726 83.4753 7.22794 83.3812C7.27861 83.2872 7.34737 83.2041 7.43025 83.1366C7.51314 83.0692 7.60854 83.0189 7.71095 82.9884C7.81336 82.958 7.92077 82.948 8.02703 82.9592L15.8215 83.6501C15.9732 83.6635 16.1182 83.7187 16.2405 83.8095C16.3627 83.9003 16.4574 84.0232 16.5141 84.1646L18.0558 88.0132L22.0661 80.1296L19.0683 73.3641L16.8719 79.8741C16.8074 80.0611 16.6783 80.2189 16.5079 80.3193C16.3374 80.4196 16.1367 80.4559 15.9419 80.4215L8.65198 79.071C8.54261 79.0503 8.43854 79.0078 8.346 78.9459C8.25346 78.8841 8.17435 78.8042 8.11339 78.7111C8.05244 78.6179 8.01089 78.5135 7.99123 78.4039C7.97158 78.2943 7.97422 78.1819 7.999 78.0734L13.264 55.3923C13.2902 55.276 13.3415 55.1668 13.4145 55.0725C13.4874 54.9782 13.5802 54.9011 13.6862 54.8465L17.0615 53.0921C17.2237 53.0085 17.4089 52.9807 17.5884 53.0132C17.7679 53.0457 17.9317 53.1366 18.0542 53.2718L36.9939 74.2875L39.5266 69.7414C39.6109 69.5909 39.74 69.4704 39.896 69.3967L52.0585 63.6782C52.2556 63.5855 52.4814 63.5746 52.6866 63.6478C52.8917 63.721 53.0595 63.8725 53.1534 64.069L55.6647 69.3242L56.8173 69.2384C56.9583 69.2271 57.0998 69.2527 57.2279 69.3126L62.7667 71.9031C62.868 71.9504 62.9586 72.0178 63.0331 72.1011C63.1077 72.1844 63.1646 72.282 63.2004 72.3879ZM52.0173 65.5184L40.8375 70.7752L39.215 73.6906L46.0877 70.1041C46.1872 70.0528 46.296 70.022 46.4076 70.0134L48.698 69.8419C48.7087 69.8419 48.719 69.8407 48.7293 69.8395C48.7396 69.8382 48.7499 69.837 48.7606 69.837L53.9004 69.4544L52.0173 65.5184ZM35.0465 74.6106C35.0543 74.6134 35.0621 74.6163 35.0712 74.6173C35.0712 74.6173 35.0201 74.5826 35.0316 74.6057C35.0367 74.607 35.0416 74.6088 35.0465 74.6106ZM15.1702 85.2479L8.67836 84.6725L7.9116 91.2204L8.28921 94.3616L10.2729 92.6599C10.4224 92.5312 10.6131 92.4604 10.8104 92.4604H12.0356L13.0019 90.6977C13.066 90.5821 13.157 90.4835 13.2671 90.4102C13.3772 90.337 13.5032 90.2912 13.6346 90.2767C13.7661 90.2621 13.8991 90.2793 14.0225 90.3267C14.1459 90.3742 14.2562 90.4505 14.3441 90.5493L16.9181 93.4728L17.1407 93.0556V90.1684L15.1702 85.2479ZM6.92554 100.628L5.90815 102.328L11.2556 108.257L16.2602 102.392V95.2207L13.8824 92.5197L13.1503 93.8554L14.7283 95.9957C14.7962 96.0825 14.8459 96.182 14.8747 96.2883C14.9035 96.3947 14.9106 96.5057 14.8957 96.6149C14.8809 96.724 14.8443 96.8291 14.7881 96.9239C14.7319 97.0187 14.6573 97.1012 14.5687 97.1667C14.4801 97.2321 14.3793 97.2792 14.2722 97.305C14.1651 97.3309 14.0539 97.335 13.9452 97.3171C13.8365 97.2993 13.7325 97.2598 13.6393 97.2011C13.5461 97.1423 13.4656 97.0655 13.4026 96.9752L11.5129 94.4094C11.4567 94.3335 11.4352 94.2445 11.4137 94.1555C11.41 94.1401 11.4063 94.1247 11.4024 94.1093H11.1171L7.82421 96.9356L7.02118 100.39C7.00212 100.474 6.96984 100.554 6.92554 100.628ZM11.9235 110.083L14.7514 112.563L19.6537 106.748L17.1061 103.945L11.9235 110.083ZM21.5087 105.479L21.5269 105.523L34.7018 89.6242L35.4059 86.9529C35.4606 86.7483 35.5916 86.5725 35.772 86.4616L37.2099 85.5777L35.9699 81.7159L21.5087 105.479ZM34.3259 102.369L33.7834 105.215L36.9081 104.813L34.3259 102.369ZM35.96 90.7323L25.4826 106.524L41.0041 91.9459L38.3377 90.1519L35.96 90.7323ZM51.1351 85.7822L54.1724 86.8458L54.184 86.826L53.6266 82.4447L50.924 81.9055L47.9593 83.3813L43.9062 81.3647L43.3307 78.2581L42.8129 78.0701L40.61 81.0085L41.3833 84.2784L41.385 84.28L42.343 88.3298V88.3314L43.0652 91.3869L46.0613 93.9642L51.8079 91.7761L51.9398 91.5007L46.9452 89.273C46.842 89.232 46.7481 89.1705 46.6693 89.0923C46.5904 89.0141 46.5282 88.9208 46.4863 88.818C46.4444 88.7152 46.4237 88.6049 46.4254 88.4939C46.4272 88.3829 46.4514 88.2733 46.4965 88.1719C46.5416 88.0704 46.6067 87.9791 46.688 87.9034C46.7693 87.8278 46.865 87.7693 46.9694 87.7315C47.0739 87.6938 47.1848 87.6775 47.2957 87.6837C47.4066 87.6899 47.5151 87.7184 47.6146 87.7675L52.6538 90.0134L53.4552 88.3397L50.591 87.3371C50.4845 87.3049 50.3856 87.2515 50.3003 87.1801C50.215 87.1087 50.145 87.0207 50.0946 86.9216C50.0442 86.8224 50.0144 86.714 50.0069 86.603C49.9995 86.492 50.0146 86.3806 50.0514 86.2756C50.0881 86.1706 50.1457 86.0741 50.2208 85.992C50.2958 85.9098 50.3867 85.8437 50.4879 85.7976C50.5892 85.7515 50.6987 85.7264 50.8099 85.7237C50.9212 85.7211 51.0318 85.741 51.1351 85.7822ZM44.2871 76.1013L43.8814 76.6421L56.3837 82.7284L56.072 80.9821C56.0704 80.9722 56.0638 80.964 56.0621 80.9541L56.0275 80.7299L55.2822 76.5762L51.4599 74.0368L50.6998 73.5982L44.2871 76.1013ZM57.7045 79.7141L59.8003 79.386L62.6447 75.915L61.7509 73.247L56.7266 70.8973L51.7535 71.2683L57.2527 74.0451C57.3886 74.1139 57.5027 74.2191 57.5825 74.3489C57.6622 74.4788 57.7045 74.6281 57.7045 74.7805V79.7141ZM48.9762 92.252C48.9473 92.3564 48.8982 92.4541 48.8315 92.5395C48.6699 92.7473 46.213 91.0736 46.4934 90.7142C46.56 90.6288 46.6429 90.5575 46.7371 90.5041C46.8314 90.4508 46.9353 90.4166 47.0428 90.4035C47.1502 90.3903 47.2593 90.3984 47.3636 90.4274C47.468 90.4564 47.5656 90.5056 47.6509 90.5724L48.6881 91.382C48.7735 91.4485 48.845 91.5313 48.8985 91.6255C48.952 91.7197 48.9864 91.8235 48.9997 91.931C49.013 92.0385 49.005 92.1476 48.9762 92.252ZM21.1344 194.994L28.8036 197.316C28.9753 197.368 29.1254 197.475 29.2315 197.62C29.3376 197.764 29.394 197.94 29.3923 198.119L29.3411 201.269C29.3374 201.477 29.2553 201.675 29.1113 201.825C28.9674 201.976 28.7721 202.066 28.5645 202.078L12.9409 202.998L12.893 203C12.7714 203 12.6513 202.973 12.5413 202.921C12.4313 202.869 12.3341 202.794 12.2565 202.7L10.1377 200.129L9.24559 201.669C9.1769 201.787 9.0799 201.887 8.96333 201.958C8.84676 202.029 8.71426 202.071 8.57777 202.078L0.870657 202.5C0.754261 202.507 0.637804 202.489 0.528971 202.447C0.420137 202.405 0.321404 202.341 0.239283 202.258C0.157161 202.175 0.0935202 202.076 0.0525616 201.967C0.0116029 201.858 -0.00574326 201.741 0.00166768 201.625L0.552411 193.101C0.560077 192.984 0.592943 192.869 0.648786 192.765C0.704629 192.661 0.782147 192.57 0.876101 192.499C0.970054 192.427 1.07825 192.377 1.19338 192.351C1.3085 192.325 1.42788 192.324 1.54342 192.348L11.2111 194.35L10.0437 190.851C10.0021 190.727 9.99053 190.596 10.01 190.467C10.0295 190.338 10.0795 190.216 10.1558 190.11C10.2312 190.004 10.3309 189.918 10.4464 189.858C10.562 189.798 10.6901 189.766 10.8203 189.766L15.9007 189.736C16.1134 189.708 16.3541 189.828 16.5108 190L21.1344 194.994ZM37.4275 182.495L38.0541 186.514L44.1684 191.718C44.2874 191.82 44.3751 191.953 44.4212 192.103C44.4673 192.253 44.47 192.413 44.4289 192.564L43.6176 195.534C43.5857 195.646 43.5307 195.75 43.4562 195.839C43.3816 195.928 43.2891 196.001 43.1847 196.052C43.0803 196.104 42.9663 196.133 42.85 196.138C42.7337 196.142 42.6177 196.122 42.5095 196.079L28.3336 190.274C28.2079 190.222 28.0967 190.14 28.0101 190.036C27.9236 189.931 27.8642 189.807 27.8373 189.673L27.0838 185.94L25.6673 187.272C25.539 187.393 25.3754 187.469 25.2007 187.49C25.0259 187.511 24.8491 187.475 24.6961 187.388L17.5727 183.341C17.4737 183.286 17.3873 183.211 17.319 183.12C17.2506 183.03 17.2018 182.926 17.1756 182.816C17.1494 182.705 17.1464 182.591 17.1668 182.479C17.1872 182.367 17.2305 182.261 17.294 182.167L21.6159 175.687C21.6797 175.591 21.7631 175.509 21.8605 175.447C21.9579 175.385 22.0673 175.345 22.1815 175.328C22.2955 175.313 22.4112 175.322 22.5219 175.353C22.6326 175.384 22.736 175.436 22.8262 175.507L29.295 180.843L29.4434 178.914C29.4541 178.775 29.4997 178.641 29.5762 178.525C29.6526 178.408 29.7573 178.313 29.8804 178.248C30.0036 178.183 30.1412 178.15 30.2805 178.153C30.4197 178.155 30.5561 178.193 30.6768 178.263L37.0235 181.908C37.1307 181.97 37.2227 182.054 37.2927 182.156C37.3626 182.257 37.4087 182.374 37.4275 182.495Z"
    fill="#703D57" />
  <path
    d="M115.845 53H111.67V20.9688H100.439V17.3066H127.026V20.9688H115.845V53ZM135.864 26.2422V53H131.812V26.2422H135.864ZM133.887 16.2324C134.554 16.2324 135.124 16.4521 135.596 16.8916C136.084 17.3148 136.328 17.9821 136.328 18.8936C136.328 19.7887 136.084 20.4561 135.596 20.8955C135.124 21.335 134.554 21.5547 133.887 21.5547C133.187 21.5547 132.601 21.335 132.129 20.8955C131.673 20.4561 131.445 19.7887 131.445 18.8936C131.445 17.9821 131.673 17.3148 132.129 16.8916C132.601 16.4521 133.187 16.2324 133.887 16.2324ZM155.176 53.4883C152.767 53.4883 150.643 52.9919 148.804 51.999C146.965 51.0062 145.532 49.4925 144.507 47.458C143.481 45.4235 142.969 42.86 142.969 39.7676C142.969 36.5286 143.506 33.8838 144.58 31.833C145.671 29.766 147.168 28.236 149.072 27.2432C150.977 26.2503 153.141 25.7539 155.566 25.7539C156.901 25.7539 158.187 25.8923 159.424 26.1689C160.677 26.4294 161.702 26.763 162.5 27.1699L161.279 30.5635C160.465 30.238 159.521 29.945 158.447 29.6846C157.389 29.4242 156.396 29.2939 155.469 29.2939C153.613 29.2939 152.067 29.6927 150.83 30.4902C149.609 31.2878 148.69 32.4596 148.071 34.0059C147.469 35.5521 147.168 37.4564 147.168 39.7188C147.168 41.8835 147.461 43.7308 148.047 45.2607C148.649 46.7907 149.536 47.9626 150.708 48.7764C151.896 49.5739 153.377 49.9727 155.151 49.9727C156.567 49.9727 157.845 49.8262 158.984 49.5332C160.124 49.224 161.157 48.8659 162.085 48.459V52.0723C161.19 52.528 160.189 52.8779 159.082 53.1221C157.992 53.3662 156.689 53.4883 155.176 53.4883ZM172.461 15.0117V34.7383C172.461 35.3893 172.437 36.1868 172.388 37.1309C172.339 38.0586 172.298 38.8805 172.266 39.5967H172.437C172.778 39.1735 173.275 38.5469 173.926 37.7168C174.593 36.8867 175.155 36.2194 175.61 35.7148L184.497 26.2422H189.258L178.491 37.668L190.039 53H185.156L175.708 40.3291L172.461 43.3076V53H168.433V15.0117H172.461ZM205.005 25.7539C207.284 25.7539 209.237 26.2585 210.864 27.2676C212.492 28.2767 213.737 29.6927 214.6 31.5156C215.462 33.3223 215.894 35.4382 215.894 37.8633V40.3779H197.412C197.461 43.5192 198.242 45.9118 199.756 47.5557C201.27 49.1995 203.402 50.0215 206.152 50.0215C207.845 50.0215 209.342 49.8669 210.645 49.5576C211.947 49.2484 213.298 48.7926 214.697 48.1904V51.7549C213.346 52.3571 212.004 52.7965 210.669 53.0732C209.351 53.3499 207.788 53.4883 205.981 53.4883C203.41 53.4883 201.164 52.9674 199.243 51.9258C197.339 50.8678 195.858 49.3216 194.8 47.2871C193.742 45.2526 193.213 42.7624 193.213 39.8164C193.213 36.9355 193.693 34.4453 194.653 32.3457C195.63 30.2298 196.997 28.6022 198.755 27.4629C200.529 26.3236 202.612 25.7539 205.005 25.7539ZM204.956 29.0742C202.791 29.0742 201.066 29.7822 199.78 31.1982C198.494 32.6143 197.729 34.5918 197.485 37.1309H211.646C211.629 35.5358 211.377 34.1361 210.889 32.9316C210.417 31.7109 209.692 30.7669 208.716 30.0996C207.739 29.416 206.486 29.0742 204.956 29.0742ZM231.421 50.168C232.088 50.168 232.772 50.111 233.472 49.9971C234.172 49.8831 234.741 49.7448 235.181 49.582V52.7314C234.709 52.943 234.049 53.1221 233.203 53.2686C232.373 53.415 231.559 53.4883 230.762 53.4883C229.346 53.4883 228.06 53.2441 226.904 52.7559C225.749 52.2513 224.821 51.4049 224.121 50.2168C223.438 49.0286 223.096 47.3848 223.096 45.2852V29.416H219.287V27.4385L223.12 25.8516L224.731 20.041H227.173V26.2422H235.01V29.416H227.173V45.1631C227.173 46.8395 227.555 48.0928 228.32 48.9229C229.102 49.7529 230.135 50.168 231.421 50.168ZM244.653 26.2422V53H240.601V26.2422H244.653ZM242.676 16.2324C243.343 16.2324 243.913 16.4521 244.385 16.8916C244.873 17.3148 245.117 17.9821 245.117 18.8936C245.117 19.7887 244.873 20.4561 244.385 20.8955C243.913 21.335 243.343 21.5547 242.676 21.5547C241.976 21.5547 241.39 21.335 240.918 20.8955C240.462 20.4561 240.234 19.7887 240.234 18.8936C240.234 17.9821 240.462 17.3148 240.918 16.8916C241.39 16.4521 241.976 16.2324 242.676 16.2324ZM265.918 25.7539C269.092 25.7539 271.493 26.5352 273.12 28.0977C274.748 29.6439 275.562 32.1341 275.562 35.5684V53H271.558V35.8369C271.558 33.6071 271.045 31.9388 270.02 30.832C269.01 29.7253 267.456 29.1719 265.356 29.1719C262.394 29.1719 260.311 30.0101 259.106 31.6865C257.902 33.363 257.3 35.7962 257.3 38.9863V53H253.247V26.2422H256.519L257.129 30.0996H257.349C257.918 29.1556 258.643 28.3662 259.521 27.7314C260.4 27.0804 261.385 26.5921 262.476 26.2666C263.566 25.9248 264.714 25.7539 265.918 25.7539ZM291.382 65.0117C287.866 65.0117 285.156 64.3525 283.252 63.0342C281.348 61.7321 280.396 59.901 280.396 57.541C280.396 55.8646 280.924 54.4323 281.982 53.2441C283.057 52.056 284.538 51.2666 286.426 50.876C285.726 50.5505 285.124 50.0622 284.619 49.4111C284.131 48.7601 283.887 48.0114 283.887 47.165C283.887 46.1885 284.155 45.334 284.692 44.6016C285.246 43.8529 286.084 43.1367 287.207 42.4531C285.807 41.8835 284.668 40.9232 283.789 39.5723C282.926 38.2051 282.495 36.6182 282.495 34.8115C282.495 32.891 282.894 31.2552 283.691 29.9043C284.489 28.5371 285.645 27.4954 287.158 26.7793C288.672 26.0632 290.503 25.7051 292.651 25.7051C293.123 25.7051 293.595 25.7295 294.067 25.7783C294.556 25.8109 295.02 25.8678 295.459 25.9492C295.898 26.0143 296.281 26.0957 296.606 26.1934H305.786V28.8057L300.854 29.416C301.343 30.0508 301.75 30.8158 302.075 31.7109C302.401 32.6061 302.563 33.599 302.563 34.6895C302.563 37.3587 301.66 39.4827 299.854 41.0615C298.047 42.624 295.565 43.4053 292.407 43.4053C291.659 43.4053 290.894 43.3402 290.112 43.21C289.315 43.6494 288.704 44.1377 288.281 44.6748C287.874 45.2119 287.671 45.8304 287.671 46.5303C287.671 47.0511 287.826 47.4661 288.135 47.7754C288.46 48.0846 288.924 48.3125 289.526 48.459C290.129 48.5892 290.853 48.6543 291.699 48.6543H296.411C299.325 48.6543 301.554 49.2646 303.101 50.4854C304.663 51.7061 305.444 53.4883 305.444 55.832C305.444 58.7943 304.24 61.0648 301.831 62.6436C299.422 64.2223 295.939 65.0117 291.382 65.0117ZM291.504 61.8379C293.717 61.8379 295.549 61.61 296.997 61.1543C298.462 60.7148 299.552 60.0719 300.269 59.2256C301.001 58.3955 301.367 57.4027 301.367 56.2471C301.367 55.1729 301.123 54.359 300.635 53.8057C300.146 53.2686 299.43 52.9105 298.486 52.7314C297.542 52.5361 296.387 52.4385 295.02 52.4385H290.381C289.176 52.4385 288.127 52.6257 287.231 53C286.336 53.3743 285.645 53.9277 285.156 54.6602C284.684 55.3926 284.448 56.304 284.448 57.3945C284.448 58.8431 285.059 59.9417 286.279 60.6904C287.5 61.4554 289.242 61.8379 291.504 61.8379ZM292.554 40.4512C294.491 40.4512 295.947 39.9629 296.924 38.9863C297.9 38.0098 298.389 36.5856 298.389 34.7139C298.389 32.7119 297.892 31.2145 296.899 30.2217C295.907 29.2126 294.442 28.708 292.505 28.708C290.649 28.708 289.217 29.2288 288.208 30.2705C287.215 31.2959 286.719 32.8014 286.719 34.7871C286.719 36.61 287.223 38.0098 288.232 38.9863C289.242 39.9629 290.682 40.4512 292.554 40.4512ZM336.621 25.7539C339.958 25.7539 342.619 26.9014 344.604 29.1963C346.59 31.4912 347.583 34.9417 347.583 39.5479C347.583 42.5915 347.127 45.1468 346.216 47.2139C345.304 49.2809 344.019 50.8434 342.358 51.9014C340.715 52.9593 338.77 53.4883 336.523 53.4883C335.107 53.4883 333.862 53.3011 332.788 52.9268C331.714 52.5524 330.794 52.0479 330.029 51.4131C329.264 50.7783 328.63 50.0866 328.125 49.3379H327.832C327.881 49.9727 327.938 50.7376 328.003 51.6328C328.084 52.528 328.125 53.3092 328.125 53.9766V64.9629H324.048V26.2422H327.393L327.93 30.1973H328.125C328.646 29.3835 329.281 28.6429 330.029 27.9756C330.778 27.292 331.689 26.7549 332.764 26.3643C333.854 25.9574 335.14 25.7539 336.621 25.7539ZM335.913 29.1719C334.058 29.1719 332.56 29.5299 331.421 30.2461C330.298 30.9622 329.476 32.0365 328.955 33.4688C328.434 34.8848 328.158 36.667 328.125 38.8154V39.5967C328.125 41.859 328.369 43.7715 328.857 45.334C329.362 46.8965 330.184 48.0846 331.323 48.8984C332.479 49.7122 334.025 50.1191 335.962 50.1191C337.622 50.1191 339.006 49.6715 340.112 48.7764C341.219 47.8812 342.041 46.6361 342.578 45.041C343.132 43.4297 343.408 41.5824 343.408 39.499C343.408 36.3415 342.79 33.835 341.553 31.9795C340.332 30.1077 338.452 29.1719 335.913 29.1719ZM377.734 39.5723C377.734 41.7695 377.45 43.7308 376.88 45.4561C376.31 47.1813 375.488 48.638 374.414 49.8262C373.34 51.0143 372.038 51.9258 370.508 52.5605C368.994 53.179 367.277 53.4883 365.356 53.4883C363.566 53.4883 361.922 53.179 360.425 52.5605C358.944 51.9258 357.658 51.0143 356.567 49.8262C355.493 48.638 354.655 47.1813 354.053 45.4561C353.467 43.7308 353.174 41.7695 353.174 39.5723C353.174 36.6426 353.67 34.1523 354.663 32.1016C355.656 30.0345 357.072 28.4639 358.911 27.3896C360.767 26.2992 362.972 25.7539 365.527 25.7539C367.969 25.7539 370.101 26.2992 371.924 27.3896C373.763 28.4801 375.187 30.0589 376.196 32.126C377.222 34.1768 377.734 36.6589 377.734 39.5723ZM357.373 39.5723C357.373 41.7207 357.658 43.5843 358.228 45.1631C358.797 46.7419 359.676 47.9626 360.864 48.8252C362.052 49.6878 363.582 50.1191 365.454 50.1191C367.31 50.1191 368.831 49.6878 370.02 48.8252C371.224 47.9626 372.111 46.7419 372.681 45.1631C373.25 43.5843 373.535 41.7207 373.535 39.5723C373.535 37.4401 373.25 35.6009 372.681 34.0547C372.111 32.4922 371.232 31.2878 370.044 30.4414C368.856 29.5951 367.318 29.1719 365.43 29.1719C362.646 29.1719 360.604 30.0915 359.302 31.9307C358.016 33.7699 357.373 36.3171 357.373 39.5723ZM406.519 52.9512L401.758 37.375C401.546 36.7077 401.343 36.0566 401.147 35.4219C400.968 34.7708 400.798 34.1523 400.635 33.5664C400.488 32.9642 400.35 32.4108 400.22 31.9062C400.106 31.3854 400.008 30.9378 399.927 30.5635H399.756C399.691 30.9378 399.601 31.3854 399.487 31.9062C399.373 32.4108 399.235 32.9642 399.072 33.5664C398.926 34.1686 398.763 34.8034 398.584 35.4707C398.405 36.1217 398.201 36.7809 397.974 37.4482L392.993 52.9512H388.428L381.055 26.1934H385.254L389.111 40.9639C389.372 41.9404 389.616 42.9089 389.844 43.8691C390.088 44.8132 390.291 45.7083 390.454 46.5547C390.633 47.3848 390.763 48.109 390.845 48.7275H391.04C391.138 48.3206 391.243 47.8324 391.357 47.2627C391.488 46.693 391.626 46.0908 391.772 45.4561C391.935 44.805 392.106 44.1621 392.285 43.5273C392.464 42.8763 392.643 42.266 392.822 41.6963L397.754 26.1934H402.124L406.885 41.6719C407.129 42.4531 407.365 43.2669 407.593 44.1133C407.837 44.9596 408.057 45.7816 408.252 46.5791C408.447 47.3604 408.586 48.0602 408.667 48.6787H408.862C408.927 48.1253 409.049 47.4417 409.229 46.6279C409.408 45.8141 409.611 44.9189 409.839 43.9424C410.083 42.9658 410.335 41.973 410.596 40.9639L414.502 26.1934H418.628L411.23 52.9512H406.519ZM433.813 25.7539C436.092 25.7539 438.045 26.2585 439.673 27.2676C441.3 28.2767 442.546 29.6927 443.408 31.5156C444.271 33.3223 444.702 35.4382 444.702 37.8633V40.3779H426.221C426.27 43.5192 427.051 45.9118 428.564 47.5557C430.078 49.1995 432.21 50.0215 434.961 50.0215C436.654 50.0215 438.151 49.8669 439.453 49.5576C440.755 49.2484 442.106 48.7926 443.506 48.1904V51.7549C442.155 52.3571 440.812 52.7965 439.478 53.0732C438.159 53.3499 436.597 53.4883 434.79 53.4883C432.218 53.4883 429.972 52.9674 428.052 51.9258C426.147 50.8678 424.666 49.3216 423.608 47.2871C422.55 45.2526 422.021 42.7624 422.021 39.8164C422.021 36.9355 422.502 34.4453 423.462 32.3457C424.438 30.2298 425.806 28.6022 427.563 27.4629C429.338 26.3236 431.421 25.7539 433.813 25.7539ZM433.765 29.0742C431.6 29.0742 429.875 29.7822 428.589 31.1982C427.303 32.6143 426.538 34.5918 426.294 37.1309H440.454C440.438 35.5358 440.186 34.1361 439.697 32.9316C439.225 31.7109 438.501 30.7669 437.524 30.0996C436.548 29.416 435.295 29.0742 433.765 29.0742ZM463.745 25.7539C464.282 25.7539 464.844 25.7865 465.43 25.8516C466.016 25.9004 466.536 25.9736 466.992 26.0713L466.479 29.8311C466.04 29.7171 465.552 29.6276 465.015 29.5625C464.478 29.4974 463.973 29.4648 463.501 29.4648C462.427 29.4648 461.41 29.6846 460.449 30.124C459.505 30.5472 458.675 31.1657 457.959 31.9795C457.243 32.777 456.681 33.7454 456.274 34.8848C455.868 36.0078 455.664 37.2611 455.664 38.6445V53H451.587V26.2422H454.956L455.396 31.1738H455.566C456.12 30.181 456.787 29.2777 457.568 28.4639C458.35 27.6338 459.253 26.9746 460.278 26.4863C461.32 25.998 462.476 25.7539 463.745 25.7539ZM482.349 25.7539C484.627 25.7539 486.58 26.2585 488.208 27.2676C489.836 28.2767 491.081 29.6927 491.943 31.5156C492.806 33.3223 493.237 35.4382 493.237 37.8633V40.3779H474.756C474.805 43.5192 475.586 45.9118 477.1 47.5557C478.613 49.1995 480.745 50.0215 483.496 50.0215C485.189 50.0215 486.686 49.8669 487.988 49.5576C489.29 49.2484 490.641 48.7926 492.041 48.1904V51.7549C490.69 52.3571 489.347 52.7965 488.013 53.0732C486.694 53.3499 485.132 53.4883 483.325 53.4883C480.754 53.4883 478.507 52.9674 476.587 51.9258C474.683 50.8678 473.201 49.3216 472.144 47.2871C471.086 45.2526 470.557 42.7624 470.557 39.8164C470.557 36.9355 471.037 34.4453 471.997 32.3457C472.974 30.2298 474.341 28.6022 476.099 27.4629C477.873 26.3236 479.956 25.7539 482.349 25.7539ZM482.3 29.0742C480.135 29.0742 478.41 29.7822 477.124 31.1982C475.838 32.6143 475.073 34.5918 474.829 37.1309H488.989C488.973 35.5358 488.721 34.1361 488.232 32.9316C487.76 31.7109 487.036 30.7669 486.06 30.0996C485.083 29.416 483.83 29.0742 482.3 29.0742ZM509.644 53.4883C506.258 53.4883 503.573 52.3327 501.587 50.0215C499.618 47.7103 498.633 44.276 498.633 39.7188C498.633 35.1126 499.642 31.6377 501.66 29.2939C503.678 26.9339 506.364 25.7539 509.717 25.7539C511.133 25.7539 512.37 25.9411 513.428 26.3154C514.486 26.6898 515.397 27.1943 516.162 27.8291C516.927 28.4476 517.57 29.1556 518.091 29.9531H518.384C518.319 29.4486 518.254 28.7568 518.188 27.8779C518.123 26.999 518.091 26.2829 518.091 25.7295V15.0117H522.144V53H518.872L518.262 49.1914H518.091C517.586 49.9889 516.943 50.7132 516.162 51.3643C515.397 52.0153 514.478 52.5361 513.403 52.9268C512.345 53.3011 511.092 53.4883 509.644 53.4883ZM510.278 50.1191C513.143 50.1191 515.169 49.3053 516.357 47.6777C517.546 46.0501 518.14 43.6331 518.14 40.4268V39.6943C518.14 36.2926 517.57 33.6803 516.431 31.8574C515.308 30.0345 513.257 29.123 510.278 29.123C507.788 29.123 505.924 30.0833 504.688 32.0039C503.451 33.9082 502.832 36.5124 502.832 39.8164C502.832 43.1042 503.442 45.6432 504.663 47.4336C505.9 49.224 507.772 50.1191 510.278 50.1191ZM547.778 15.0117V24.5088C547.778 25.5993 547.746 26.6572 547.681 27.6826C547.632 28.708 547.591 29.5055 547.559 30.0752H547.778C548.511 28.8708 549.569 27.8535 550.952 27.0234C552.336 26.1934 554.102 25.7783 556.25 25.7783C559.603 25.7783 562.272 26.9421 564.258 29.2695C566.26 31.5807 567.261 35.0231 567.261 39.5967C567.261 42.6077 566.805 45.1468 565.894 47.2139C564.982 49.2809 563.696 50.8434 562.036 51.9014C560.376 52.9593 558.415 53.4883 556.152 53.4883C554.036 53.4883 552.295 53.0977 550.928 52.3164C549.577 51.5189 548.535 50.5505 547.803 49.4111H547.485L546.655 53H543.726V15.0117H547.778ZM555.591 29.1719C553.654 29.1719 552.116 29.5544 550.977 30.3193C549.837 31.068 549.015 32.2074 548.511 33.7373C548.022 35.251 547.778 37.1715 547.778 39.499V39.7188C547.778 43.0879 548.34 45.6676 549.463 47.458C550.586 49.2321 552.629 50.1191 555.591 50.1191C558.081 50.1191 559.945 49.2077 561.182 47.3848C562.435 45.5618 563.062 42.9577 563.062 39.5723C563.062 36.1217 562.443 33.5257 561.206 31.7842C559.985 30.0426 558.114 29.1719 555.591 29.1719ZM570.117 26.2422H574.463L580.371 41.7695C580.713 42.681 581.03 43.5599 581.323 44.4062C581.616 45.2363 581.877 46.0339 582.104 46.7988C582.332 47.5638 582.511 48.3044 582.642 49.0205H582.812C583.04 48.2067 583.366 47.1406 583.789 45.8223C584.212 44.4876 584.668 43.1286 585.156 41.7451L590.747 26.2422H595.117L583.472 56.9307C582.853 58.5745 582.129 60.0068 581.299 61.2275C580.485 62.4482 579.492 63.3841 578.32 64.0352C577.148 64.7025 575.732 65.0361 574.072 65.0361C573.307 65.0361 572.632 64.9873 572.046 64.8896C571.46 64.8083 570.955 64.7106 570.532 64.5967V61.3496C570.89 61.431 571.322 61.5042 571.826 61.5693C572.347 61.6344 572.884 61.667 573.438 61.667C574.447 61.667 575.317 61.4717 576.05 61.0811C576.799 60.7067 577.441 60.1533 577.979 59.4209C578.516 58.6885 578.979 57.8177 579.37 56.8086L580.835 53.0488L570.117 26.2422Z"
    fill="black" />
</svg>