<?xml version="1.0" encoding="UTF-8" standalone="no"?>
<!-- Created with Inkscape (http://www.inkscape.org/) -->

<svg
   xmlns:dc="http://purl.org/dc/elements/1.1/"
   xmlns:cc="http://creativecommons.org/ns#"
   xmlns:rdf="http://www.w3.org/1999/02/22-rdf-syntax-ns#"
   xmlns:svg="http://www.w3.org/2000/svg"
   xmlns="http://www.w3.org/2000/svg"
   xmlns:sodipodi="http://sodipodi.sourceforge.net/DTD/sodipodi-0.dtd"
   xmlns:inkscape="http://www.inkscape.org/namespaces/inkscape"
   width="210mm"
   height="297mm"
   viewBox="0 0 744.09448819 1052.3622047"
   id="svg2"
   version="1.1"
   inkscape:version="0.91 r13725"
   sodipodi:docname="ticket_default_a4.svg">
  <defs
     id="defs4" />
  <sodipodi:namedview
     id="base"
     pagecolor="#ffffff"
     bordercolor="#666666"
     borderopacity="1.0"
     inkscape:pageopacity="0.0"
     inkscape:pageshadow="2"
     inkscape:zoom="0.7"
     inkscape:cx="165.86914"
     inkscape:cy="880.96999"
     inkscape:document-units="px"
     inkscape:current-layer="layer1-3"
     showgrid="false"
     inkscape:window-width="1916"
     inkscape:window-height="1041"
     inkscape:window-x="1920"
     inkscape:window-y="18"
     inkscape:window-maximized="0" />
  <metadata
     id="metadata7">
    <rdf:RDF>
      <cc:Work
         rdf:about="">
        <dc:format>image/svg+xml</dc:format>
        <dc:type
           rdf:resource="http://purl.org/dc/dcmitype/StillImage" />
        <dc:title></dc:title>
      </cc:Work>
    </rdf:RDF>
  </metadata>
  <g
     inkscape:label="Ebene 1"
     inkscape:groupmode="layer"
     id="layer1">
    <g
       transform="translate(-235.06454,-531.49224)"
       id="layer1-3"
       inkscape:label="Ebene 1">
      <rect
         style="color:#000000;display:inline;overflow:visible;visibility:visible;opacity:1;fill:#3b1c4a;fill-opacity:1;fill-rule:nonzero;stroke:none;stroke-width:8.9630003;stroke-miterlimit:4;stroke-dasharray:none;stroke-dashoffset:0;stroke-opacity:1;marker:none;enable-background:accumulate"
         id="rect4946"
         width="744.09448"
         height="155.34673"
         x="235.06454"
         y="531.49225" />
      <path
         id="rect3888"
         d="m 284.63366,574.57179 0,21.52373 c 7.22016,0 13.07996,5.8598 13.07996,13.07996 0,7.22015 -5.8598,13.06023 -13.07996,13.06023 l 0,21.52373 92.60531,0 0,-5.99745 1.89393,0 0,5.99745 65.95219,0 0,-21.52373 c -0.007,10e-6 -0.0131,0 -0.0197,0 -7.22016,0 -13.07996,-5.84008 -13.07996,-13.06023 0,-7.22016 5.8598,-13.07996 13.07996,-13.07996 0.007,0 0.0131,-10e-6 0.0197,0 l 0,-21.52373 -65.95219,0 0,5.74098 -1.89393,0 0,-5.74098 -92.60531,0 z m 92.60531,10.16015 1.89393,0 0,8.83834 -1.89393,0 0,-8.83834 z m 24.42381,9.37101 3.05791,0 c 0.16887,2e-5 0.3271,0.0707 0.45376,0.19728 0.12664,0.12668 0.19728,0.26518 0.19728,0.43403 l 0,2.78171 c 0,0.16889 -0.0706,0.32712 -0.19728,0.45375 -0.12666,0.12668 -0.28489,0.19731 -0.45376,0.19729 l -3.05791,0 c -0.16887,2e-5 -0.32572,-0.0706 -0.47348,-0.19729 -0.12665,-0.12663 -0.19728,-0.28486 -0.19728,-0.45375 l 0,-2.78171 c 0,-0.16885 0.0706,-0.30735 0.19728,-0.43403 0.14776,-0.12663 0.30461,-0.19726 0.47348,-0.19728 z m -7.71382,2.70279 0.1381,0 c 0.33774,2e-5 0.49321,0.15688 0.49321,0.47349 l 0,3.25519 2.86063,0 c 0.16886,1e-5 0.30736,0.0706 0.43402,0.19728 0.12664,0.12667 0.19728,0.26518 0.19729,0.43403 l 0,1.8742 c -10e-6,0.16889 -0.0707,0.30739 -0.19729,0.43403 -0.12666,0.12667 -0.26516,0.1973 -0.43402,0.19728 l -2.86063,0 0,9.94314 c 0,0.40107 0.0183,0.71477 0.0395,0.94696 0.0211,0.23221 0.0734,0.40602 0.15783,0.53267 0.0844,0.12666 0.20734,0.21426 0.35511,0.25647 0.16886,0.0211 0.39497,0.0395 0.6905,0.0395 l 1.67691,0 c 0.44328,0 0.67076,0.15685 0.67077,0.47348 l 0,1.99257 c -10e-6,0.31664 -0.21052,0.5088 -0.61158,0.57213 -0.37997,0.0633 -0.74595,0.11561 -1.10479,0.15783 -0.33776,0.0422 -0.68677,0.0592 -1.04561,0.0592 -0.88658,0 -1.65386,-0.0706 -2.30823,-0.19728 -0.63327,-0.12666 -1.15748,-0.37111 -1.55855,-0.72996 -0.40107,-0.35885 -0.6978,-0.86471 -0.88778,-1.51909 -0.18998,-0.67547 -0.2762,-1.52897 -0.27619,-2.58442 l 0,-9.94314 -2.979,-0.45375 c -0.16887,-0.0422 -0.30737,-0.11145 -0.43403,-0.21701 -0.12665,-0.10553 -0.19728,-0.24541 -0.19728,-0.4143 l 0,-1.42045 c 0,-0.16885 0.0706,-0.30736 0.19728,-0.43403 0.12666,-0.12664 0.26516,-0.19727 0.43403,-0.19728 l 2.979,0 0,-2.60415 c -10e-6,-0.16885 0.0706,-0.30873 0.19728,-0.4143 0.12665,-0.10552 0.26515,-0.17478 0.43403,-0.21701 l 2.93953,-0.49322 z m -16.70999,1.18371 1.89393,0 0,8.83834 -1.89393,0 0,-8.83834 z m -45.78971,2.32796 c 2.55416,2e-5 4.45608,0.69667 5.70152,2.11094 1.24541,1.3932 1.85446,3.32906 1.85447,5.81989 l 0,2.44633 c -10e-6,2.49085 -0.60906,4.44505 -1.85447,5.85935 -1.24544,1.39318 -3.14736,2.09121 -5.70152,2.09121 -0.37997,0 -0.83355,-0.0169 -1.36127,-0.0592 -0.52773,-0.0211 -1.08587,-0.0734 -1.67691,-0.15783 l 0,5.60288 c -1e-5,0.16886 -0.0706,0.30736 -0.19729,0.43402 -0.12666,0.12665 -0.26516,0.19728 -0.43402,0.19729 l -2.91981,0 c -0.16888,-10e-6 -0.30737,-0.0706 -0.43403,-0.19729 -0.12665,-0.12666 -0.19728,-0.26516 -0.19728,-0.43402 l 0,-22.03667 c 0,-0.23218 0.0523,-0.40738 0.15783,-0.51294 0.10554,-0.12664 0.33164,-0.24955 0.69049,-0.35512 0.99212,-0.25328 2.05751,-0.44407 3.17628,-0.59185 1.11876,-0.14775 2.18277,-0.21699 3.19601,-0.21701 z m 19.57061,0 c 0.16887,2e-5 0.30736,0.0509 0.43403,0.17755 0.12664,0.12668 0.19727,0.2849 0.19728,0.45376 l 0,2.26877 c -1e-5,0.16889 -0.0706,0.32712 -0.19728,0.45375 -0.12667,0.12667 -0.26516,0.17757 -0.43403,0.17756 -0.86547,10e-6 -1.6511,0.10458 -2.34768,0.31565 -0.6755,0.19 -1.35656,0.46976 -2.03203,0.8286 l 0,12.72484 c -10e-6,0.16887 -0.0509,0.32573 -0.17756,0.47349 -0.12665,0.12665 -0.28489,0.19728 -0.45375,0.19728 l -2.90008,0 c -0.16887,0 -0.32711,-0.0706 -0.45376,-0.19728 -0.12666,-0.14776 -0.17756,-0.30462 -0.17755,-0.47349 l 0,-16.55216 c -1e-5,-0.16885 0.0509,-0.30736 0.17755,-0.43403 0.12665,-0.12664 0.28489,-0.19727 0.45376,-0.19728 l 2.74225,0 c 0.16887,1e-5 0.32709,0.0706 0.45375,0.19728 0.12665,0.12667 0.17755,0.26518 0.17756,0.43403 l 0,0.67077 c 0.78102,-0.61215 1.58499,-1.01344 2.38714,-1.20344 0.80213,-0.21107 1.51713,-0.31563 2.1504,-0.31565 z m 9.76558,0 c 1.22431,2e-5 2.30667,0.1908 3.23547,0.59185 0.94988,0.37998 1.73413,0.9395 2.36741,1.65719 0.63325,0.71772 1.1038,1.57259 1.42045,2.5647 0.33772,0.97102 0.51292,2.03365 0.51294,3.21573 l 0,1.77556 c -2e-5,0.52773 -0.20915,0.78915 -0.63131,0.78914 l -10.31798,0 0,0.0986 c -1e-5,0.46441 0.0523,0.93495 0.15783,1.42045 0.10553,0.4644 0.2977,0.90101 0.57212,1.30208 0.29552,0.37997 0.67847,0.69366 1.16398,0.94696 0.5066,0.23221 1.13401,0.35512 1.89393,0.35512 1.16098,0 2.26168,-0.0353 3.27492,-0.0987 1.03432,-0.0844 1.8892,-0.15368 2.5647,-0.21701 l 0.0789,0 c 0.16886,1e-5 0.30875,0.034 0.4143,0.11837 0.10553,0.0633 0.15781,0.18624 0.15783,0.35511 l 0,2.09122 c -2e-5,0.25331 -0.034,0.44547 -0.11837,0.57212 -0.0634,0.12666 -0.23717,0.21426 -0.53267,0.25647 -0.50663,0.10555 -0.9969,0.17342 -1.44018,0.23674 -0.44329,0.0633 -0.89687,0.13534 -1.36126,0.17756 -0.44329,0.0422 -0.93081,0.0578 -1.47963,0.0789 -0.52773,0.0211 -1.15651,0.0395 -1.8742,0.0395 -0.80215,0 -1.65703,-0.12292 -2.5647,-0.35511 -0.88658,-0.25331 -1.70614,-0.67157 -2.46606,-1.26262 -0.75992,-0.61216 -1.38732,-1.43309 -1.89393,-2.44633 -0.48551,-1.03432 -0.72996,-2.32444 -0.72995,-3.8865 l 0,-2.34769 c -1e-5,-1.2243 0.1752,-2.32225 0.51294,-3.31437 0.33775,-0.99211 0.80691,-1.84837 1.44018,-2.54497 0.65437,-0.69658 1.45697,-1.21803 2.40687,-1.59801 0.94989,-0.37994 2.03225,-0.5721 3.23546,-0.57212 z m 40.93652,0.21701 2.91981,0 c 0.16886,1e-5 0.30737,0.0706 0.43403,0.19728 0.12664,0.12667 0.19727,0.26518 0.19728,0.43403 l 0,16.55216 c -1e-5,0.16887 -0.0706,0.32573 -0.19728,0.47349 -0.12666,0.12665 -0.26517,0.19728 -0.43403,0.19728 l -2.91981,0 c -0.16888,0 -0.32711,-0.0706 -0.45375,-0.19728 -0.12666,-0.14776 -0.17757,-0.30462 -0.17756,-0.47349 l 0,-16.55216 c -1e-5,-0.16885 0.0509,-0.30736 0.17756,-0.43403 0.12664,-0.12664 0.28487,-0.19727 0.45375,-0.19728 z m 7.08251,0 3.61031,0 c 0.16887,1e-5 0.30874,0.0523 0.41429,0.15783 0.10554,0.0845 0.2257,0.2413 0.39457,0.47348 l 3.21574,4.93211 2.95926,-4.93211 c 0.16886,-0.2955 0.30875,-0.46932 0.4143,-0.53267 0.12664,-0.0633 0.28487,-0.0986 0.45376,-0.0986 l 3.25519,0 c 0.25329,1e-5 0.37482,0.12294 0.37484,0.35511 -2e-5,0.10556 -0.0156,0.19178 -0.0789,0.2762 l -5.22804,7.97029 5.7607,8.62133 c 0.0422,0.0844 0.0592,0.15369 0.0592,0.21701 -2e-5,0.10555 -0.0523,0.2115 -0.15783,0.29593 -0.0845,0.0844 -0.18902,0.11837 -0.31566,0.11837 l -3.6103,0 c -0.16888,0 -0.30739,-0.0353 -0.43403,-0.0986 -0.10555,-0.0844 -0.24544,-0.25826 -0.41429,-0.53267 l -3.61031,-5.56342 -3.43275,5.56342 c -0.16887,0.27441 -0.30738,0.44823 -0.43402,0.53267 -0.10555,0.0633 -0.24544,0.0986 -0.4143,0.0986 l -3.25519,0 c -0.25331,0 -0.39457,-0.12292 -0.39457,-0.35511 0,-0.0844 0.0353,-0.17066 0.0986,-0.2762 l 5.68179,-8.58187 -5.36613,-8.00975 c -0.0422,-0.0844 -0.0593,-0.15504 -0.0592,-0.19728 0,-0.10553 0.0537,-0.19175 0.1381,-0.2762 0.10554,-0.10553 0.22708,-0.15782 0.37484,-0.15783 z m -77.35522,3.19601 c -0.56995,1e-5 -1.14507,0.017 -1.73611,0.0592 -0.56994,0.0422 -1.00656,0.0945 -1.30207,0.15783 l 0,11.04793 c 0.44328,0.0633 0.94776,0.11561 1.53882,0.15783 0.61215,0.0422 1.11939,0.0789 1.49936,0.0789 0.67547,10e-6 1.23362,-0.12291 1.67692,-0.35511 0.44327,-0.2322 0.79228,-0.5459 1.0456,-0.94697 0.2533,-0.40106 0.42849,-0.87161 0.51294,-1.42044 0.10553,-0.54883 0.15782,-1.16064 0.15783,-1.81502 l 0,-2.44633 c -1e-5,-0.65436 -0.0523,-1.24644 -0.15783,-1.79529 -0.0845,-0.54881 -0.25964,-1.01936 -0.51294,-1.42044 -0.25332,-0.40106 -0.60233,-0.71476 -1.0456,-0.94697 -0.4433,-0.23218 -1.00145,-0.3551 -1.67692,-0.35511 z m 28.98108,0.19728 c -0.82886,0.0739 -1.53711,0.41512 -2.09122,1.00615 -0.63327,0.65439 -0.94697,1.61384 -0.94696,2.88036 l 0,0.11837 6.7274,0 0,-0.11837 c -10e-6,-1.24542 -0.31509,-2.20486 -0.92724,-2.88036 -0.61217,-0.67547 -1.41476,-1.00613 -2.40687,-1.00615 -0.12401,0 -0.2367,-0.0105 -0.35511,0 z m 16.80863,7.31925 1.89393,0 0,8.83835 -1.89393,0 0,-8.83835 z m 0,13.25752 1.89393,0 0,8.83834 -1.89393,0 0,-8.83834 z"
         style="color:#000000;display:inline;overflow:visible;visibility:visible;fill:#ffffff;fill-opacity:1;fill-rule:nonzero;stroke:none;marker:none;enable-background:accumulate"
         inkscape:connector-curvature="0" />
      <text
         xml:space="preserve"
         style="font-style:normal;font-variant:normal;font-weight:normal;font-stretch:normal;font-size:48.77645493px;line-height:125%;font-family:SoulMission;-inkscape-font-specification:SoulMission;letter-spacing:0px;word-spacing:0px;fill:#ffffff;fill-opacity:1;stroke:none;stroke-width:1px;stroke-linecap:butt;stroke-linejoin:miter;stroke-opacity:1"
         x="475.01187"
         y="627.7738"
         id="text4949"
         sodipodi:linespacing="125%"><tspan
           sodipodi:role="line"
           id="tspan4951"
           x="475.01187"
           y="627.7738"
           style="font-style:normal;font-variant:normal;font-weight:normal;font-stretch:normal;font-size:48.77645493px;line-height:125%;font-family:Ubuntu;-inkscape-font-specification:'Ubuntu, Normal';text-align:start;writing-mode:lr-tb;text-anchor:start">Your Ticket</tspan></text>
    </g>
  </g>
</svg>
