<?xml version="1.0" encoding="UTF-8" standalone="no"?>
<!-- Created with Inkscape (http://www.inkscape.org/) -->

<svg
   xmlns:dc="http://purl.org/dc/elements/1.1/"
   xmlns:cc="http://creativecommons.org/ns#"
   xmlns:rdf="http://www.w3.org/1999/02/22-rdf-syntax-ns#"
   xmlns:svg="http://www.w3.org/2000/svg"
   xmlns="http://www.w3.org/2000/svg"
   xmlns:sodipodi="http://sodipodi.sourceforge.net/DTD/sodipodi-0.dtd"
   xmlns:inkscape="http://www.inkscape.org/namespaces/inkscape"
   width="210mm"
   height="297mm"
   viewBox="0 0 744.09448819 1052.3622047"
   id="svg2"
   version="1.1"
   inkscape:version="0.92.2 2405546, 2018-03-11"
   sodipodi:docname="ticket_default_a4.svg">
  <defs
     id="defs4" />
  <sodipodi:namedview
     id="base"
     pagecolor="#ffffff"
     bordercolor="#666666"
     borderopacity="1.0"
     inkscape:pageopacity="0.0"
     inkscape:pageshadow="2"
     inkscape:zoom="0.98994949"
     inkscape:cx="378.27266"
     inkscape:cy="353.95564"
     inkscape:document-units="px"
     inkscape:current-layer="layer1-3"
     showgrid="false"
     inkscape:window-width="1916"
     inkscape:window-height="987"
     inkscape:window-x="1920"
     inkscape:window-y="72"
     inkscape:window-maximized="0" />
  <metadata
     id="metadata7">
    <rdf:RDF>
      <cc:Work
         rdf:about="">
        <dc:format>image/svg+xml</dc:format>
        <dc:type
           rdf:resource="http://purl.org/dc/dcmitype/StillImage" />
        <dc:title />
      </cc:Work>
    </rdf:RDF>
  </metadata>
  <g
     inkscape:label="Ebene 1"
     inkscape:groupmode="layer"
     id="layer1">
    <g
       transform="translate(-235.06454,-531.49224)"
       id="layer1-3"
       inkscape:label="Ebene 1">
      <path
         id="path4773"
         d="m 905.72113,572.73829 q -0.21728,0 -0.37607,0.15878 -0.15879,0.15879 -0.15879,0.37608 0,0.21729 0.15879,0.37608 0.15879,0.15878 0.37607,0.15878 0.21729,0 0.37608,-0.15878 0.15878,-0.15879 0.15878,-0.37608 0,-0.21729 -0.15878,-0.37608 -0.15879,-0.15878 -0.37608,-0.15878 z m -2.50716,0.53486 -4.23711,3.32617 q -0.234,0.16715 -0.20893,0.46801 0.0418,0.2925 0.2925,0.42621 l 1.06973,0.53487 q 0.10864,0.0585 0.24236,0.0585 0.14207,0 0.25907,-0.0669 l 5.76648,-3.23425 0.91929,0.55158 q 0.0669,0.0334 0.10029,0.0418 -0.117,0.4095 -0.0836,0.81065 0.0585,0.6435 0.46801,1.23269 0.4095,0.58918 1.10315,1.03211 1.10315,0.70201 2.31495,0.70201 1.13658,0 1.8553,-0.65187 0.75215,-0.702 0.66022,-1.72994 -0.0585,-0.63514 -0.468,-1.22851 -0.40951,-0.59336 -1.0948,-1.03629 -1.10315,-0.70201 -2.3233,-0.70201 -0.69365,0 -1.26194,0.25908 -0.0752,-0.10865 -0.18386,-0.18386 l -1.01958,-0.61008 1.01958,-0.61008 q 0.10864,-0.0752 0.18386,-0.18385 0.56829,0.25907 1.26194,0.25907 1.22015,0 2.3233,-0.70201 0.68529,-0.44293 1.0948,-1.03629 0.4095,-0.59336 0.468,-1.22851 0.0418,-0.49308 -0.12954,-0.94436 -0.17132,-0.4513 -0.53068,-0.77723 -0.71036,-0.66022 -1.8553,-0.66022 -1.2118,0 -2.31495,0.70201 -0.69365,0.43458 -1.10315,1.02794 -0.40951,0.59336 -0.46801,1.23686 -0.0334,0.40115 0.0836,0.81065 -0.0334,0.008 -0.10029,0.0418 l -0.91929,0.55158 -5.76648,-3.23424 q -0.117,-0.0669 -0.25907,-0.0669 -0.13372,0 -0.24236,0.0585 l -1.06973,0.53486 q -0.25071,0.13371 -0.2925,0.42622 -0.0251,0.30086 0.20893,0.468 z m 5.69126,-2.17288 q -0.38443,-0.351 -0.1755,-0.90257 0.20893,-0.55158 0.88586,-0.9778 0.76887,-0.49307 1.60459,-0.49307 0.61843,0 0.94436,0.30086 0.38444,0.351 0.17551,0.90258 -0.20893,0.55157 -0.88587,0.97779 -0.76886,0.49308 -1.60458,0.49308 -0.61844,0 -0.94437,-0.30087 z m 0.71036,6.22613 q -0.67693,-0.42622 -0.88586,-0.97779 -0.20893,-0.55158 0.1755,-0.90258 0.32593,-0.30086 0.94437,-0.30086 0.83572,0 1.60458,0.49307 0.67694,0.42622 0.88587,0.97779 0.20893,0.55158 -0.17551,0.90258 -0.32593,0.30087 -0.94436,0.30087 -0.83572,0 -1.60459,-0.49308 z m -1.48758,-5.12297 -0.80229,0.48472 v -0.0919 q 0,-0.30086 -0.27579,-0.46801 l -0.117,-0.0669 0.66022,-0.39278 0.21729,0.21728 q 0.0251,0.0251 0.0836,0.0919 0.0585,0.0669 0.10028,0.10029 0.0167,0.0167 0.0334,0.0292 0.0167,0.0125 0.0251,0.0209 z m -1.87202,1.87201 -0.80229,0.26744 -6.15091,-4.81376 1.06973,-0.53486 6.41834,3.60196 v 0.94436 l 1.33715,0.8023 -0.0752,0.0668 q -0.0167,0.0167 -0.0585,0.0502 -0.0334,0.0334 -0.0919,0.10028 -0.0585,0.0669 -0.0919,0.10029 l -0.21729,0.21729 z m -5.88347,3.4766 -1.06973,-0.53485 4.34575,-3.40975 1.47923,1.15329 q 0.0167,0.0251 0.10864,0.0585 z"
         inkscape:connector-curvature="0"
         style="fill:#c6c6c6;fill-opacity:1;stroke-width:0.00835721" />
      <path
         style="color:#000000;font-style:normal;font-variant:normal;font-weight:normal;font-stretch:normal;font-size:medium;line-height:normal;font-family:sans-serif;font-variant-ligatures:normal;font-variant-position:normal;font-variant-caps:normal;font-variant-numeric:normal;font-variant-alternates:normal;font-feature-settings:normal;text-indent:0;text-align:start;text-decoration:none;text-decoration-line:none;text-decoration-style:solid;text-decoration-color:#000000;letter-spacing:normal;word-spacing:normal;text-transform:none;writing-mode:lr-tb;direction:ltr;text-orientation:mixed;dominant-baseline:auto;baseline-shift:baseline;text-anchor:start;white-space:normal;shape-padding:0;clip-rule:nonzero;display:inline;overflow:visible;visibility:visible;opacity:1;isolation:auto;mix-blend-mode:normal;color-interpolation:sRGB;color-interpolation-filters:linearRGB;solid-color:#000000;solid-opacity:1;vector-effect:none;fill:#bebebe;fill-opacity:1;fill-rule:nonzero;stroke:none;stroke-width:1.09977293;stroke-linecap:square;stroke-linejoin:round;stroke-miterlimit:4;stroke-dasharray:none;stroke-dashoffset:0;stroke-opacity:1;marker:none;color-rendering:auto;image-rendering:auto;shape-rendering:auto;text-rendering:auto;enable-background:accumulate"
         d="m 288.76388,572.72393 c -0.30395,3.5e-4 -0.54998,0.2472 -0.54932,0.55115 V 903.7457 c -6.6e-4,0.3039 0.24537,0.5508 0.54932,0.5511 h 636.69434 c 0.30466,7e-4 0.55181,-0.2465 0.55114,-0.5511 V 573.27508 c 6.7e-4,-0.30467 -0.24648,-0.55182 -0.55114,-0.55115 h -10.16968 v 1.10047 h 9.62219 V 903.1982 H 289.31503 V 573.8244 h 607.94311 v -1.10047 z"
         id="rect4796"
         inkscape:connector-curvature="0"
         sodipodi:nodetypes="ccccccccccccccccc" />
      <path
         style="fill:none;fill-rule:evenodd;stroke:#bebebe;stroke-width:1.0629921;stroke-linecap:butt;stroke-linejoin:miter;stroke-miterlimit:4;stroke-dasharray:none;stroke-opacity:1"
         d="m 288.68198,624.52409 h 637.1129"
         id="path4798"
         inkscape:connector-curvature="0"
         sodipodi:nodetypes="cc" />
      <path
         sodipodi:nodetypes="cc"
         inkscape:connector-curvature="0"
         id="path4806"
         d="M 288.84939,867.0309 H 925.87648"
         style="fill:none;fill-rule:evenodd;stroke:#bebebe;stroke-width:1.0629921;stroke-linecap:butt;stroke-linejoin:miter;stroke-miterlimit:4;stroke-dasharray:none;stroke-opacity:1" />
      <path
         style="fill:none;fill-rule:evenodd;stroke:#bebebe;stroke-width:1.0629921;stroke-linecap:butt;stroke-linejoin:miter;stroke-miterlimit:4;stroke-dasharray:none;stroke-opacity:1"
         d="m 412.76139,867.472 v 35.8636"
         id="path4808"
         inkscape:connector-curvature="0"
         sodipodi:nodetypes="cc" />
      <path
         sodipodi:nodetypes="cc"
         inkscape:connector-curvature="0"
         id="path4810"
         d="M 696.22596,624.1956 V 867.096"
         style="fill:none;fill-rule:evenodd;stroke:#bebebe;stroke-width:1.0629921;stroke-linecap:butt;stroke-linejoin:miter;stroke-miterlimit:4;stroke-dasharray:none;stroke-opacity:1" />
      <path
         sodipodi:nodetypes="cc"
         inkscape:connector-curvature="0"
         id="path4814"
         d="M 288.84939,661.21473 H 696.29784"
         style="fill:none;fill-rule:evenodd;stroke:#bebebe;stroke-width:1.0629921;stroke-linecap:butt;stroke-linejoin:miter;stroke-miterlimit:4;stroke-dasharray:none;stroke-opacity:1" />
      <path
         style="fill:none;fill-rule:evenodd;stroke:#bebebe;stroke-width:1.0629921;stroke-linecap:butt;stroke-linejoin:miter;stroke-miterlimit:4;stroke-dasharray:none;stroke-opacity:1"
         d="M 288.84939,697.88607 H 696.41622"
         id="path4820"
         inkscape:connector-curvature="0"
         sodipodi:nodetypes="cc" />
      <path
         sodipodi:nodetypes="cc"
         inkscape:connector-curvature="0"
         id="path4824"
         d="m 589.92675,867.472 v 35.8636"
         style="fill:none;fill-rule:evenodd;stroke:#bebebe;stroke-width:1.0629921;stroke-linecap:butt;stroke-linejoin:miter;stroke-miterlimit:4;stroke-dasharray:none;stroke-opacity:1" />
    </g>
  </g>
</svg>
