<?xml version="1.0" encoding="UTF-8" standalone="no"?>
<!-- Created with Inkscape (http://www.inkscape.org/) -->

<svg
   xmlns:dc="http://purl.org/dc/elements/1.1/"
   xmlns:cc="http://creativecommons.org/ns#"
   xmlns:rdf="http://www.w3.org/1999/02/22-rdf-syntax-ns#"
   xmlns:svg="http://www.w3.org/2000/svg"
   xmlns="http://www.w3.org/2000/svg"
   xmlns:sodipodi="http://sodipodi.sourceforge.net/DTD/sodipodi-0.dtd"
   xmlns:inkscape="http://www.inkscape.org/namespaces/inkscape"
   width="210mm"
   height="297mm"
   viewBox="0 0 744.09448819 1052.3622047"
   id="svg2"
   version="1.1"
   inkscape:version="0.92.1 r"
   sodipodi:docname="ticket_default_a4.svg">
  <defs
     id="defs4" />
  <sodipodi:namedview
     id="base"
     pagecolor="#ffffff"
     bordercolor="#666666"
     borderopacity="1.0"
     inkscape:pageopacity="0.0"
     inkscape:pageshadow="2"
     inkscape:zoom="0.98994949"
     inkscape:cx="212.60764"
     inkscape:cy="434.76784"
     inkscape:document-units="px"
     inkscape:current-layer="layer1-3"
     showgrid="false"
     inkscape:window-width="1916"
     inkscape:window-height="1041"
     inkscape:window-x="1920"
     inkscape:window-y="18"
     inkscape:window-maximized="0" />
  <metadata
     id="metadata7">
    <rdf:RDF>
      <cc:Work
         rdf:about="">
        <dc:format>image/svg+xml</dc:format>
        <dc:type
           rdf:resource="http://purl.org/dc/dcmitype/StillImage" />
        <dc:title></dc:title>
      </cc:Work>
    </rdf:RDF>
  </metadata>
  <g
     inkscape:label="Ebene 1"
     inkscape:groupmode="layer"
     id="layer1">
    <g
       transform="translate(-235.06454,-531.49224)"
       id="layer1-3"
       inkscape:label="Ebene 1">
      <g
         transform="matrix(0.48496932,0,0,0.48496932,410.76741,1200.474)"
         id="layer1-8"
         inkscape:label="Ebene 1"
         style="fill:#3b1c4a;fill-opacity:1">
        <path
           id="rect3888-7"
           transform="translate(257.78125,548.75)"
           d="m 20,20 v 34.09375 c 11.43679,0 20.71875,9.28196 20.71875,20.71875 C 40.71875,86.24928 31.43679,95.5 20,95.5 v 34.09375 h 146.6875 v -9.5 h 3 v 9.5 H 274.15625 V 95.5 c -0.0105,2e-5 -0.0208,0 -0.0312,0 -11.43678,0 -20.71875,-9.25072 -20.71875,-20.6875 0,-11.43679 9.28197,-20.71875 20.71875,-20.71875 0.0105,0 0.0208,-2e-5 0.0312,0 V 20 H 169.6875 v 9.09375 h -3 V 20 Z m 146.6875,16.09375 h 3 v 14 h -3 z m 41.44141,12.833984 c 2.79067,0 5.02343,1.92774 5.02343,4.3125 0,2.38476 -2.23276,4.363282 -5.02343,4.363282 -2.73994,0 -4.97266,-1.978522 -4.97266,-4.363282 0,-2.38476 2.23272,-4.3125 4.97266,-4.3125 z m -13.22852,4.210938 v 8.017578 h 3.95899 v 6.291016 h -3.95899 v 12.279296 c 0,2.02959 0.71015,2.791016 2.13086,2.791016 0.71035,0 1.06703,-0.10181 1.82813,-0.40625 v 5.935547 c -0.71036,0.40591 -2.38661,0.964844 -4.61915,0.964844 -6.13949,0 -8.98046,-3.753876 -8.98046,-8.472657 V 67.447266 h -2.8418 V 61.15625 h 2.8418 V 55.574219 Z M 166.6875,57.09375 h 3 v 14 h -3 z m -74.568359,3.554688 c 8.473509,0 14.207029,4.515688 14.207029,14.105468 0,8.62573 -5.02336,14.105469 -12.07617,14.105469 -1.72514,0 -3.147072,-0.20329 -3.857422,-0.40625 V 99.414062 H 80.751953 V 62.728516 c 2.58772,-1.21775 6.090268,-2.080081 11.367188,-2.080078 z m 49.863279,0 c 8.57499,0 12.63436,5.935363 12.12696,15.220703 l -15.93165,2.234375 c 0.60888,2.94289 2.18061,4.414062 5.68165,4.414062 3.24732,0 5.78445,-0.711556 7.30664,-1.472656 l 2.13086,5.886719 c -2.38476,1.16701 -5.58034,2.080078 -10.6543,2.080078 -8.93017,0 -13.64844,-6.037993 -13.64844,-14.257813 0,-8.21981 4.41329,-14.105468 12.98828,-14.105468 z m -17.92187,0.0059 c 0.8928,0.01358 1.82795,0.04496 2.80468,0.0957 l -1.67578,6.697266 c -1.77589,-0.86257 -3.50104,-0.913692 -4.76953,-0.457032 v 21.513672 h -9.64062 v -25.77539 c 2.79702,-1.376314 7.03166,-2.16926 13.28125,-2.074219 z m 79.24804,0.501953 h 9.64063 v 27.347656 h -9.64063 z m 13.23438,0 h 10.04687 l 3.29883,6.849609 h 0.10156 l 3.60157,-6.849609 h 8.98047 l -7.96485,12.632812 8.72656,14.714844 H 232.67969 L 229.17773,80.9434 h -0.10156 l -3.65234,7.560547 h -9.74219 l 8.57422,-14.105468 z m -74.9668,5.023438 c -2.84142,0 -4.41381,2.585948 -4.10937,7.355468 l 7.76367,-1.166015 c 0,-4.16064 -1.2188,-6.189454 -3.6543,-6.189453 z m -49.507811,0.09961 c -0.71035,0 -1.219131,0.101686 -1.675781,0.253906 v 16.439453 c 0.35517,0.15221 0.863828,0.253906 1.523438,0.253906 3.4503,0 4.871093,-2.840514 4.871093,-8.421874 0,-5.733571 -1.21772,-8.525391 -4.71875,-8.525391 z M 166.6875,78.09375 h 3 v 14 h -3 z m 0,21 h 3 v 14 h -3 z"
           style="color:#000000;display:inline;overflow:visible;visibility:visible;fill:#3b1c4a;fill-opacity:1;fill-rule:nonzero;stroke:none;marker:none;enable-background:accumulate"
           inkscape:connector-curvature="0" />
      </g>
      <path
         id="path4773"
         d="m 905.72113,572.73829 q -0.21728,0 -0.37607,0.15878 -0.15879,0.15879 -0.15879,0.37608 0,0.21729 0.15879,0.37608 0.15879,0.15878 0.37607,0.15878 0.21729,0 0.37608,-0.15878 0.15878,-0.15879 0.15878,-0.37608 0,-0.21729 -0.15878,-0.37608 -0.15879,-0.15878 -0.37608,-0.15878 z m -2.50716,0.53486 -4.23711,3.32617 q -0.234,0.16715 -0.20893,0.46801 0.0418,0.2925 0.2925,0.42621 l 1.06973,0.53487 q 0.10864,0.0585 0.24236,0.0585 0.14207,0 0.25907,-0.0669 l 5.76648,-3.23425 0.91929,0.55158 q 0.0669,0.0334 0.10029,0.0418 -0.117,0.4095 -0.0836,0.81065 0.0585,0.6435 0.46801,1.23269 0.4095,0.58918 1.10315,1.03211 1.10315,0.70201 2.31495,0.70201 1.13658,0 1.8553,-0.65187 0.75215,-0.702 0.66022,-1.72994 -0.0585,-0.63514 -0.468,-1.22851 -0.40951,-0.59336 -1.0948,-1.03629 -1.10315,-0.70201 -2.3233,-0.70201 -0.69365,0 -1.26194,0.25908 -0.0752,-0.10865 -0.18386,-0.18386 l -1.01958,-0.61008 1.01958,-0.61008 q 0.10864,-0.0752 0.18386,-0.18385 0.56829,0.25907 1.26194,0.25907 1.22015,0 2.3233,-0.70201 0.68529,-0.44293 1.0948,-1.03629 0.4095,-0.59336 0.468,-1.22851 0.0418,-0.49308 -0.12954,-0.94436 -0.17132,-0.4513 -0.53068,-0.77723 -0.71036,-0.66022 -1.8553,-0.66022 -1.2118,0 -2.31495,0.70201 -0.69365,0.43458 -1.10315,1.02794 -0.40951,0.59336 -0.46801,1.23686 -0.0334,0.40115 0.0836,0.81065 -0.0334,0.008 -0.10029,0.0418 l -0.91929,0.55158 -5.76648,-3.23424 q -0.117,-0.0669 -0.25907,-0.0669 -0.13372,0 -0.24236,0.0585 l -1.06973,0.53486 q -0.25071,0.13371 -0.2925,0.42622 -0.0251,0.30086 0.20893,0.468 z m 5.69126,-2.17288 q -0.38443,-0.351 -0.1755,-0.90257 0.20893,-0.55158 0.88586,-0.9778 0.76887,-0.49307 1.60459,-0.49307 0.61843,0 0.94436,0.30086 0.38444,0.351 0.17551,0.90258 -0.20893,0.55157 -0.88587,0.97779 -0.76886,0.49308 -1.60458,0.49308 -0.61844,0 -0.94437,-0.30087 z m 0.71036,6.22613 q -0.67693,-0.42622 -0.88586,-0.97779 -0.20893,-0.55158 0.1755,-0.90258 0.32593,-0.30086 0.94437,-0.30086 0.83572,0 1.60458,0.49307 0.67694,0.42622 0.88587,0.97779 0.20893,0.55158 -0.17551,0.90258 -0.32593,0.30087 -0.94436,0.30087 -0.83572,0 -1.60459,-0.49308 z m -1.48758,-5.12297 -0.80229,0.48472 v -0.0919 q 0,-0.30086 -0.27579,-0.46801 l -0.117,-0.0669 0.66022,-0.39278 0.21729,0.21728 q 0.0251,0.0251 0.0836,0.0919 0.0585,0.0669 0.10028,0.10029 0.0167,0.0167 0.0334,0.0292 0.0167,0.0125 0.0251,0.0209 z m -1.87202,1.87201 -0.80229,0.26744 -6.15091,-4.81376 1.06973,-0.53486 6.41834,3.60196 v 0.94436 l 1.33715,0.8023 -0.0752,0.0668 q -0.0167,0.0167 -0.0585,0.0502 -0.0334,0.0334 -0.0919,0.10028 -0.0585,0.0669 -0.0919,0.10029 l -0.21729,0.21729 z m -5.88347,3.4766 -1.06973,-0.53485 4.34575,-3.40975 1.47923,1.15329 q 0.0167,0.0251 0.10864,0.0585 z"
         inkscape:connector-curvature="0"
         style="fill:#c6c6c6;fill-opacity:1;stroke-width:0.00835721" />
      <path
         style="color:#000000;font-style:normal;font-variant:normal;font-weight:normal;font-stretch:normal;font-size:medium;line-height:normal;font-family:sans-serif;font-variant-ligatures:normal;font-variant-position:normal;font-variant-caps:normal;font-variant-numeric:normal;font-variant-alternates:normal;font-feature-settings:normal;text-indent:0;text-align:start;text-decoration:none;text-decoration-line:none;text-decoration-style:solid;text-decoration-color:#000000;letter-spacing:normal;word-spacing:normal;text-transform:none;writing-mode:lr-tb;direction:ltr;text-orientation:mixed;dominant-baseline:auto;baseline-shift:baseline;text-anchor:start;white-space:normal;shape-padding:0;clip-rule:nonzero;display:inline;overflow:visible;visibility:visible;opacity:1;isolation:auto;mix-blend-mode:normal;color-interpolation:sRGB;color-interpolation-filters:linearRGB;solid-color:#000000;solid-opacity:1;vector-effect:none;fill:#bebebe;fill-opacity:1;fill-rule:nonzero;stroke:none;stroke-width:1.09977293;stroke-linecap:square;stroke-linejoin:round;stroke-miterlimit:4;stroke-dasharray:none;stroke-dashoffset:0;stroke-opacity:1;marker:none;color-rendering:auto;image-rendering:auto;shape-rendering:auto;text-rendering:auto;enable-background:accumulate"
         d="m 288.76388,572.72393 c -0.30395,3.5e-4 -0.54998,0.2472 -0.54932,0.55115 V 903.7457 c -6.6e-4,0.3039 0.24537,0.5508 0.54932,0.5511 h 636.69434 c 0.30466,7e-4 0.55181,-0.2465 0.55114,-0.5511 V 573.27508 c 6.7e-4,-0.30467 -0.24648,-0.55182 -0.55114,-0.55115 h -10.16968 v 1.10047 h 9.62219 V 903.1982 H 289.31503 V 573.8244 h 607.94311 v -1.10047 z"
         id="rect4796"
         inkscape:connector-curvature="0"
         sodipodi:nodetypes="ccccccccccccccccc" />
      <path
         style="fill:none;fill-rule:evenodd;stroke:#bebebe;stroke-width:1.0629921;stroke-linecap:butt;stroke-linejoin:miter;stroke-miterlimit:4;stroke-dasharray:none;stroke-opacity:1"
         d="m 288.68198,624.52409 h 637.1129"
         id="path4798"
         inkscape:connector-curvature="0"
         sodipodi:nodetypes="cc" />
      <path
         sodipodi:nodetypes="cc"
         inkscape:connector-curvature="0"
         id="path4806"
         d="M 288.84939,867.0309 H 925.87648"
         style="fill:none;fill-rule:evenodd;stroke:#bebebe;stroke-width:1.0629921;stroke-linecap:butt;stroke-linejoin:miter;stroke-miterlimit:4;stroke-dasharray:none;stroke-opacity:1" />
      <path
         style="fill:none;fill-rule:evenodd;stroke:#bebebe;stroke-width:1.0629921;stroke-linecap:butt;stroke-linejoin:miter;stroke-miterlimit:4;stroke-dasharray:none;stroke-opacity:1"
         d="m 412.76139,867.472 v 35.8636"
         id="path4808"
         inkscape:connector-curvature="0"
         sodipodi:nodetypes="cc" />
      <path
         sodipodi:nodetypes="cc"
         inkscape:connector-curvature="0"
         id="path4810"
         d="M 696.22596,624.1956 V 867.096"
         style="fill:none;fill-rule:evenodd;stroke:#bebebe;stroke-width:1.0629921;stroke-linecap:butt;stroke-linejoin:miter;stroke-miterlimit:4;stroke-dasharray:none;stroke-opacity:1" />
      <path
         sodipodi:nodetypes="cc"
         inkscape:connector-curvature="0"
         id="path4814"
         d="M 288.84939,661.21473 H 696.29784"
         style="fill:none;fill-rule:evenodd;stroke:#bebebe;stroke-width:1.0629921;stroke-linecap:butt;stroke-linejoin:miter;stroke-miterlimit:4;stroke-dasharray:none;stroke-opacity:1" />
      <path
         style="fill:none;fill-rule:evenodd;stroke:#bebebe;stroke-width:1.0629921;stroke-linecap:butt;stroke-linejoin:miter;stroke-miterlimit:4;stroke-dasharray:none;stroke-opacity:1"
         d="M 288.84939,697.88607 H 696.41622"
         id="path4820"
         inkscape:connector-curvature="0"
         sodipodi:nodetypes="cc" />
      <path
         sodipodi:nodetypes="cc"
         inkscape:connector-curvature="0"
         id="path4824"
         d="m 589.92675,867.472 v 35.8636"
         style="fill:none;fill-rule:evenodd;stroke:#bebebe;stroke-width:1.0629921;stroke-linecap:butt;stroke-linejoin:miter;stroke-miterlimit:4;stroke-dasharray:none;stroke-opacity:1" />
      <text
         xml:space="preserve"
         style="font-style:normal;font-variant:normal;font-weight:normal;font-stretch:normal;font-size:12.71121407px;line-height:29.79190826px;font-family:'Open Sans';-inkscape-font-specification:'Open Sans';letter-spacing:0px;word-spacing:0px;fill:#000000;fill-opacity:1;stroke:none;stroke-width:1.19167638px;stroke-linecap:butt;stroke-linejoin:miter;stroke-opacity:1"
         x="545.29047"
         y="1463.337"
         id="text4872"><tspan
           sodipodi:role="line"
           id="tspan4870"
           x="545.29047"
           y="1463.337"
           style="stroke-width:1.19167638px">ticketing powered by</tspan></text>
    </g>
  </g>
</svg>
