<?xml version="1.0" encoding="UTF-8"?>
<svg id="Ebene_1" data-name="Ebene 1" xmlns="http://www.w3.org/2000/svg" viewBox="0 0 128 69.21"><path style="fill: #faf8fc;" d="M40.1,37.97c.37,2.66-.13,4.12-1.76,4.34-.3.04-.55.02-.74-.02l-1.1-7.82c.2-.09.44-.18.77-.23,1.66-.23,2.45,1.01,2.83,3.73ZM60.79,30.87c-1.36.19-1.91,1.53-1.47,3.78l3.61-1.06c-.25-2-.96-2.88-2.14-2.72ZM114.57,27.5c.74,5.26,5.45,8.94,10.65,8.51.34-.02.61.19.66.52l2.11,15.01c.05.33-.19.64-.52.69l-48.7,6.84h0l.15-.02-.34-2.42c-.08-.58-.62-.99-1.21-.91-.59.08-.99.61-.91,1.21l.34,2.42.15-.02h0L7.84,69.05c-.33.05-.64-.19-.69-.52l-2.11-15.01c-.05-.33.16-.61.49-.68,5.13-1,8.64-5.83,7.9-11.09-.74-5.26-5.45-8.97-10.66-8.54-.34.02-.61-.19-.66-.52L0,17.66c-.05-.33.19-.64.52-.69L69.49,7.28l.34,2.42c.08.58.62.99,1.21.91s.99-.62.91-1.21l-.34-2.42L120.16.16c.33-.05.64.19.69.52l2.11,15.01c.05.33-.16.61-.49.68-5.13,1-8.63,5.87-7.89,11.12ZM44.63,37.3c-.64-4.56-3.69-6.32-7.71-5.76-2.51.35-4.11,1.01-5.27,1.76l2.45,17.46,4.59-.65-.73-5.23c.35.04,1.05.04,1.87-.08,3.35-.47,5.37-3.4,4.8-7.51ZM53.46,29.28c-.46.03-.91.07-1.34.13-2.96.39-4.94,1.03-6.17,1.88l1.72,12.27,4.59-.65-1.44-10.24c.57-.3,1.39-.41,2.3-.11l.34-3.28ZM60.61,28.24c-4.08.57-5.77,3.68-5.22,7.57.55,3.9,3.19,6.45,7.45,5.85,2.42-.34,3.86-1.01,4.94-1.71l-1.42-2.67c-.67.46-1.84.97-3.38,1.18-1.66.23-2.48-.36-2.98-1.71l7.43-2.12c-.38-4.44-2.71-7.01-6.81-6.4ZM77.12,46.23c-.08-.56-.64-.99-1.21-.91-.58.08-.99.62-.91,1.21l.68,4.83c.08.58.62.99,1.21.91.58-.08.99-.62.91-1.21l-.68-4.83ZM75.65,35.77c-.08-.58-.62-.99-1.21-.91s-.99.61-.91,1.21l.68,4.83c.08.56.64.99,1.21.91.56-.08.99-.64.91-1.21l-.68-4.83ZM74.19,25.38c-.08-.56-.64-.99-1.21-.91s-.99.62-.91,1.21l.68,4.83c.08.58.62.99,1.21.91s.99-.62.91-1.21l-.68-4.83ZM72.73,14.93c-.08-.58-.62-.99-1.21-.91s-.99.61-.91,1.21l.68,4.83c.08.56.64.99,1.21.91s.99-.64.91-1.21l-.68-4.83ZM87.74,24.65l-1.87.26-.53-3.81-4.43,1.79.37,2.66-1.36.19.42,2.99,1.36-.19.87,6.22c.31,2.24,1.89,3.83,4.82,3.42,1.06-.15,1.83-.54,2.14-.76l-.39-2.81c-.35.17-.52.26-.85.3-.69.1-1.08-.22-1.21-1.18l-.82-5.83,1.87-.26h.03s-.42-3-.42-3ZM94.42,23.74l-4.59.65,1.83,12.99,4.59-.65-1.83-12.99ZM93.97,19.92c-.16-1.15-1.35-1.91-2.68-1.72-1.3.18-2.23,1.24-2.07,2.39s1.35,1.94,2.65,1.75c1.33-.19,2.25-1.27,2.09-2.42ZM110.72,34.73l-5.12-6.43,2.93-6.54-4.26.6-1.26,3.5h-.06s-2.03-3.03-2.03-3.03l-4.77.67,4.54,5.77-3.14,7.28,4.62-.65,1.22-3.84h.06s2.17,3.35,2.17,3.35l5.11-.69Z"/></svg>