<svg xmlns="http://www.w3.org/2000/svg" xml:space="preserve" width="100%" height="100%" version="1.1" viewBox="0 0 109.594 109.594"><g transform="scale(.94461)"><path d="M45.52 48.98c-.74 0-1.28.13-1.75.27v17.43c.4.13.94.27 1.61.27 3.63 0 5.18-3.03 5.18-8.95s-1.35-9.02-5.05-9.02z" fill="#3b1c4a"/><path d="M114.72 36.13c.74-.07 1.28-.61 1.28-1.35V1.35c0-.74-.61-1.35-1.35-1.35H75.99v5.38c0 1.15-.94 2.09-2.09 2.09s-2.09-.94-2.09-2.09V0H1.35C.61 0 0 .61 0 1.35v33.44c0 .74.54 1.28 1.28 1.35 11.51.67 20.66 10.23 20.66 21.94s-9.15 21.2-20.66 21.8c-.74.07-1.28.61-1.28 1.35v33.44c0 .74.61 1.35 1.35 1.35h70.48v-5.38c0-1.19.9-2.09 2.09-2.09s2.09.94 2.09 2.09v5.38h38.66c.74 0 1.35-.61 1.35-1.35V81.23c0-.74-.54-1.28-1.28-1.35-11.51-.67-20.66-10.16-20.66-21.87s9.15-21.26 20.66-21.87zM47.87 72.87c-1.82 0-3.36-.2-4.1-.4v11.64H33.54V45.22C36.3 43.94 40 43 45.58 43c8.95 0 15.07 4.78 15.07 14.94 0 9.15-5.32 14.94-12.78 14.94zm28.12 25.3c0 1.15-.94 2.09-2.09 2.09s-2.09-.94-2.09-2.09V87.4c0-1.15.94-2.09 2.09-2.09s2.09.97 2.09 2.09zm0-23.28c0 1.11-.97 2.09-2.09 2.09-1.12 0-2.09-.97-2.09-2.09V64.12c0-1.19.9-2.09 2.09-2.09s2.09.94 2.09 2.09zm0-23.15c0 1.15-.94 2.09-2.09 2.09s-2.09-.94-2.09-2.09V40.97c0-1.15.94-2.09 2.09-2.09s2.09.97 2.09 2.09zm0-23.28c0 1.11-.97 2.09-2.09 2.09-1.12 0-2.09-.97-2.09-2.09V17.69c0-1.19.9-2.09 2.09-2.09s2.09.94 2.09 2.09z" fill="#3b1c4a"/></g></svg>
