<?xml version="1.0" encoding="UTF-8"?><svg id="Ebene_1" xmlns="http://www.w3.org/2000/svg" viewBox="0 0 128 128"><defs><style>.cls-1{fill:#f8f8f8;}</style></defs><path class="cls-1" d="m50.67,56.95c-.72.1-1.22.3-1.66.5l2.38,16.91c.41.08.95.13,1.6.04,3.52-.5,4.61-3.64,3.81-9.39-.83-5.87-2.53-8.56-6.12-8.06Z"/><path class="cls-1" d="m116.04,35.05c.71-.17,1.16-.76,1.06-1.48L112.54,1.13c-.1-.72-.77-1.22-1.49-1.12l-36.25,5.09,1.39,9.89c.25,1.75-1.07,3.49-2.82,3.74-1.75.25-3.49-1.07-3.74-2.82l-1.39-9.89L1.13,15.46c-.72.1-1.22.77-1.12,1.49l4.56,32.44c.1.72.7,1.17,1.42,1.13,11.25-.92,21.43,7.1,23.03,18.46s-5.99,21.81-17.07,23.96c-.71.17-1.16.76-1.06,1.48l4.56,32.44c.1.72.77,1.22,1.49,1.12l67.12-9.43-1.41-10.02c-.25-1.81,1.01-3.48,2.82-3.74s3.49,1.07,3.74,2.82l1.41,10.02,36.25-5.09c.72-.1,1.22-.77,1.12-1.49l-4.56-32.44c-.1-.72-.7-1.17-1.42-1.13-11.25.92-21.42-7.04-23.02-18.4-1.6-11.36,5.98-21.87,17.06-24.03Zm-59.84,44.75c-1.76.25-3.29.26-4.04.17l1.59,11.29-9.92,1.39-5.3-37.73c2.5-1.62,5.96-3.03,11.38-3.8,8.68-1.22,15.27,2.58,16.66,12.44,1.25,8.88-3.12,15.21-10.36,16.23Zm30.24,8.14c.25,1.75-1.07,3.49-2.82,3.74s-3.49-1.07-3.74-2.82l-2.38-16.92c-.26-1.87.95-3.48,2.82-3.74s3.48,1.01,3.74,2.82l2.38,16.92Zm-5.11-36.37c.25,1.81-1.01,3.48-2.82,3.74s-3.48-1.01-3.74-2.82l-2.38-16.92c-.25-1.81,1.01-3.48,2.82-3.74,1.75-.25,3.49,1.07,3.74,2.82l2.38,16.92Z"/></svg>