<svg xmlns="http://www.w3.org/2000/svg" width="512" height="512" viewBox="0 0 135.467 135.467"><g transform="matrix(7.9501 0 0 7.9501 -115.332 -24.995)"><rect width="17.04" height="17.04" x="14.507" y="3.144" fill="#3b1c4a" color="#000" overflow="visible" rx="1.664" ry="1.664" style="marker:none"/><g fill="#fff"><path d="M17.702 6.339v2.13h-1.065v-2.13c0-.588.477-1.065 1.065-1.065h2.13v1.065h-2.13m10.65-1.065c.588 0 1.065.477 1.065 1.065v2.13h-1.065v-2.13h-2.13V5.274h2.13m-10.65 9.585v2.13h2.13v1.065h-2.13a1.065 1.065 0 0 1-1.065-1.065v-2.13h1.065m10.65 2.13v-2.13h1.065v2.13c0 .588-.477 1.065-1.065 1.065h-2.13v-1.065z"/><path d="M22.606 7.253c-1.563 0-2.6.256-3.367.617v10.867h2.856V15.49c.21.06.631.12 1.142.12 2.09 0 3.577-1.623 3.577-4.178 0-2.84-1.698-4.179-4.208-4.179zm-.015 1.668c1.037 0 1.398.828 1.398 2.526 0 1.653-.42 2.494-1.443 2.494a1.17 1.17 0 0 1-.451-.075v-4.87c.135-.045.286-.075.496-.075z" color="#000" overflow="visible" style="marker:none" transform="matrix(.53249 0 0 .53249 10.765 5.453)"/></g></g><path fill="none" d="M-115.332-24.995H75.47v190.802h-190.802z"/></svg>
