<?xml version="1.0" encoding="UTF-8" standalone="no"?>
<!-- Created with Inkscape (http://www.inkscape.org/) -->

<svg
   width="254.15625"
   height="109.59375"
   viewBox="0 0 254.15625 109.59375"
   version="1.1"
   id="svg5"
   sodipodi:docname="pretix-logo.svg"
   xml:space="preserve"
   inkscape:version="1.2.2 (b0a8486541, 2022-12-01)"
   xmlns:inkscape="http://www.inkscape.org/namespaces/inkscape"
   xmlns:sodipodi="http://sodipodi.sourceforge.net/DTD/sodipodi-0.dtd"
   xmlns="http://www.w3.org/2000/svg"
   xmlns:svg="http://www.w3.org/2000/svg"><sodipodi:namedview
     id="namedview1157"
     pagecolor="#ffffff"
     bordercolor="#666666"
     borderopacity="1.0"
     inkscape:showpageshadow="2"
     inkscape:pageopacity="0.0"
     inkscape:pagecheckerboard="0"
     inkscape:deskcolor="#d1d1d1"
     showgrid="false"
     inkscape:zoom="3.527796"
     inkscape:cx="127.70013"
     inkscape:cy="60.519373"
     inkscape:window-width="2556"
     inkscape:window-height="1113"
     inkscape:window-x="0"
     inkscape:window-y="306"
     inkscape:window-maximized="1"
     inkscape:current-layer="svg5" /><defs
     id="defs4"><style
       id="style3116">.cls-1{fill:#3b1c4a;}</style></defs><g
     id="g3133"
     transform="matrix(1.9855938,0,0,1.9855938,0,0.1930455)"><path
       class="cls-1"
       d="m 36.29,23.21 c -0.35,0 -0.61,0.06 -0.83,0.13 v 8.29 c 0.19,0.06 0.45,0.13 0.77,0.13 1.73,0 2.46,-1.44 2.46,-4.26 0,-2.82 -0.64,-4.29 -2.4,-4.29 z"
       id="path3120" /><path
       class="cls-1"
       d="m 61.22,23.15 c -1.44,0 -2.21,1.31 -2.08,3.71 l 3.9,-0.58 c 0.03,-2.11 -0.58,-3.14 -1.82,-3.14 z"
       id="path3122" /><path
       class="cls-1"
       d="M 127.39,17.1 C 127.74,17.07 128,16.81 128,16.46 V 0.64 C 128,0.29 127.71,0 127.36,0 H 75.81 v 2.48 c 0,0.55 -0.45,0.99 -0.99,0.99 -0.54,0 -0.99,-0.45 -0.99,-0.99 V 0 H 0.64 C 0.29,0 0,0.29 0,0.64 v 15.82 c 0,0.35 0.26,0.61 0.61,0.64 5.47,0.32 9.82,4.86 9.82,10.43 0,5.57 -4.35,10.08 -9.82,10.37 C 0.26,37.93 0,38.19 0,38.54 V 54.36 C 0,54.71 0.29,55 0.64,55 h 73.22 -0.03 v -2.48 c 0,-0.57 0.43,-0.99 0.99,-0.99 0.56,0 0.99,0.45 0.99,0.99 V 55 h -0.03 51.58 c 0.35,0 0.64,-0.29 0.64,-0.64 V 38.54 c 0,-0.35 -0.26,-0.61 -0.61,-0.64 -5.47,-0.32 -9.82,-4.83 -9.82,-10.4 0,-5.57 4.35,-10.11 9.82,-10.4 z M 37.41,34.57 c -0.86,0 -1.6,-0.1 -1.95,-0.19 v 5.54 H 30.6 v -18.5 c 1.31,-0.61 3.07,-1.06 5.73,-1.06 4.26,0 7.17,2.27 7.17,7.1 0,4.35 -2.53,7.1 -6.08,7.1 z M 52.99,23.79 c -0.9,-0.45 -1.76,-0.45 -2.4,-0.22 V 34.42 H 45.73 V 21.43 c 1.41,-0.7 3.55,-1.09 6.69,-1.06 0.45,0 0.93,0.03 1.41,0.06 L 53,23.79 Z m 14.56,4.26 -8.03,1.12 c 0.32,1.47 1.09,2.21 2.85,2.21 1.63,0 2.91,-0.35 3.68,-0.74 l 1.09,2.98 c -1.22,0.58 -2.82,1.06 -5.38,1.06 -4.51,0 -6.88,-3.04 -6.88,-7.17 0,-4.13 2.21,-7.1 6.53,-7.1 4.35,-0.03 6.4,2.98 6.14,7.65 z m 8.26,18.56 c 0,0.55 -0.45,0.99 -0.99,0.99 -0.54,0 -0.99,-0.45 -0.99,-0.99 v -5.12 c 0,-0.55 0.45,-0.99 0.99,-0.99 0.54,0 0.99,0.46 0.99,0.99 z m 0,-11.07 c 0,0.53 -0.46,0.99 -0.99,0.99 -0.53,0 -0.99,-0.46 -0.99,-0.99 v -5.12 c 0,-0.57 0.43,-0.99 0.99,-0.99 0.56,0 0.99,0.45 0.99,0.99 z m 0,-11.01 c 0,0.55 -0.45,0.99 -0.99,0.99 -0.54,0 -0.99,-0.45 -0.99,-0.99 v -5.12 c 0,-0.55 0.45,-0.99 0.99,-0.99 0.54,0 0.99,0.46 0.99,0.99 z m 0,-11.07 c 0,0.53 -0.46,0.99 -0.99,0.99 -0.53,0 -0.99,-0.46 -0.99,-0.99 V 8.34 c 0,-0.57 0.43,-0.99 0.99,-0.99 0.56,0 0.99,0.45 0.99,0.99 z m 14.3,10.34 h -2.02 v 6.18 c 0,1.02 0.35,1.41 1.09,1.41 0.35,0 0.54,-0.06 0.93,-0.19 v 2.98 c -0.35,0.19 -1.22,0.48 -2.34,0.48 -3.1,0 -4.51,-1.89 -4.51,-4.26 v -6.59 h -1.44 v -3.17 h 1.44 v -2.82 l 4.86,-1.22 v 4.03 h 1.98 v 3.17 z m 7.07,10.62 H 92.32 V 20.66 h 4.86 z M 94.75,18.84 c -1.38,0 -2.5,-0.99 -2.5,-2.21 0,-1.22 1.12,-2.18 2.5,-2.18 1.38,0 2.53,0.96 2.53,2.18 0,1.22 -1.12,2.21 -2.53,2.21 z m 12.35,15.58 -1.76,-3.81 h -0.06 l -1.82,3.81 h -4.9 l 4.32,-7.1 -3.87,-6.66 h 5.06 l 1.66,3.46 h 0.06 l 1.82,-3.46 h 4.51 l -4,6.37 4.38,7.42 -5.41,-0.03 z"
       id="path3124" /></g></svg>
