<?xml version="1.0" encoding="UTF-8" standalone="no"?>
<svg
   id="Ebene_1"
   viewBox="0 0 128 128"
   version="1.1"
   sodipodi:docname="pretix-icon-white-on-purple.svg"
   inkscape:version="1.4.2 (ebf0e940d0, 2025-05-08)"
   xml:space="preserve"
   xmlns:inkscape="http://www.inkscape.org/namespaces/inkscape"
   xmlns:sodipodi="http://sodipodi.sourceforge.net/DTD/sodipodi-0.dtd"
   xmlns="http://www.w3.org/2000/svg"
   xmlns:svg="http://www.w3.org/2000/svg"><sodipodi:namedview
     id="namedview2"
     pagecolor="#ffffff"
     bordercolor="#666666"
     borderopacity="1.0"
     inkscape:showpageshadow="2"
     inkscape:pageopacity="0.0"
     inkscape:pagecheckerboard="0"
     inkscape:deskcolor="#d1d1d1"
     inkscape:zoom="4.125"
     inkscape:cx="101.69697"
     inkscape:cy="80.727273"
     inkscape:window-width="2556"
     inkscape:window-height="1275"
     inkscape:window-x="0"
     inkscape:window-y="144"
     inkscape:window-maximized="1"
     inkscape:current-layer="Ebene_1" /><defs
     id="defs1"><style
       id="style1">.cls-1{fill:#f8f8f8;}</style><style
       id="style1-9">.cls-1{fill:#492267;}</style></defs><rect
     style="fill:#492267;stroke-width:1.1;stroke-linecap:round;stroke-linejoin:round;stroke-miterlimit:13.3;paint-order:fill markers stroke;fill-opacity:1"
     id="rect2"
     width="128"
     height="128"
     x="0"
     y="0" /><path
     class="cls-1"
     d="M 53.800397,58.604437 C 53.249481,58.680953 52.8669,58.833985 52.530229,58.987018 L 54.351313,71.925899 C 54.665029,71.987112 55.078217,72.02537 55.575572,71.956506 58.26894,71.573925 59.102966,69.171318 58.490837,64.771639 57.855753,60.280141 56.554978,58.221856 53.808048,58.604437 Z"
     id="path1"
     style="stroke-width:0.765162" /><g
     id="g2"
     transform="matrix(0.76558824,0,0,0.76558824,15.00618,15.00618)"
     style="fill:#f8f8f8;fill-opacity:1"><path
       class="cls-1"
       d="M 50.67,56.95 C 49.95,57.05 49.45,57.25 49.01,57.45 L 51.39,74.36 C 51.8,74.44 52.34,74.49 52.99,74.4 56.51,73.9 57.6,70.76 56.8,65.01 55.97,59.14 54.27,56.45 50.68,56.95 Z"
       id="path1-3"
       style="fill:#f8f8f8;fill-opacity:1" /><path
       class="cls-1"
       d="M 116.04,35.05 C 116.75,34.88 117.2,34.29 117.1,33.57 L 112.54,1.13 C 112.44,0.41 111.77,-0.09 111.05,0.01 L 73.55,5.28 74.28,10.5 C 74.44,11.62 73.66,12.65 72.54,12.81 71.42,12.97 70.39,12.19 70.23,11.07 L 69.5,5.85 1.13,15.46 C 0.41,15.56 -0.09,16.23 0.01,16.95 L 4.57,49.39 C 4.67,50.11 5.27,50.56 5.99,50.52 17.24,49.6 27.42,57.62 29.02,68.98 30.62,80.34 23.03,90.79 11.95,92.94 11.24,93.11 10.79,93.7 10.89,94.42 L 15.45,126.86 C 15.55,127.58 16.22,128.08 16.94,127.98 L 85.31,118.37 84.58,113.15 C 84.42,112 85.17,111 86.32,110.84 87.47,110.68 88.47,111.46 88.63,112.58 L 89.36,117.8 126.86,112.53 C 127.58,112.43 128.08,111.76 127.98,111.04 L 123.42,78.6 C 123.32,77.88 122.72,77.43 122,77.47 110.75,78.39 100.58,70.43 98.98,59.07 97.38,47.71 104.96,37.2 116.04,35.04 Z M 56.2,79.8 C 54.44,80.05 52.91,80.06 52.16,79.97 L 53.75,91.26 43.83,92.65 38.53,54.92 C 41.03,53.3 44.49,51.89 49.91,51.12 58.59,49.9 65.18,53.7 66.57,63.56 67.82,72.44 63.45,78.77 56.21,79.79 Z M 86.93,100.51 C 87.09,101.63 86.31,102.66 85.19,102.82 84.07,102.98 83.04,102.2 82.88,101.08 L 81.41,90.64 C 81.25,89.52 82.03,88.49 83.15,88.33 84.27,88.17 85.31,88.99 85.46,90.07 Z M 83.76,77.93 C 83.91,79.01 83.1,80.09 82.02,80.24 80.94,80.39 79.86,79.58 79.71,78.5 L 78.24,68.06 C 78.08,66.91 78.83,65.91 79.98,65.75 81.1,65.59 82.13,66.37 82.29,67.49 Z M 80.6,55.48 C 80.76,56.6 79.98,57.63 78.86,57.79 77.74,57.95 76.71,57.17 76.55,56.05 L 75.08,45.61 C 74.92,44.49 75.7,43.46 76.82,43.3 77.94,43.14 78.98,43.96 79.13,45.04 Z M 77.43,32.9 C 77.58,33.98 76.77,35.06 75.69,35.21 74.61,35.36 73.53,34.55 73.38,33.47 L 71.91,23.03 C 71.75,21.88 72.5,20.88 73.65,20.72 74.8,20.56 75.8,21.34 75.96,22.46 Z"
       id="path2-6"
       style="fill:#f8f8f8;fill-opacity:1" /></g></svg>
