<svg xmlns="http://www.w3.org/2000/svg" xml:space="preserve" width="254.156" height="109.594" version="1.1"><g transform="matrix(1.9856 0 0 1.9856 0 .193)"><path d="M36.29 23.21c-.35 0-.61.06-.83.13v8.29c.19.06.45.13.77.13 1.73 0 2.46-1.44 2.46-4.26s-.64-4.29-2.4-4.29z" fill="#3b1c4a"/><path d="M61.22 23.15c-1.44 0-2.21 1.31-2.08 3.71l3.9-.58c.03-2.11-.58-3.14-1.82-3.14z" fill="#3b1c4a"/><path d="M127.39 17.1c.35-.03.61-.29.61-.64V.64c0-.35-.29-.64-.64-.64H75.81v2.48c0 .55-.45.99-.99.99s-.99-.45-.99-.99V0H.64C.29 0 0 .29 0 .64v15.82c0 .35.26.61.61.64 5.47.32 9.82 4.86 9.82 10.43 0 5.57-4.35 10.08-9.82 10.37-.35.03-.61.29-.61.64v15.82c0 .35.29.64.64.64h73.22-.03v-2.48c0-.57.43-.99.99-.99s.99.45.99.99V55h-.03 51.58c.35 0 .64-.29.64-.64V38.54c0-.35-.26-.61-.61-.64-5.47-.32-9.82-4.83-9.82-10.4s4.35-10.11 9.82-10.4zM37.41 34.57c-.86 0-1.6-.1-1.95-.19v5.54H30.6v-18.5c1.31-.61 3.07-1.06 5.73-1.06 4.26 0 7.17 2.27 7.17 7.1 0 4.35-2.53 7.1-6.08 7.1zm15.58-10.78c-.9-.45-1.76-.45-2.4-.22v10.85h-4.86V21.43c1.41-.7 3.55-1.09 6.69-1.06.45 0 .93.03 1.41.06L53 23.79Zm14.56 4.26-8.03 1.12c.32 1.47 1.09 2.21 2.85 2.21 1.63 0 2.91-.35 3.68-.74l1.09 2.98c-1.22.58-2.82 1.06-5.38 1.06-4.51 0-6.88-3.04-6.88-7.17s2.21-7.1 6.53-7.1c4.35-.03 6.4 2.98 6.14 7.65zm8.26 18.56c0 .55-.45.99-.99.99s-.99-.45-.99-.99v-5.12c0-.55.45-.99.99-.99s.99.46.99.99zm0-11.07c0 .53-.46.99-.99.99s-.99-.46-.99-.99v-5.12c0-.57.43-.99.99-.99s.99.45.99.99zm0-11.01c0 .55-.45.99-.99.99s-.99-.45-.99-.99v-5.12c0-.55.45-.99.99-.99s.99.46.99.99zm0-11.07c0 .53-.46.99-.99.99s-.99-.46-.99-.99V8.34c0-.57.43-.99.99-.99s.99.45.99.99zm14.3 10.34h-2.02v6.18c0 1.02.35 1.41 1.09 1.41.35 0 .54-.06.93-.19v2.98c-.35.19-1.22.48-2.34.48-3.1 0-4.51-1.89-4.51-4.26v-6.59h-1.44v-3.17h1.44v-2.82l4.86-1.22v4.03h1.98v3.17zm7.07 10.62h-4.86V20.66h4.86zm-2.43-15.58c-1.38 0-2.5-.99-2.5-2.21s1.12-2.18 2.5-2.18 2.53.96 2.53 2.18c0 1.22-1.12 2.21-2.53 2.21zm12.35 15.58-1.76-3.81h-.06l-1.82 3.81h-4.9l4.32-7.1-3.87-6.66h5.06l1.66 3.46h.06l1.82-3.46h4.51l-4 6.37 4.38 7.42-5.41-.03z" fill="#3b1c4a"/></g></svg>
