<?xml version="1.0" encoding="UTF-8"?><svg id="Ebene_1" xmlns="http://www.w3.org/2000/svg" viewBox="0 0 128 70"><defs><style>.cls-1{fill:#492267;}</style></defs><path class="cls-1" d="m37.27,34.63c-.33.05-.57.14-.77.23l1.1,7.82c.19.03.44.06.74.02,1.63-.23,2.14-1.69,1.76-4.34-.38-2.72-1.17-3.96-2.83-3.73Z"/><path class="cls-1" d="m60.79,31.26c-1.36.19-1.91,1.53-1.47,3.78l3.61-1.06c-.25-2-.96-2.88-2.14-2.72Z"/><path class="cls-1" d="m122.47,16.77c.33-.08.54-.35.49-.68l-2.11-15.01c-.05-.33-.36-.57-.69-.52l-48.67,6.84.34,2.42c.07.52-.29,1-.8,1.07s-1-.29-1.07-.8l-.34-2.42L.53,17.37c-.33.05-.57.36-.52.69l2.11,15.01c.05.33.32.54.66.52,5.21-.42,9.92,3.29,10.66,8.54.74,5.26-2.77,10.09-7.9,11.09-.33.08-.54.35-.49.68l2.11,15.01c.05.33.36.57.69.52l69.12-9.71h-.03s-.34-2.41-.34-2.41c-.08-.53.27-.99.8-1.07s1,.29,1.07.8l.34,2.42h-.03s48.7-6.84,48.7-6.84c.33-.05.57-.36.52-.69l-2.11-15.01c-.05-.33-.32-.54-.66-.52-5.21.42-9.92-3.26-10.65-8.51-.74-5.26,2.77-10.12,7.89-11.12Zm-82.63,28.43c-.82.11-1.52.12-1.87.08l.73,5.23-4.59.65-2.45-17.46c1.16-.75,2.76-1.4,5.27-1.76,4.02-.56,7.07,1.19,7.71,5.76.58,4.11-1.44,7.04-4.8,7.51Zm13.28-12.25c-.91-.3-1.72-.19-2.3.11l1.44,10.24-4.59.65-1.72-12.27c1.24-.85,3.21-1.5,6.17-1.88.42-.06.88-.09,1.34-.13l-.34,3.28Zm14.31,2.09l-7.43,2.12c.5,1.35,1.32,1.94,2.98,1.71,1.54-.22,2.7-.72,3.38-1.18l1.42,2.67c-1.07.71-2.52,1.37-4.94,1.71-4.26.6-6.9-1.96-7.45-5.85-.55-3.9,1.14-7,5.22-7.57,4.1-.61,6.44,1.96,6.81,6.4Zm10.26,16.43c.07.52-.29,1-.8,1.07s-1-.29-1.07-.8l-.68-4.83c-.07-.52.29-1,.8-1.07s1,.31,1.07.8l.68,4.83Zm-1.47-10.45c.07.5-.31,1-.8,1.07s-1-.31-1.07-.8l-.68-4.83c-.08-.53.27-.99.8-1.07s1,.29,1.07.8l.68,4.83Zm-1.46-10.39c.07.52-.29,1-.8,1.07s-1-.29-1.07-.8l-.68-4.83c-.07-.52.29-1,.8-1.07s1,.31,1.07.8l.68,4.83Zm-1.47-10.45c.07.5-.31,1-.8,1.07s-1-.31-1.07-.8l-.68-4.83c-.08-.53.27-.99.8-1.07s1,.29,1.07.8l.68,4.83Zm14.88,7.86h-.03s-1.87.27-1.87.27l.82,5.83c.14.97.52,1.28,1.21,1.18.33-.05.51-.13.85-.3l.39,2.81c-.31.23-1.08.61-2.14.76-2.93.41-4.51-1.18-4.82-3.42l-.87-6.22-1.36.19-.42-2.99,1.36-.19-.37-2.66,4.43-1.79.53,3.81,1.87-.26.42,2.99Zm8.09,9.09l-4.59.65-1.83-12.99,4.59-.65,1.83,12.99Zm-4.36-14.39c-1.3.18-2.49-.61-2.65-1.75-.16-1.15.77-2.2,2.07-2.39s2.51.57,2.68,1.72-.76,2.23-2.09,2.42Zm13.73,13.07l-2.17-3.36h-.06s-1.22,3.85-1.22,3.85l-4.62.65,3.14-7.28-4.54-5.77,4.77-.67,2.03,3.04h.06s1.26-3.51,1.26-3.51l4.26-.6-2.93,6.54,5.12,6.43-5.11.69Z"/></svg>