<?xml version="1.0" encoding="UTF-8" standalone="no"?>
<!-- Created with Inkscape (http://www.inkscape.org/) -->

<svg
   width="100%"
   height="100%"
   viewBox="0 0 109.594 109.594"
   version="1.1"
   id="svg1032"
   sodipodi:docname="pretix-icon.svg"
   xml:space="preserve"
   inkscape:version="1.2.2 (b0a8486541, 2022-12-01)"
   xmlns:inkscape="http://www.inkscape.org/namespaces/inkscape"
   xmlns:sodipodi="http://sodipodi.sourceforge.net/DTD/sodipodi-0.dtd"
   xmlns="http://www.w3.org/2000/svg"
   xmlns:svg="http://www.w3.org/2000/svg"><sodipodi:namedview
   id="namedview1034"
   pagecolor="#ffffff"
   bordercolor="#666666"
   borderopacity="1.0"
   inkscape:showpageshadow="2"
   inkscape:pageopacity="0.0"
   inkscape:pagecheckerboard="0"
   inkscape:deskcolor="#d1d1d1"
   showgrid="false"
   inkscape:zoom="4.8040951"
   inkscape:cx="46.314653"
   inkscape:cy="53.80826"
   inkscape:window-width="2556"
   inkscape:window-height="1131"
   inkscape:window-x="0"
   inkscape:window-y="288"
   inkscape:window-maximized="1"
   inkscape:current-layer="svg1032" />
   id=&quot;svg2&quot;
   version=&quot;1.1&quot;&gt;
  <defs
   id="defs4"><style
     id="style3280">.cls-1{fill:#3b1c4a;}</style></defs><g
   id="g3294"
   transform="scale(0.944613)"><path
     class="cls-1"
     d="m 45.52,48.98 c -0.74,0 -1.28,0.13 -1.75,0.27 v 17.43 c 0.4,0.13 0.94,0.27 1.61,0.27 3.63,0 5.18,-3.03 5.18,-8.95 0,-5.92 -1.35,-9.02 -5.05,-9.02 z"
     id="path3284" /><path
     class="cls-1"
     d="M 114.72,36.13 C 115.46,36.06 116,35.52 116,34.78 V 1.35 C 116,0.61 115.39,0 114.65,0 H 75.99 v 5.38 c 0,1.15 -0.94,2.09 -2.09,2.09 -1.15,0 -2.09,-0.94 -2.09,-2.09 V 0 H 1.35 C 0.61,0 0,0.61 0,1.35 v 33.44 c 0,0.74 0.54,1.28 1.28,1.35 11.51,0.67 20.66,10.23 20.66,21.94 0,11.71 -9.15,21.2 -20.66,21.8 C 0.54,79.95 0,80.49 0,81.23 v 33.44 c 0,0.74 0.61,1.35 1.35,1.35 h 70.48 v -5.38 c 0,-1.19 0.9,-2.09 2.09,-2.09 1.19,0 2.09,0.94 2.09,2.09 v 5.38 h 38.66 c 0.74,0 1.35,-0.61 1.35,-1.35 V 81.23 c 0,-0.74 -0.54,-1.28 -1.28,-1.35 -11.51,-0.67 -20.66,-10.16 -20.66,-21.87 0,-11.71 9.15,-21.26 20.66,-21.87 z M 47.87,72.87 c -1.82,0 -3.36,-0.2 -4.1,-0.4 V 84.11 H 33.54 V 45.22 C 36.3,43.94 40,43 45.58,43 c 8.95,0 15.07,4.78 15.07,14.94 0,9.15 -5.32,14.94 -12.78,14.94 z m 28.12,25.3 c 0,1.15 -0.94,2.09 -2.09,2.09 -1.15,0 -2.09,-0.94 -2.09,-2.09 V 87.4 c 0,-1.15 0.94,-2.09 2.09,-2.09 1.15,0 2.09,0.97 2.09,2.09 z m 0,-23.28 c 0,1.11 -0.97,2.09 -2.09,2.09 -1.12,0 -2.09,-0.97 -2.09,-2.09 V 64.12 c 0,-1.19 0.9,-2.09 2.09,-2.09 1.19,0 2.09,0.94 2.09,2.09 z m 0,-23.15 c 0,1.15 -0.94,2.09 -2.09,2.09 -1.15,0 -2.09,-0.94 -2.09,-2.09 V 40.97 c 0,-1.15 0.94,-2.09 2.09,-2.09 1.15,0 2.09,0.97 2.09,2.09 z m 0,-23.28 c 0,1.11 -0.97,2.09 -2.09,2.09 -1.12,0 -2.09,-0.97 -2.09,-2.09 V 17.69 c 0,-1.19 0.9,-2.09 2.09,-2.09 1.19,0 2.09,0.94 2.09,2.09 z"
     id="path3286" /></g></svg>
