<svg width="124" height="100" fill="none" xmlns="http://www.w3.org/2000/svg"><path fill-rule="evenodd" clip-rule="evenodd" d="m123.134 12.925.766 2.29a.552.552 0 0 1-.096.522l-2.22 2.711a.555.555 0 0 1-.341.195l-1.699.266.27 1.504 1.166.567-1.705 1.738-1.135.25-1.705 3.555a.547.547 0 0 1-.301.276l-3.782 1.442 2.228 4.656a.55.55 0 0 1-.085.604l-11.801 13.268 1.364 4.372a.553.553 0 0 1-.365.69l-.768.232 17.885 13.18a.547.547 0 0 1 .22.407.545.545 0 0 1-.164.432l-17.461 16.927a.545.545 0 0 1-.631.095l-4.904-2.497a.55.55 0 0 1-.193-.816l9.407-12.687-8.982-4.14-.307 9.708a.537.537 0 0 1-.05.214l-8.112 17.395a.55.55 0 0 1-.485.318l-6.227.15h-.014a.55.55 0 0 1-.52-.728l5.898-17.246-2.393-16.401-3.085-4.772a.552.552 0 0 1-.064-.463l1.314-4.21-1.24-1.78a.552.552 0 0 1 .009-.641l5-6.78-3.975-4.407a.549.549 0 0 1-.064-.65l.843-1.409.557-2.395a.547.547 0 0 1 .177-.292l.176-.15c-.003-.012-.007-.022-.011-.032a.213.213 0 0 1-.016-.056l-.337-2.79a.639.639 0 0 1 0-.13l.58-4.96a.541.541 0 0 1 .595-.484l5.197.46a.55.55 0 0 1 .461.343l1.028 2.566 2.674-5.256-1.999-4.51-1.464 4.34a.554.554 0 0 1-.62.365l-4.86-.9a.553.553 0 0 1-.435-.665l3.51-15.121a.543.543 0 0 1 .281-.364l2.25-1.17a.552.552 0 0 1 .662.12l12.627 14.01 1.688-3.03c.056-.1.142-.18.246-.23l8.109-3.812a.548.548 0 0 1 .73.26l1.674 3.504.768-.057a.544.544 0 0 1 .274.05l3.692 1.726a.55.55 0 0 1 .29.323Zm-7.456-4.58-7.453 3.505-1.082 1.944 4.582-2.391a.556.556 0 0 1 .213-.06l1.527-.115c.007 0 .014 0 .021-.002a.186.186 0 0 1 .021-.001l3.427-.255-1.256-2.624Zm-11.314 6.062.017.005s-.034-.024-.027-.008c.004 0 .007.002.01.003Zm-13.25 7.092-4.328-.384-.512 4.365.252 2.094 1.323-1.134a.55.55 0 0 1 .358-.133h.817l.644-1.175a.551.551 0 0 1 .895-.1l1.716 1.95.148-.278v-1.925l-1.314-3.28Zm-5.497 10.253-.678 1.133 3.565 3.953 3.336-3.91v-4.78l-1.585-1.802-.488.89 1.052 1.428a.551.551 0 0 1-.522.88.551.551 0 0 1-.362-.227l-1.26-1.71c-.037-.051-.051-.11-.066-.17l-.007-.03h-.19l-2.196 1.883-.535 2.303a.536.536 0 0 1-.064.159Zm3.332 6.303 1.885 1.653 3.268-3.876-1.698-1.868-3.455 4.091Zm6.39-3.07.012.03 8.784-10.599.469-1.78a.551.551 0 0 1 .244-.328l.959-.59-.827-2.574-9.64 15.842Zm8.545-2.072-.362 1.897 2.083-.268-1.721-1.63Zm1.089-7.758-6.985 10.528 10.348-9.72-1.778-1.195-1.585.387Zm10.117-3.3 2.025.709.008-.013-.372-2.921-1.802-.36-1.976.984-2.702-1.344-.384-2.071-.345-.126-1.469 1.96.516 2.18h.001l.639 2.7v.001l.481 2.037 1.998 1.718 3.831-1.458.088-.184-3.33-1.485a.542.542 0 0 1-.306-.303.552.552 0 0 1 .134-.61.553.553 0 0 1 .618-.09l3.36 1.497.534-1.116-1.91-.669a.556.556 0 0 1-.389-.49.54.54 0 0 1 .03-.217.54.54 0 0 1 .291-.319.544.544 0 0 1 .431-.01Zm-4.565-6.454-.271.36 8.335 4.058-.208-1.164c-.001-.007-.005-.012-.006-.019l-.023-.15-.497-2.769-2.548-1.692-.507-.293-4.275 1.669Zm8.945 2.408 1.397-.218 1.896-2.314-.596-1.779-3.349-1.566-3.316.247 3.666 1.851a.546.546 0 0 1 .302.49v3.29Zm-5.819 8.359a.538.538 0 0 1-.097.192c-.107.138-1.745-.978-1.558-1.217a.54.54 0 0 1 .366-.207.554.554 0 0 1 .405.112l.692.54a.554.554 0 0 1 .192.58ZM95.09 94.663l5.112 1.548a.555.555 0 0 1 .393.535l-.034 2.1a.553.553 0 0 1-.518.54l-10.416.613-.032.001a.551.551 0 0 1-.424-.2l-1.413-1.714-.594 1.027a.55.55 0 0 1-.445.272l-5.139.282a.55.55 0 0 1-.579-.584l.367-5.682a.55.55 0 0 1 .66-.502l6.446 1.334-.778-2.333a.544.544 0 0 1 .075-.493.546.546 0 0 1 .442-.23l3.388-.02c.141-.018.302.062.406.176l3.083 3.33Zm10.862-8.333.417 2.68 4.077 3.469a.555.555 0 0 1 .173.564l-.541 1.98a.56.56 0 0 1-.288.345.558.558 0 0 1-.45.018l-9.45-3.87a.55.55 0 0 1-.332-.4l-.502-2.49-.944.889a.55.55 0 0 1-.648.077l-4.749-2.698a.549.549 0 0 1-.186-.782l2.882-4.32a.55.55 0 0 1 .377-.24.577.577 0 0 1 .43.12l4.312 3.557.099-1.286a.547.547 0 0 1 .822-.434l4.231 2.43a.546.546 0 0 1 .27.391Z" fill="#fff" fill-opacity=".9"/><path d="M17.917 97.222C23.102 99.074 29.027 100 35.694 100c6.297 0 12.019-1.157 17.167-3.472 5.13-2.315 9.269-5.556 12.417-9.722C68.426 82.639 70 77.778 70 72.222c0-4.815-.74-8.842-2.222-12.083-1.482-3.24-3.611-5.954-6.39-8.139-2.777-2.167-6.175-3.944-10.194-5.333-4.037-1.39-8.601-2.64-13.694-3.75-4.167-1.019-7.87-2.158-11.111-3.417-3.24-1.24-5.769-2.88-7.583-4.917-1.797-2.037-2.695-4.63-2.695-7.777 0-2.686.787-5.028 2.361-7.028 1.574-1.982 3.843-3.556 6.806-4.722 2.963-1.149 6.528-1.723 10.694-1.723 2.593 0 5.297.417 8.111 1.25a49.16 49.16 0 0 1 8 3.111c2.5 1.26 4.491 2.676 5.973 4.25.925.741 2.037 1.112 3.333 1.112 1.76 0 3.315-.723 4.667-2.167 1.333-1.426 2-2.972 2-4.639 0-2.222-1.111-4.306-3.334-6.25-3.148-3.056-7.268-5.481-12.36-7.278C47.268.907 41.805 0 35.971 0c-6.389 0-12.13 1.111-17.222 3.333-5.093 2.223-9.12 5.37-12.083 9.445-2.963 4.074-4.445 8.935-4.445 14.583 0 4.167.695 7.824 2.084 10.972a22.88 22.88 0 0 0 5.972 8.111c2.592 2.278 5.722 4.158 9.389 5.64 3.648 1.48 7.787 2.638 12.416 3.472 5 1.018 9.287 2.24 12.861 3.666 3.556 1.445 6.287 3.25 8.195 5.417 1.889 2.185 2.833 4.944 2.833 8.278 0 2.685-.926 5.046-2.778 7.083-1.851 2.037-4.324 3.657-7.416 4.861-3.111 1.204-6.519 1.806-10.222 1.806-5.186 0-9.695-.834-13.528-2.5-3.852-1.667-7.537-4.12-11.056-7.361-1.296-1.019-2.685-1.528-4.166-1.528-1.945 0-3.565.694-4.862 2.083C.648 78.75 0 80.324 0 82.083c0 1.111.26 2.195.778 3.25.5 1.074 1.259 1.982 2.278 2.723 4.722 4.259 9.675 7.314 14.86 9.166Z" fill="#fff" fill-opacity=".9"/></svg>