<svg xmlns="http://www.w3.org/2000/svg" width="995" height="150" fill="none"><path fill="#F5654B" d="M114.333 112.778c4.148 1.481 8.889 2.222 14.223 2.222 5.037 0 9.614-.926 13.733-2.778 4.104-1.852 7.415-4.444 9.933-7.778 2.519-3.333 3.778-7.222 3.778-11.666 0-3.852-.593-7.074-1.778-9.667a17.33 17.33 0 0 0-5.111-6.511c-2.222-1.733-4.941-3.156-8.155-4.267-3.23-1.11-6.882-2.11-10.956-3-3.333-.814-6.296-1.726-8.889-2.733-2.592-.993-4.615-2.304-6.067-3.933-1.437-1.63-2.155-3.704-2.155-6.223 0-2.148.63-4.022 1.889-5.622 1.259-1.585 3.074-2.844 5.444-3.778 2.371-.918 5.222-1.377 8.556-1.377 2.074 0 4.237.333 6.489 1 2.266.666 4.4 1.496 6.4 2.489 2 1.007 3.592 2.14 4.777 3.4.741.592 1.63.888 2.667.888 1.408 0 2.652-.577 3.733-1.733 1.067-1.14 1.6-2.378 1.6-3.711 0-1.778-.888-3.444-2.666-5-2.519-2.444-5.815-4.385-9.889-5.822-4.074-1.452-8.445-2.178-13.111-2.178-5.111 0-9.704.889-13.778 2.667-4.074 1.777-7.296 4.296-9.667 7.555-2.37 3.26-3.555 7.148-3.555 11.667 0 3.333.555 6.26 1.666 8.778a18.319 18.319 0 0 0 4.778 6.489c2.074 1.822 4.578 3.325 7.511 4.51 2.919 1.186 6.23 2.112 9.934 2.778 4 .815 7.429 1.793 10.289 2.934 2.844 1.155 5.029 2.6 6.555 4.333 1.511 1.748 2.267 3.956 2.267 6.622 0 2.148-.741 4.037-2.222 5.667-1.482 1.63-3.46 2.926-5.934 3.889-2.489.963-5.215 1.444-8.178 1.444-4.148 0-7.755-.666-10.822-2-3.081-1.333-6.029-3.296-8.844-5.889-1.037-.814-2.148-1.222-3.334-1.222-1.555 0-2.851.556-3.888 1.667S100 99.259 100 100.667c0 .889.207 1.755.622 2.6.4.859 1.008 1.585 1.822 2.177 3.778 3.408 7.741 5.852 11.889 7.334Z"/><path fill="#F5654B" fill-rule="evenodd" d="M237.778 90.711c1.852-4.844 2.778-10.081 2.778-15.711 0-5.63-.926-10.874-2.778-15.733-1.852-4.845-4.467-9.082-7.845-12.711-3.363-3.63-7.34-6.467-11.933-8.512-4.593-2.03-9.63-3.044-15.111-3.044-5.408 0-10.408 1.015-15 3.044-4.593 2.045-8.578 4.882-11.956 8.512-3.363 3.63-5.955 7.866-7.777 12.71-1.808 4.86-2.712 10.104-2.712 15.734 0 5.63.904 10.867 2.712 15.711 1.822 4.86 4.414 9.104 7.777 12.733 3.378 3.63 7.363 6.46 11.956 8.489 4.592 2.045 9.592 3.067 15 3.067 5.481 0 10.518-1.022 15.111-3.067 4.593-2.029 8.57-4.859 11.933-8.489 3.378-3.63 5.993-7.874 7.845-12.733Zm-12.511-30.489c2.192 4.37 3.289 9.297 3.289 14.778s-1.097 10.407-3.289 14.778c-2.178 4.37-5.193 7.815-9.045 10.333-3.852 2.519-8.296 3.778-13.333 3.778-4.963 0-9.37-1.259-13.222-3.778-3.852-2.518-6.852-5.963-9-10.333-2.148-4.37-3.223-9.297-3.223-14.778 0-5.556 1.075-10.504 3.223-14.844 2.148-4.326 5.148-7.749 9-10.267 3.852-2.519 8.259-3.778 13.222-3.778 5.037 0 9.481 1.26 13.333 3.778 3.852 2.518 6.867 5.963 9.045 10.333Z" clip-rule="evenodd"/><path fill="#F5654B" d="M312.267 44.333c-.252-1.703-1.193-2.963-2.823-3.777-2.888-1.63-6.022-2.89-9.4-3.778a40.43 40.43 0 0 0-10.377-1.334c-5.704 0-10.963.978-15.778 2.934-4.815 1.97-9.022 4.71-12.622 8.222-3.6 3.526-6.378 7.711-8.334 12.556C250.978 64.015 250 69.296 250 75c0 6.37 1.052 12.037 3.156 17 2.118 4.963 5.029 9.148 8.733 12.556 3.704 3.407 7.926 6 12.667 7.777 4.74 1.778 9.777 2.667 15.111 2.667 2.37 0 4.703-.222 7-.667a53.687 53.687 0 0 0 6.777-1.777c2.223-.741 4.26-1.63 6.112-2.667 1.555-.815 2.496-2.022 2.822-3.622.341-1.586-.119-3.156-1.378-4.711-.83-1.112-1.889-1.763-3.178-1.956-1.303-.178-2.615.067-3.933.733a27.82 27.82 0 0 1-6.845 2.667 30.64 30.64 0 0 1-7.377.889c-3.926 0-7.578-.615-10.956-1.845-3.378-1.214-6.304-3.066-8.778-5.555-2.474-2.474-4.414-5.511-5.822-9.111-1.422-3.585-2.133-7.711-2.133-12.378 0-4.222.652-8.074 1.955-11.556 1.289-3.481 3.163-6.503 5.623-9.066 2.444-2.548 5.348-4.511 8.711-5.89 3.377-1.362 7.177-2.044 11.4-2.044 2.652 0 5.17.334 7.555 1A35.804 35.804 0 0 1 304 50.111c1.244.667 2.519.926 3.822.778 1.289-.148 2.348-.778 3.178-1.889 1.111-1.407 1.533-2.963 1.267-4.667ZM334.711 112.267c1.141-1.067 1.748-2.415 1.822-4.045V41.778c0-1.63-.57-2.978-1.711-4.045-1.155-1.081-2.474-1.622-3.955-1.622-1.778 0-3.223.54-4.334 1.622-1.111 1.067-1.666 2.415-1.666 4.045v66.444c0 1.63.54 2.978 1.622 4.045 1.067 1.081 2.452 1.622 4.155 1.622 1.556 0 2.912-.541 4.067-1.622Z"/><path fill="#F5654B" fill-rule="evenodd" d="m397.975 94.778 6.669 15.778a6.181 6.181 0 0 0 2.067 2.711c.919.711 1.933 1.066 3.045 1.066 1.333 0 2.54-.503 3.622-1.511 1.066-.992 1.6-2.303 1.6-3.933 0-.741-.148-1.482-.445-2.222l-27.888-67.223c-.445-1.185-1.149-2.11-2.112-2.777-.963-.667-2-1-3.111-1-1.185-.074-2.281.222-3.289.889-.992.666-1.748 1.63-2.266 2.888l-28.223 68.223c-.222.666-.333 1.259-.333 1.777.074 1.408.519 2.571 1.333 3.489.815.934 2.038 1.4 3.667 1.4a4.874 4.874 0 0 0 3-1c.889-.666 1.556-1.592 2-2.777l6.574-15.778h34.09Zm-17.168-40.613L368.33 84.111h25.136l-12.659-29.946Z" clip-rule="evenodd"/><path fill="#F5654B" d="M437.533 103h31.334c1.555 0 2.866.519 3.933 1.556 1.082 1.037 1.622 2.333 1.622 3.888 0 1.556-.54 2.852-1.622 3.889-1.067 1.037-2.378 1.556-3.933 1.556h-37.334c-1.629 0-2.985-.541-4.066-1.622-1.067-1.067-1.6-2.415-1.6-4.045V41.778c0-1.63.555-2.978 1.666-4.045 1.112-1.081 2.556-1.622 4.334-1.622 1.481 0 2.792.54 3.933 1.622 1.156 1.067 1.733 2.415 1.733 4.045V103Z"/><path fill="#F5654B" fill-rule="evenodd" d="M550.844 36.111h-27.111c-1.555 0-2.888.54-4 1.622-1.111 1.067-1.666 2.415-1.666 4.045v66.444c0 1.63.555 2.978 1.666 4.045 1.112 1.081 2.445 1.622 4 1.622h27.111c7.26 0 13.334-1.741 18.223-5.222 4.889-3.482 8.592-8.171 11.111-14.067 2.518-5.881 3.778-12.415 3.778-19.6 0-5.26-.704-10.244-2.111-14.956-1.408-4.696-3.497-8.844-6.267-12.444-2.785-3.585-6.252-6.4-10.4-8.444-4.148-2.03-8.926-3.045-14.334-3.045Zm-21.111 67.111h20c5.26 0 9.519-1.296 12.778-3.889 3.259-2.592 5.652-6.022 7.178-10.289 1.511-4.251 2.267-8.933 2.267-14.044 0-3.778-.423-7.356-1.267-10.733-.859-3.363-2.193-6.363-4-9a20.096 20.096 0 0 0-6.889-6.223c-2.785-1.51-6.141-2.266-10.067-2.266h-20v56.444ZM640.508 94.778l6.67 15.778a6.167 6.167 0 0 0 2.067 2.711c.918.711 1.933 1.066 3.044 1.066 1.333 0 2.541-.503 3.622-1.511 1.067-.992 1.6-2.303 1.6-3.933 0-.741-.148-1.482-.444-2.222l-27.889-67.223c-.445-1.185-1.148-2.11-2.111-2.777-.963-.667-2-1-3.111-1a5.135 5.135 0 0 0-3.267.889c-1.007.666-1.77 1.63-2.289 2.888l-28.222 68.223c-.222.666-.333 1.259-.333 1.777.074 1.408.518 2.571 1.333 3.489.815.934 2.037 1.4 3.667 1.4a4.874 4.874 0 0 0 3-1c.888-.666 1.555-1.592 2-2.777l6.574-15.778h34.089Zm-17.167-40.613-12.478 29.946h25.136l-12.658-29.946Z" clip-rule="evenodd"/><path fill="#F5654B" d="M730.333 37.6c-.918-.993-2.118-1.489-3.6-1.489-1.481 0-2.703.496-3.666 1.489-.963 1.007-1.445 2.252-1.445 3.733v52.609l-42.889-55.83c-.444-.668-1.133-1.164-2.066-1.49-.919-.34-1.785-.51-2.6-.51-1.556 0-2.889.518-4 1.555-1.111 1.037-1.667 2.407-1.667 4.11v67.001c0 1.407.459 2.607 1.378 3.6.933 1.007 2.178 1.511 3.733 1.511 1.482 0 2.704-.504 3.667-1.511.963-.993 1.444-2.193 1.444-3.6V56.314l43.111 55.908c.445.519 1.089.926 1.934 1.222.859.297 1.659.445 2.4.445 1.629 0 2.977-.541 4.044-1.622 1.082-1.067 1.622-2.415 1.622-4.045V41.333c0-1.481-.466-2.726-1.4-3.733ZM807.889 44.333c-.267-1.703-1.215-2.963-2.845-3.777-2.888-1.63-6.014-2.89-9.377-3.778a40.698 40.698 0 0 0-10.4-1.334c-5.704 0-10.963.978-15.778 2.934-4.815 1.97-9.015 4.71-12.6 8.222-3.585 3.526-6.363 7.711-8.333 12.556-1.971 4.859-2.956 10.14-2.956 15.844 0 6.37 1.059 12.037 3.178 17 2.104 4.963 5.007 9.148 8.711 12.556 3.704 3.407 7.926 6 12.667 7.777 4.74 1.778 9.777 2.667 15.111 2.667 2.385 0 4.718-.222 7-.667a53.687 53.687 0 0 0 6.777-1.777c2.223-.741 4.26-1.63 6.112-2.667 1.555-.815 2.503-2.022 2.844-3.622.326-1.586-.133-3.156-1.378-4.711-.815-1.112-1.874-1.763-3.177-1.956-1.289-.178-2.608.067-3.956.733a27.889 27.889 0 0 1-6.822 2.667 30.92 30.92 0 0 1-7.4.889c-3.911 0-7.556-.615-10.934-1.845-3.363-1.214-6.289-3.066-8.777-5.555-2.489-2.474-4.437-5.511-5.845-9.111-1.392-3.585-2.089-7.711-2.089-12.378 0-4.222.645-8.074 1.934-11.556 1.303-3.481 3.17-6.503 5.6-9.066 2.459-2.548 5.37-4.511 8.733-5.89 3.363-1.362 7.156-2.044 11.378-2.044 2.681 0 5.2.334 7.555 1a35.804 35.804 0 0 1 6.778 2.667c1.274.667 2.556.926 3.845.778 1.303-.148 2.362-.778 3.177-1.889 1.111-1.407 1.534-2.963 1.267-4.667ZM830.333 112.267c1.141-1.067 1.749-2.415 1.823-4.045V41.778c0-1.63-.571-2.978-1.712-4.045-1.155-1.081-2.474-1.622-3.955-1.622-1.778 0-3.222.54-4.333 1.622-1.111 1.067-1.667 2.415-1.667 4.045v66.444c0 1.63.541 2.978 1.622 4.045 1.067 1.081 2.452 1.622 4.156 1.622 1.555 0 2.911-.541 4.066-1.622ZM912.111 37.6c-.933-.993-2.141-1.489-3.622-1.489-1.482 0-2.704.496-3.667 1.489-.963 1.007-1.444 2.252-1.444 3.733v52.609l-42.889-55.83c-.444-.668-1.126-1.164-2.044-1.49-.934-.34-1.808-.51-2.623-.51-1.555 0-2.889.518-4 1.555-1.111 1.037-1.666 2.407-1.666 4.11v67.001c0 1.407.466 2.607 1.4 3.6.918 1.007 2.155 1.511 3.711 1.511 1.481 0 2.703-.504 3.666-1.511.963-.993 1.445-2.193 1.445-3.6V56.314l43.111 55.908c.444.519 1.096.926 1.956 1.222.844.297 1.637.445 2.377.445 1.63 0 2.985-.541 4.067-1.622 1.067-1.067 1.6-2.415 1.6-4.045V41.333c0-1.481-.459-2.726-1.378-3.733ZM951.933 111.933c4.889 2.045 10.149 3.067 15.778 3.067 4.445 0 8.682-.63 12.711-1.889 4.045-1.259 7.734-2.926 11.067-5 .741-.518 1.407-1.185 2-2s.889-1.815.889-3V78.444c0-1.63-.541-2.985-1.622-4.066-1.067-1.067-2.378-1.6-3.934-1.6H969.6c-1.63 0-2.985.518-4.067 1.555-1.066 1.037-1.6 2.37-1.6 4s.534 2.963 1.6 4c1.082 1.037 2.437 1.556 4.067 1.556h12.778v16.989c-1.822.837-3.97 1.522-6.445 2.055-2.889.637-5.629.956-8.222.956-5.333 0-10.148-1.282-14.444-3.845-4.296-2.548-7.689-6.03-10.178-10.444-2.474-4.4-3.711-9.267-3.711-14.6 0-5.407 1.237-10.296 3.711-14.667 2.489-4.37 5.882-7.837 10.178-10.4 4.296-2.548 9.111-3.822 14.444-3.822 2.667 0 5.185.274 7.556.822a30.728 30.728 0 0 1 6.666 2.4c.445.223.941.408 1.489.556a6.376 6.376 0 0 0 1.623.222c1.481 0 2.718-.578 3.711-1.733 1.007-1.141 1.511-2.49 1.511-4.045 0-.814-.223-1.651-.667-2.51-.444-.845-1.148-1.527-2.111-2.045-2.741-1.556-5.815-2.741-9.222-3.556A45.236 45.236 0 0 0 967.711 35c-5.629 0-10.889 1.015-15.778 3.044-4.888 2.045-9.17 4.897-12.844 8.556-3.659 3.674-6.526 7.919-8.6 12.733-2.074 4.815-3.111 10.037-3.111 15.667 0 5.63 1.037 10.852 3.111 15.667 2.074 4.814 4.941 9.052 8.6 12.711 3.674 3.674 7.956 6.526 12.844 8.555Z"/><path fill="#703D57" fill-rule="evenodd" d="m63.2 19.388 1.15 3.435a.826.826 0 0 1-.144.783l-3.33 4.066a.83.83 0 0 1-.512.292l-2.547.399.404 2.256 1.75.85-2.558 2.608-1.704.376-2.557 5.332a.815.815 0 0 1-.45.414l-5.674 2.162 3.342 6.985a.825.825 0 0 1-.127.905L32.542 70.154l2.044 6.558a.827.827 0 0 1-.547 1.033l-1.151.35 26.827 19.77a.829.829 0 0 1 .084 1.257l-26.192 25.392a.819.819 0 0 1-.947.142l-7.355-3.745a.822.822 0 0 1-.433-.901.824.824 0 0 1 .144-.324l14.11-19.03-13.473-6.21-.46 14.561a.806.806 0 0 1-.076.322l-12.168 26.093a.818.818 0 0 1-.727.476l-9.341.225h-.02a.825.825 0 0 1-.78-1.092l8.846-25.869-3.59-24.602-4.626-7.158a.825.825 0 0 1-.096-.694l1.97-6.314-1.86-2.67a.828.828 0 0 1 .014-.962l7.5-10.17-5.963-6.61a.823.823 0 0 1-.096-.976l1.265-2.112.836-3.593a.822.822 0 0 1 .265-.439l.264-.226c-.005-.016-.01-.032-.017-.047a.321.321 0 0 1-.024-.083l-.505-4.185a.96.96 0 0 1 0-.195l.871-7.441a.811.811 0 0 1 .892-.726l7.795.691a.825.825 0 0 1 .692.515l1.542 3.848 4.01-7.883-2.998-6.766-2.196 6.51a.831.831 0 0 1-.93.548l-7.29-1.351a.827.827 0 0 1-.653-.998l5.265-22.68a.815.815 0 0 1 .422-.546L17.061.092a.828.828 0 0 1 .993.18l18.94 21.015 2.533-4.546a.83.83 0 0 1 .369-.344l12.163-5.719a.825.825 0 0 1 1.094.391l2.512 5.255 1.152-.086a.816.816 0 0 1 .41.075l5.54 2.59a.827.827 0 0 1 .433.485Zm-11.183-6.87-11.18 5.257-1.622 2.916 6.873-3.587a.839.839 0 0 1 .32-.09l2.29-.172.031-.002a.248.248 0 0 1 .032-.003l5.14-.383-1.884-3.936Zm-16.97 9.093c.007.002.015.005.024.006 0 0-.05-.034-.04-.011l.016.005ZM15.17 32.248l-6.492-.575-.766 6.547.377 3.142 1.984-1.702c.15-.129.34-.2.537-.2h1.226l.966-1.762a.828.828 0 0 1 1.342-.149l2.574 2.924.223-.417v-2.888l-1.97-4.92Zm-8.244 15.38-1.018 1.7 5.348 5.93 5.004-5.866V42.22l-2.378-2.701-.732 1.335 1.578 2.14a.825.825 0 1 1-1.325.98l-1.89-2.566c-.056-.075-.078-.164-.1-.253a3.881 3.881 0 0 0-.01-.047h-.286l-3.293 2.827-.803 3.454a.807.807 0 0 1-.095.237Zm4.998 9.455 2.827 2.48 4.903-5.815-2.548-2.803-5.183 6.138Zm9.585-4.604.018.044 13.175-15.899.704-2.671a.828.828 0 0 1 .366-.491l1.438-.884-1.24-3.862-14.461 23.763Zm12.817-3.11-.543 2.846 3.125-.403-2.582-2.443Zm1.634-11.637L25.483 53.524l15.521-14.578-2.666-1.794-2.378.58Zm15.175-4.95 3.037 1.064.012-.02-.557-4.381-2.703-.54-2.965 1.476-4.053-2.016-.575-3.107-.518-.188-2.203 2.939.773 3.27.002.001.958 4.05v.001l.722 3.056 2.996 2.577 5.747-2.188.132-.275-4.995-2.228a.823.823 0 1 1 .67-1.506l5.039 2.246.801-1.673-2.864-1.003a.825.825 0 1 1 .544-1.555Zm-6.848-9.68-.406.54 12.503 6.086-.312-1.746c-.002-.01-.008-.018-.01-.028l-.034-.224-.746-4.154-3.822-2.54-.76-.438-6.413 2.503Zm13.418 3.612 2.095-.328 2.845-3.471-.894-2.668-5.024-2.35-4.973.371 5.499 2.777a.824.824 0 0 1 .452.735v4.934Zm-8.729 12.538a.824.824 0 0 1-.145.287c-.161.208-2.618-1.465-2.338-1.825a.823.823 0 0 1 1.158-.142l1.037.81a.825.825 0 0 1 .288.87ZM21.134 141.994l7.67 2.322a.828.828 0 0 1 .588.803l-.05 3.15a.823.823 0 0 1-.777.809l-15.624.92-.048.002a.823.823 0 0 1-.636-.3l-2.12-2.571-.891 1.54a.815.815 0 0 1-.668.409L.87 149.5a.813.813 0 0 1-.632-.242.828.828 0 0 1-.237-.633l.55-8.524a.826.826 0 0 1 .991-.753l9.668 2.002-1.167-3.499a.82.82 0 0 1 .402-.993.812.812 0 0 1 .374-.092l5.08-.03c.213-.028.454.092.61.264l4.624 4.994Zm16.294-12.499.626 4.019 6.114 5.204a.826.826 0 0 1 .26.846l-.81 2.97a.829.829 0 0 1-.768.604.844.844 0 0 1-.34-.059l-14.176-5.805a.824.824 0 0 1-.496-.601l-.754-3.733-1.417 1.332a.823.823 0 0 1-.97.116l-7.124-4.047a.806.806 0 0 1-.397-.525.821.821 0 0 1 .118-.649l4.322-6.48a.828.828 0 0 1 .566-.359.871.871 0 0 1 .645.179l6.468 5.336.148-1.929a.821.821 0 0 1 .837-.761c.14.002.276.04.397.11l6.346 3.645a.828.828 0 0 1 .404.587Z" clip-rule="evenodd"/></svg>