<?xml version="1.0" encoding="UTF-8" standalone="no"?>
<!-- Created with Inkscape (http://www.inkscape.org/) -->

<svg
   xmlns:svg="http://www.w3.org/2000/svg"
   xmlns="http://www.w3.org/2000/svg"
   width="100%" height="100%" viewBox="0 0 294.15625 149.59375">
   id="svg2"
   version="1.1">
  <defs
     id="defs4" />
  <g
     id="layer1"
     transform="translate(-257.78125,-548.75)">
    <path
       style="color:#000000;display:inline;overflow:visible;visibility:visible;fill:#3b1c4a;fill-opacity:1;fill-rule:nonzero;stroke:none;marker:none;enable-background:accumulate"
       d="M 20 20 L 20 54.09375 C 31.43679 54.09375 40.71875 63.37571 40.71875 74.8125 C 40.71875 86.24928 31.43679 95.5 20 95.5 L 20 129.59375 L 166.6875 129.59375 L 166.6875 120.09375 L 169.6875 120.09375 L 169.6875 129.59375 L 274.15625 129.59375 L 274.15625 95.5 C 274.14575 95.50002 274.1354 95.5 274.125 95.5 C 262.68822 95.5 253.40625 86.24928 253.40625 74.8125 C 253.40625 63.37571 262.68822 54.09375 274.125 54.09375 C 274.1355 54.09375 274.14585 54.09373 274.15625 54.09375 L 274.15625 20 L 169.6875 20 L 169.6875 29.09375 L 166.6875 29.09375 L 166.6875 20 L 20 20 z M 166.6875 36.09375 L 169.6875 36.09375 L 169.6875 50.09375 L 166.6875 50.09375 L 166.6875 36.09375 z M 208.12891 48.927734 C 210.91958 48.927734 213.15234 50.855474 213.15234 53.240234 C 213.15234 55.624994 210.91958 57.603516 208.12891 57.603516 C 205.38897 57.603516 203.15625 55.624994 203.15625 53.240234 C 203.15625 50.855474 205.38897 48.927734 208.12891 48.927734 z M 194.90039 53.138672 L 194.90039 61.15625 L 198.85938 61.15625 L 198.85938 67.447266 L 194.90039 67.447266 L 194.90039 79.726562 C 194.90039 81.756152 195.61054 82.517578 197.03125 82.517578 C 197.7416 82.517578 198.09828 82.415768 198.85938 82.111328 L 198.85938 88.046875 C 198.14902 88.452785 196.47277 89.011719 194.24023 89.011719 C 188.10074 89.011719 185.25977 85.257843 185.25977 80.539062 L 185.25977 67.447266 L 182.41797 67.447266 L 182.41797 61.15625 L 185.25977 61.15625 L 185.25977 55.574219 L 194.90039 53.138672 z M 166.6875 57.09375 L 169.6875 57.09375 L 169.6875 71.09375 L 166.6875 71.09375 L 166.6875 57.09375 z M 92.119141 60.648438 C 100.59265 60.648438 106.32617 65.164126 106.32617 74.753906 C 106.32617 83.379636 101.30281 88.859375 94.25 88.859375 C 92.52486 88.859375 91.102928 88.656085 90.392578 88.453125 L 90.392578 99.414062 L 80.751953 99.414062 L 80.751953 62.728516 C 83.339673 61.510766 86.842221 60.648435 92.119141 60.648438 z M 141.98242 60.648438 C 150.55741 60.648438 154.61678 66.583801 154.10938 75.869141 L 138.17773 78.103516 C 138.78661 81.046406 140.35834 82.517578 143.85938 82.517578 C 147.1067 82.517578 149.64383 81.806022 151.16602 81.044922 L 153.29688 86.931641 C 150.91212 88.098651 147.71654 89.011719 142.64258 89.011719 C 133.71241 89.011719 128.99414 82.973726 128.99414 74.753906 C 128.99414 66.534096 133.40743 60.648438 141.98242 60.648438 z M 124.06055 60.654297 C 124.95335 60.667874 125.8885 60.69926 126.86523 60.75 L 125.18945 67.447266 C 123.41356 66.584696 121.68841 66.533574 120.41992 66.990234 L 120.41992 88.503906 L 110.7793 88.503906 L 110.7793 62.728516 C 113.57632 61.352202 117.81096 60.559256 124.06055 60.654297 z M 203.30859 61.15625 L 212.94922 61.15625 L 212.94922 88.503906 L 203.30859 88.503906 L 203.30859 61.15625 z M 216.54297 61.15625 L 226.58984 61.15625 L 229.88867 68.005859 L 229.99023 68.005859 L 233.5918 61.15625 L 242.57227 61.15625 L 234.60742 73.789062 L 243.33398 88.503906 L 232.67969 88.503906 L 229.17773 80.943359 L 229.07617 80.943359 L 225.42383 88.503906 L 215.68164 88.503906 L 224.25586 74.398438 L 216.54297 61.15625 z M 141.57617 66.179688 C 138.73475 66.179688 137.16236 68.765636 137.4668 73.535156 L 145.23047 72.369141 C 145.23047 68.208501 144.01167 66.179687 141.57617 66.179688 z M 92.068359 66.279297 C 91.358009 66.279297 90.849228 66.380983 90.392578 66.533203 L 90.392578 82.972656 C 90.747748 83.124866 91.256406 83.226562 91.916016 83.226562 C 95.366316 83.226562 96.787109 80.386048 96.787109 74.804688 C 96.787109 69.071117 95.569389 66.279297 92.068359 66.279297 z M 166.6875 78.09375 L 169.6875 78.09375 L 169.6875 92.09375 L 166.6875 92.09375 L 166.6875 78.09375 z M 166.6875 99.09375 L 169.6875 99.09375 L 169.6875 113.09375 L 166.6875 113.09375 L 166.6875 99.09375 z "
       transform="translate(257.78125,548.75)"
       id="rect3888" />
  </g>
</svg>
